{
DisplayStrings = (
"i-zoom-ini-zoom-out"
);
date = "2013-02-01 22:53:49 +0000";
familyName = "Elusive-Icons";
featurePrefixes = (
{
automatic = 1;
code = "languagesystem DFLT dflt;\012languagesystem latn dflt;\012";
name = Languagesystems;
}
);
features = (
{

glyphs = (
{
glyphname = uniE000;
lastChange = "2013-02-02 05:28:24 +0100";
layers = (
{
layerId = "457A0151-1F15-493B-A022-4CDC4EBB0E42";
name = Regular;
paths = (
{
closed = 1;
nodes = (
"513 25 LINE",
"418 120 LINE",
"446 159 OFFCURVE",
"460 203 OFFCURVE",
"460 251 CURVE SMOOTH",
"460 314 OFFCURVE",
"438 368 OFFCURVE",
"393 413 CURVE SMOOTH",
"348 458 OFFCURVE",
"293 480 OFFCURVE",
"230 480 CURVE SMOOTH",
"167 480 OFFCURVE",
"113 458 OFFCURVE",
"68 413 CURVE SMOOTH",
"23 368 OFFCURVE",
"1 314 OFFCURVE",
"1 251 CURVE SMOOTH",
"1 188 OFFCURVE",
"23 134 OFFCURVE",
"68 89 CURVE SMOOTH",
"113 44 OFFCURVE",
"167 21 OFFCURVE",
"230 21 CURVE SMOOTH",
"278 21 OFFCURVE",
"322 35 OFFCURVE",
"361 63 CURVE",
"456 -32 LINE"
);
},
{
closed = 1;
nodes = (
"314 103 OFFCURVE",
"275 87 OFFCURVE",
"230 87 CURVE SMOOTH",
"185 87 OFFCURVE",
"146 103 OFFCURVE",
"114 135 CURVE SMOOTH",
"82 167 OFFCURVE",
"66 206 OFFCURVE",
"66 251 CURVE SMOOTH",
"66 296 OFFCURVE",
"82 335 OFFCURVE",
"114 367 CURVE SMOOTH",
"146 398 OFFCURVE",
"185 414 OFFCURVE",
"230 414 CURVE SMOOTH",
"275 414 OFFCURVE",
"314 398 OFFCURVE",
"346 367 CURVE SMOOTH",
"378 335 OFFCURVE",
"394 296 OFFCURVE",
"394 251 CURVE SMOOTH",
"394 206 OFFCURVE",
"378 167 OFFCURVE",
"346 135 CURVE SMOOTH"
);
},
{
closed = 1;
nodes = (
"132 218 LINE",
"329 218 LINE",
"329 283 LINE",
"132 283 LINE"
);
}
);
width = 512;
}
);
},
{
glyphname = uniE001;
lastChange = "2013-02-02 00:18:52 +0100";
layers = (
{
layerId = "457A0151-1F15-493B-A022-4CDC4EBB0E42";
name = Regular;
paths = (
{
closed = 1;
nodes = (
"263 349 LINE",
"198 349 LINE",
"198 283 LINE",
"132 283 LINE",
"132 218 LINE",
"198 218 LINE",
"198 152 LINE",
"263 152 LINE",
"263 218 LINE",
"329 218 LINE",
"329 283 LINE",
"263 283 LINE"
);
},
{
closed = 1;
nodes = (
"513 25 LINE",
"418 120 LINE",
"446 159 OFFCURVE",
"460 203 OFFCURVE",
"460 251 CURVE SMOOTH",
"460 314 OFFCURVE",
"438 368 OFFCURVE",
"393 413 CURVE SMOOTH",
"348 458 OFFCURVE",
"293 480 OFFCURVE",
"230 480 CURVE SMOOTH",
"167 480 OFFCURVE",
"113 458 OFFCURVE",
"68 413 CURVE SMOOTH",
"23 368 OFFCURVE",
"1 314 OFFCURVE",
"1 251 CURVE SMOOTH",
"1 188 OFFCURVE",
"23 134 OFFCURVE",
"68 89 CURVE SMOOTH",
"113 44 OFFCURVE",
"167 21 OFFCURVE",
"230 21 CURVE SMOOTH",
"278 21 OFFCURVE",
"322 35 OFFCURVE",
"361 63 CURVE",
"456 -32 LINE"
);
},
{
closed = 1;
nodes = (
"314 103 OFFCURVE",
"275 87 OFFCURVE",
"230 87 CURVE SMOOTH",
"185 87 OFFCURVE",
"146 103 OFFCURVE",
"114 135 CURVE SMOOTH",
"82 167 OFFCURVE",
"66 206 OFFCURVE",
"66 251 CURVE SMOOTH",
"66 296 OFFCURVE",
"82 335 OFFCURVE",
"114 367 CURVE SMOOTH",
"146 398 OFFCURVE",
"185 414 OFFCURVE",
"230 414 CURVE SMOOTH",
"275 414 OFFCURVE",
"314 398 OFFCURVE",
"346 367 CURVE SMOOTH",
"378 335 OFFCURVE",
"394 296 OFFCURVE",
"394 251 CURVE SMOOTH",
"394 206 OFFCURVE",
"378 167 OFFCURVE",
"346 135 CURVE SMOOTH"
);
}
);
width = 512;
}
);
},
{
glyphname = uniE002;
lastChange = "2013-02-02 00:18:52 +0100";
layers = (
{
layerId = "457A0151-1F15-493B-A022-4CDC4EBB0E42";
name = Regular;
paths = (
{
closed = 1;
nodes = (
"512 30 LINE",
"0 30 LINE",
"0 418 LINE",
"512 418 LINE"
);
},
{
closed = 1;
nodes = (
"182 110 LINE",
"361 223 LINE",
"182 335 LINE"
);
}
);
width = 512;
}
);
},
{
glyphname = uniE003;
lastChange = "2013-02-02 00:18:52 +0100";
layers = (
{
layerId = "457A0151-1F15-493B-A022-4CDC4EBB0E42";
name = Regular;
paths = (
{
closed = 1;
nodes = (
"387 455 OFFCURVE",
"327 480 OFFCURVE",
"256 480 CURVE SMOOTH",
"185 480 OFFCURVE",
"125 455 OFFCURVE",
"75 405 CURVE SMOOTH",
"25 355 OFFCURVE",
"0 295 OFFCURVE",
"0 224 CURVE SMOOTH",
"0 153 OFFCURVE",
"25 93 OFFCURVE",
"75 43 CURVE SMOOTH",
"125 -7 OFFCURVE",
"185 -32 OFFCURVE",
"256 -32 CURVE SMOOTH",
"327 -32 OFFCURVE",
"387 -7 OFFCURVE",
"437 43 CURVE SMOOTH",
"487 93 OFFCURVE",
"512 153 OFFCURVE",
"512 224 CURVE SMOOTH",
"512 295 OFFCURVE",
"487 355 OFFCURVE",
"437 405 CURVE SMOOTH"
);
},
{
closed = 1;
nodes = (
"336 378 OFFCURVE",
"345 376 OFFCURVE",
"354 373 CURVE",
"303 322 LINE",
"317 285 LINE",
"354 271 LINE",
"405 322 LINE",
"410 307 OFFCURVE",
"411 292 OFFCURVE",
"408 276 CURVE SMOOTH",
"405 260 OFFCURVE",
"397 246 OFFCURVE",
"386 235 CURVE SMOOTH",
"374 223 OFFCURVE",
"360 215 OFFCURVE",
"344 212 CURVE SMOOTH",
"327 209 OFFCURVE",
"312 210 OFFCURVE",
"298 215 CURVE",
"153 70 LINE",
"102 121 LINE",
"247 266 LINE",
"242 280 OFFCURVE",
"241 295 OFFCURVE",
"244 312 CURVE SMOOTH",
"247 328 OFFCURVE",
"255 342 OFFCURVE",
"267 353 CURVE",
"283 370 OFFCURVE",
"303 378 OFFCURVE",
"326 378 CURVE SMOOTH"
);
},
{
closed = 1;
nodes = (
"135 124 OFFCURVE",
"135 117 OFFCURVE",
"142 110 CURVE SMOOTH",
"149 103 OFFCURVE",
"156 103 OFFCURVE",
"163 110 CURVE SMOOTH",
"170 117 OFFCURVE",
"170 124 OFFCURVE",
"163 131 CURVE SMOOTH",
"156 138 OFFCURVE",
"149 138 OFFCURVE",
"142 131 CURVE SMOOTH"
);
}
);
width = 512;
}
);
},
{
glyphname = uniE004;
lastChange = "2013-02-02 00:18:52 +0100";
layers = (
{
layerId = "457A0151-1F15-493B-A022-4CDC4EBB0E42";
name = Regular;
paths = (
{
closed = 1;
nodes = (
"421 472 LINE",
"396 481 OFFCURVE",
"371 482 OFFCURVE",
"344 477 CURVE",
"317 471 OFFCURVE",
"294 458 OFFCURVE",
"275 439 CURVE SMOOTH",
"256 420 OFFCURVE",
"243 397 OFFCURVE",
"238 370 CURVE",
"232 343 OFFCURVE",
"233 318 OFFCURVE",
"242 293 CURVE",
"1 52 LINE",
"85 -32 LINE",
"326 209 LINE",
"351 200 OFFCURVE",
"376 199 OFFCURVE",
"403 205 CURVE",
"430 210 OFFCURVE",
"453 223 OFFCURVE",
"472 242 CURVE SMOOTH",
"491 261 OFFCURVE",
"504 284 OFFCURVE",
"510 311 CURVE",
"515 338 OFFCURVE",
"514 363 OFFCURVE",
"505 388 CURVE",
"420 303 LINE",
"359 326 LINE",
"336 387 LINE"
);
},
{
closed = 1;
nodes = (
"92 76 OFFCURVE",
"97 74 OFFCURVE",
"102 69 CURVE SMOOTH",
"107 64 OFFCURVE",
"109 59 OFFCURVE",
"109 52 CURVE SMOOTH",
"109 45 OFFCURVE",
"107 39 OFFCURVE",
"102 34 CURVE SMOOTH",
"97 29 OFFCURVE",
"92 27 OFFCURVE",
"85 27 CURVE SMOOTH",
"78 27 OFFCURVE",
"72 29 OFFCURVE",
"67 34 CURVE SMOOTH",
"62 39 OFFCURVE",
"60 45 OFFCURVE",
"60 52 CURVE SMOOTH",
"60 59 OFFCURVE",
"62 64 OFFCURVE",
"67 69 CURVE SMOOTH",
"72 74 OFFCURVE",
"78 76 OFFCURVE",
"85 76 CURVE SMOOTH"
);
}
);
width = 512;
}
);
},
{
glyphname = uniE005;
lastChange = "2013-02-02 00:18:52 +0100";
layers = (
{
layerId = "457A0151-1F15-493B-A022-4CDC4EBB0E42";
name = Regular;
paths = (
{
closed = 1;
nodes = (
"186 -31 OFFCURVE",
"125 -5 OFFCURVE",
"76 46 CURVE SMOOTH",
"27 96 OFFCURVE",
"2 155 OFFCURVE",
"1 224 CURVE",
"2 295 OFFCURVE",
"28 356 OFFCURVE",
"79 405 CURVE SMOOTH",
"129 454 OFFCURVE",
"188 479 OFFCURVE",
"257 480 CURVE SMOOTH",
"328 479 OFFCURVE",
"388 453 OFFCURVE",
"438 403 CURVE SMOOTH",
"487 352 OFFCURVE",
"512 293 OFFCURVE",
"513 224 CURVE SMOOTH",
"512 153 OFFCURVE",
"486 93 OFFCURVE",
"436 44 CURVE SMOOTH",
"385 -6 OFFCURVE",
"326 -31 OFFCURVE",
"257 -32 CURVE SMOOTH"
);
},
{
closed = 1;
nodes = (
"191 461 OFFCURVE",
"135 437 OFFCURVE",
"89 390 CURVE SMOOTH",
"42 343 OFFCURVE",
"19 288 OFFCURVE",
"19 224 CURVE SMOOTH",
"20 158 OFFCURVE",
"44 102 OFFCURVE",
"91 56 CURVE SMOOTH",
"138 10 OFFCURVE",
"193 -13 OFFCURVE",
"257 -14 CURVE SMOOTH",
"323 -13 OFFCURVE",
"379 11 OFFCURVE",
"425 58 CURVE SMOOTH",
"471 105 OFFCURVE",
"494 160 OFFCURVE",
"495 224 CURVE",
"494 290 OFFCURVE",
"470 346 OFFCURVE",
"423 392 CURVE SMOOTH",
"376 438 OFFCURVE",
"321 461 OFFCURVE",
"257 462 CURVE SMOOTH"
);
},
{
closed = 1;
nodes = (
"261 203 LINE",
"329 19 LINE",
"284 4 OFFCURVE",
"240 2 OFFCURVE",
"195 15 CURVE"
);
},
{
closed = 1;
nodes = (
"121 345 OFFCURVE",
"98 343 OFFCURVE",
"75 344 CURVE",
"96 375 OFFCURVE",
"123 399 OFFCURVE",
"156 416 CURVE SMOOTH",
"188 433 OFFCURVE",
"222 441 OFFCURVE",
"257 442 CURVE",
"314 441 OFFCURVE",
"363 422 OFFCURVE",
"404 385 CURVE",
"388 386 OFFCURVE",
"376 379 OFFCURVE",
"368 365 CURVE",
"367 356 OFFCURVE",
"366 350 OFFCURVE",
"365 345 CURVE SMOOTH",
"364 340 OFFCURVE",
"366 334 OFFCURVE",
"369 327 CURVE SMOOTH",
"372 320 OFFCURVE",
"374 314 OFFCURVE",
"376 310 CURVE SMOOTH",
"378 306 OFFCURVE",
"381 301 OFFCURVE",
"385 294 CURVE SMOOTH",
"389 287 OFFCURVE",
"392 282 OFFCURVE",
"394 279 CURVE",
"405 258 OFFCURVE",
"407 233 OFFCURVE",
"398 205 CURVE SMOOTH",
"366 93 LINE",
"287 328 LINE",
"302 329 OFFCURVE",
"310 330 OFFCURVE",
"311 330 CURVE",
"315 331 OFFCURVE",
"318 334 OFFCURVE",
"319 337 CURVE SMOOTH",
"320 340 OFFCURVE",
"318 343 OFFCURVE",
"315 345 CURVE",
"313 347 OFFCURVE",
"311 348 OFFCURVE",
"309 348 CURVE",
"261 344 LINE",
"225 344 LINE SMOOTH",
"224 344 OFFCURVE",
"219 345 OFFCURVE",
"212 346 CURVE SMOOTH",
"204 347 OFFCURVE",
"198 348 OFFCURVE",
"193 347 CURVE SMOOTH",
"188 346 OFFCURVE",
"185 344 OFFCURVE",
"184 340 CURVE",
"183 335 OFFCURVE",
"185 331 OFFCURVE",
"191 330 CURVE",
"202 329 OFFCURVE",
"210 328 OFFCURVE",
"215 327 CURVE",
"250 235 LINE",
"202 93 LINE",
"122 328 LINE",
"137 329 OFFCURVE",
"145 330 OFFCURVE",
"147 330 CURVE",
"153 331 OFFCURVE",
"156 334 OFFCURVE",
"155 340 CURVE SMOOTH",
"154 345 OFFCURVE",
"150 348 OFFCURVE",
"145 348 CURVE"
);
},
{
closed = 1;
nodes = (
"162 28 LINE",
"125 47 OFFCURVE",
"95 73 OFFCURVE",
"73 107 CURVE SMOOTH",
"54 138 OFFCURVE",
"43 172 OFFCURVE",
"40 209 CURVE SMOOTH",
"37 246 OFFCURVE",
"43 280 OFFCURVE",
"57 311 CURVE"
);
},
{
closed = 1;
nodes = (
"449 107 OFFCURVE",
"415 64 OFFCURVE",
"366 35 CURVE",
"368 42 OFFCURVE",
"372 52 OFFCURVE",
"377 67 CURVE SMOOTH",
"438 244 LINE",
"443 261 OFFCURVE",
"447 280 OFFCURVE",
"450 301 CURVE SMOOTH",
"451 310 OFFCURVE",
"450 319 OFFCURVE",
"449 326 CURVE",
"475 271 OFFCURVE",
"481 217 OFFCURVE",
"466 166 CURVE SMOOTH"
);
}
);
width = 512;
}
);
},
{
glyphname = uniE006;
lastChange = "2013-02-02 00:18:52 +0100";
layers = (
{
layerId = "457A0151-1F15-493B-A022-4CDC4EBB0E42";
name = Regular;
paths = (
{
closed = 1;
nodes = (
"370 125 OFFCURVE",
"376 117 OFFCURVE",
"373 104 CURVE SMOOTH",
"371 96 OFFCURVE",
"369 89 OFFCURVE",
"366 83 CURVE",
"353 48 OFFCURVE",
"331 20 OFFCURVE",
"301 -1 CURVE",
"268 -22 OFFCURVE",
"234 -32 OFFCURVE",
"197 -32 CURVE SMOOTH",
"148 -31 OFFCURVE",
"106 -14 OFFCURVE",
"71 19 CURVE SMOOTH",
"36 54 OFFCURVE",
"19 94 OFFCURVE",
"18 141 CURVE",
"19 178 OFFCURVE",
"29 211 OFFCURVE",
"50 240 CURVE SMOOTH",
"72 269 OFFCURVE",
"100 291 OFFCURVE",
"133 304 CURVE",
"148 307 OFFCURVE",
"157 303 OFFCURVE",
"162 291 CURVE",
"164 285 OFFCURVE",
"164 279 OFFCURVE",
"162 274 CURVE",
"159 269 OFFCURVE",
"155 265 OFFCURVE",
"149 264 CURVE",
"122 253 OFFCURVE",
"101 236 OFFCURVE",
"86 215 CURVE",
"71 192 OFFCURVE",
"63 167 OFFCURVE",
"62 141 CURVE",
"63 104 OFFCURVE",
"77 74 OFFCURVE",
"102 49 CURVE",
"130 24 OFFCURVE",
"162 11 OFFCURVE",
"197 11 CURVE SMOOTH",
"226 12 OFFCURVE",
"252 20 OFFCURVE",
"275 35 CURVE",
"299 52 OFFCURVE",
"316 72 OFFCURVE",
"325 97 CURVE",
"327 102 OFFCURVE",
"329 108 OFFCURVE",
"330 113 CURVE",
"334 127 OFFCURVE",
"343 132 OFFCURVE",
"356 129 CURVE"
);
},
{
closed = 1;
nodes = (
"493 46 LINE",
"498 35 OFFCURVE",
"497 25 OFFCURVE",
"488 16 CURVE SMOOTH",
"481 9 OFFCURVE",
"473 7 OFFCURVE",
"464 9 CURVE",
"455 10 OFFCURVE",
"448 15 OFFCURVE",
"444 24 CURVE",
"372 149 LINE",
"355 150 OFFCURVE",
"331 150 OFFCURVE",
"298 150 CURVE SMOOTH",
"265 149 OFFCURVE",
"247 149 OFFCURVE",
"242 149 CURVE",
"222 150 OFFCURVE",
"210 160 OFFCURVE",
"207 177 CURVE SMOOTH",
"177 322 LINE",
"178 322 LINE",
"175 334 OFFCURVE",
"179 345 OFFCURVE",
"189 355 CURVE",
"197 362 OFFCURVE",
"207 366 OFFCURVE",
"219 366 CURVE SMOOTH",
"228 366 OFFCURVE",
"236 363 OFFCURVE",
"243 358 CURVE",
"246 355 OFFCURVE",
"249 353 OFFCURVE",
"252 350 CURVE",
"254 347 OFFCURVE",
"256 344 OFFCURVE",
"257 340 CURVE SMOOTH",
"258 336 OFFCURVE",
"259 333 OFFCURVE",
"260 331 CURVE",
"260 329 OFFCURVE",
"261 325 OFFCURVE",
"262 320 CURVE SMOOTH",
"263 314 OFFCURVE",
"263 310 OFFCURVE",
"264 308 CURVE",
"349 308 LINE",
"360 307 OFFCURVE",
"367 302 OFFCURVE",
"370 292 CURVE",
"371 284 OFFCURVE",
"370 277 OFFCURVE",
"365 272 CURVE SMOOTH",
"360 267 OFFCURVE",
"354 264 OFFCURVE",
"346 265 CURVE",
"273 265 LINE",
"284 211 LINE",
"377 211 LINE",
"393 210 OFFCURVE",
"404 204 OFFCURVE",
"410 191 CURVE"
);
},
{
closed = 1;
nodes = (
"189 379 OFFCURVE",
"177 384 OFFCURVE",
"168 394 CURVE",
"158 403 OFFCURVE",
"153 415 OFFCURVE",
"153 429 CURVE",
"154 444 OFFCURVE",
"159 456 OFFCURVE",
"169 466 CURVE SMOOTH",
"178 475 OFFCURVE",
"190 480 OFFCURVE",
"204 480 CURVE",
"219 479 OFFCURVE",
"231 474 OFFCURVE",
"241 465 CURVE",
"250 455 OFFCURVE",
"255 443 OFFCURVE",
"255 429 CURVE",
"254 414 OFFCURVE",
"249 402 OFFCURVE",
"239 393 CURVE",
"229 383 OFFCURVE",
"217 378 OFFCURVE",
"204 378 CURVE"
);
}
);
width = 512;
}
);
},
{
glyphname = uniE007;
lastChange = "2013-02-02 00:18:52 +0100";
layers = (
{
layerId = "457A0151-1F15-493B-A022-4CDC4EBB0E42";
name = Regular;
paths = (
{
closed = 1;
nodes = (
"388 455 OFFCURVE",
"328 480 OFFCURVE",
"257 480 CURVE SMOOTH",
"186 480 OFFCURVE",
"126 455 OFFCURVE",
"76 405 CURVE SMOOTH",
"26 355 OFFCURVE",
"1 295 OFFCURVE",
"1 224 CURVE SMOOTH",
"1 153 OFFCURVE",
"26 93 OFFCURVE",
"76 43 CURVE SMOOTH",
"126 -7 OFFCURVE",
"186 -32 OFFCURVE",
"257 -32 CURVE SMOOTH",
"328 -32 OFFCURVE",
"388 -7 OFFCURVE",
"438 43 CURVE SMOOTH",
"488 93 OFFCURVE",
"513 153 OFFCURVE",
"513 224 CURVE SMOOTH",
"513 295 OFFCURVE",
"488 355 OFFCURVE",
"438 405 CURVE SMOOTH"
);
},
{
closed = 1;
nodes = (
"121 351 LINE",
"393 351 LINE",
"393 97 LINE",
"121 97 LINE"
);
},
{
closed = 1;
nodes = (
"154 318 LINE",
"154 130 LINE",
"359 130 LINE",
"359 318 LINE"
);
},
{
closed = 1;
nodes = (
"177 294 LINE",
"337 294 LINE",
"337 211 LINE",
"177 211 LINE"
);
},
{
closed = 1;
nodes = (
"177 196 LINE",
"222 196 LINE",
"222 151 LINE",
"177 151 LINE"
);
},
{
closed = 1;
nodes = (
"234 196 LINE",
"279 196 LINE",
"279 151 LINE",
"234 151 LINE"
);
},
{
closed = 1;
nodes = (
"291 196 LINE",
"337 196 LINE",
"337 151 LINE",
"291 151 LINE"
);
}
);
width = 512;
}
);
},
{
glyphname = uniE008;
lastChange = "2013-02-02 00:18:52 +0100";
layers = (
{
layerId = "457A0151-1F15-493B-A022-4CDC4EBB0E42";
name = Regular;
paths = (
{
closed = 1;
nodes = (
"299 87 LINE",
"214 87 LINE",
"214 172 LINE",
"299 172 LINE"
);
},
{
closed = 1;
nodes = (
"407 87 LINE",
"322 87 LINE",
"322 172 LINE",
"407 172 LINE"
);
},
{
closed = 1;
nodes = (
"191 87 LINE",
"106 87 LINE",
"106 172 LINE",
"191 172 LINE"
);
},
{
closed = 1;
nodes = (
"407 356 LINE",
"407 199 LINE",
"106 199 LINE",
"106 356 LINE"
);
},
{
closed = 1;
nodes = (
"450 401 LINE",
"64 401 LINE",
"64 47 LINE",
"450 47 LINE"
);
},
{
closed = 1;
nodes = (
"1 -16 LINE",
"1 464 LINE",
"513 464 LINE",
"513 -16 LINE"
);
}
);
width = 512;
}
);
},
{
glyphname = uniE009;
lastChange = "2013-02-02 00:18:52 +0100";
layers = (
{
layerId = "457A0151-1F15-493B-A022-4CDC4EBB0E42";
name = Regular;
paths = (
{
closed = 1;
nodes = (
"256 480 LINE",
"0 -32 LINE",
"512 -32 LINE"
);
},
{
closed = 1;
nodes = (
"236 302 LINE",
"276 302 LINE",
"276 235 LINE",
"266 140 LINE",
"246 140 LINE",
"236 235 LINE"
);
},
{
closed = 1;
nodes = (
"236 102 LINE",
"276 102 LINE",
"276 60 LINE",
"236 60 LINE"
);
}
);
width = 512;
}
);
},
{
glyphname = uniE00A;
lastChange = "2013-02-02 00:18:52 +0100";
layers = (
{
layerId = "457A0151-1F15-493B-A022-4CDC4EBB0E42";
name = Regular;
paths = (
{
closed = 1;
nodes = (
"460 218 OFFCURVE",
"459 222 OFFCURVE",
"454 223 CURVE",
"435 232 LINE SMOOTH",
"433 233 OFFCURVE",
"431 233 OFFCURVE",
"428 232 CURVE SMOOTH",
"425 231 OFFCURVE",
"424 229 OFFCURVE",
"423 227 CURVE",
"419 217 OFFCURVE",
"413 212 OFFCURVE",
"406 212 CURVE SMOOTH",
"399 212 OFFCURVE",
"393 216 OFFCURVE",
"388 224 CURVE SMOOTH",
"383 232 OFFCURVE",
"381 243 OFFCURVE",
"381 256 CURVE SMOOTH",
"381 269 OFFCURVE",
"383 279 OFFCURVE",
"388 287 CURVE SMOOTH",
"393 295 OFFCURVE",
"399 299 OFFCURVE",
"406 299 CURVE",
"413 298 OFFCURVE",
"419 294 OFFCURVE",
"423 285 CURVE",
"426 280 OFFCURVE",
"430 279 OFFCURVE",
"435 280 CURVE",
"454 289 LINE SMOOTH",
"460 292 OFFCURVE",
"462 297 OFFCURVE",
"459 302 CURVE",
"448 326 OFFCURVE",
"430 338 OFFCURVE",
"406 338 CURVE SMOOTH",
"386 338 OFFCURVE",
"370 330 OFFCURVE",
"358 315 CURVE",
"345 300 OFFCURVE",
"339 280 OFFCURVE",
"339 255 CURVE SMOOTH",
"339 230 OFFCURVE",
"345 211 OFFCURVE",
"358 196 CURVE",
"370 181 OFFCURVE",
"386 173 OFFCURVE",
"406 173 CURVE SMOOTH",
"430 173 OFFCURVE",
"448 186 OFFCURVE",
"459 211 CURVE"
);
},
{
closed = 1;
nodes = (
"288 174 OFFCURVE",
"301 179 OFFCURVE",
"312 188 CURVE SMOOTH",
"323 197 OFFCURVE",
"328 209 OFFCURVE",
"328 223 CURVE",
"327 238 OFFCURVE",
"322 249 OFFCURVE",
"311 258 CURVE",
"321 267 OFFCURVE",
"326 278 OFFCURVE",
"326 290 CURVE",
"325 305 OFFCURVE",
"320 317 OFFCURVE",
"310 325 CURVE",
"299 333 OFFCURVE",
"287 337 OFFCURVE",
"273 337 CURVE SMOOTH",
"251 337 OFFCURVE",
"234 328 OFFCURVE",
"222 311 CURVE SMOOTH",
"219 307 OFFCURVE",
"220 303 OFFCURVE",
"223 299 CURVE",
"237 286 LINE",
"242 282 OFFCURVE",
"246 282 OFFCURVE",
"250 287 CURVE SMOOTH",
"256 295 OFFCURVE",
"263 299 OFFCURVE",
"271 299 CURVE SMOOTH",
"278 299 OFFCURVE",
"282 297 OFFCURVE",
"283 294 CURVE",
"285 290 OFFCURVE",
"285 286 OFFCURVE",
"283 281 CURVE",
"280 278 OFFCURVE",
"273 276 OFFCURVE",
"260 276 CURVE SMOOTH",
"253 276 OFFCURVE",
"250 273 OFFCURVE",
"250 268 CURVE SMOOTH",
"250 247 LINE",
"251 240 OFFCURVE",
"254 237 OFFCURVE",
"260 238 CURVE",
"275 238 OFFCURVE",
"284 236 OFFCURVE",
"285 233 CURVE SMOOTH",
"286 230 OFFCURVE",
"287 227 OFFCURVE",
"287 225 CURVE SMOOTH",
"287 216 OFFCURVE",
"282 212 OFFCURVE",
"273 212 CURVE SMOOTH",
"263 212 OFFCURVE",
"255 216 OFFCURVE",
"249 225 CURVE",
"245 230 OFFCURVE",
"241 231 OFFCURVE",
"236 226 CURVE SMOOTH",
"221 211 LINE SMOOTH",
"218 208 OFFCURVE",
"217 204 OFFCURVE",
"220 200 CURVE SMOOTH",
"233 183 OFFCURVE",
"250 174 OFFCURVE",
"273 173 CURVE"
);
},
{
closed = 1;
nodes = (
"215 324 LINE",
"216 327 OFFCURVE",
"215 330 OFFCURVE",
"214 332 CURVE",
"212 334 OFFCURVE",
"210 335 OFFCURVE",
"207 335 CURVE SMOOTH",
"181 335 LINE SMOOTH",
"176 335 OFFCURVE",
"174 333 OFFCURVE",
"173 328 CURVE SMOOTH",
"161 266 LINE",
"148 328 LINE SMOOTH",
"147 333 OFFCURVE",
"144 335 OFFCURVE",
"139 335 CURVE SMOOTH",
"120 335 LINE SMOOTH",
"115 335 OFFCURVE",
"113 333 OFFCURVE",
"112 328 CURVE SMOOTH",
"99 266 LINE",
"86 328 LINE SMOOTH",
"85 333 OFFCURVE",
"83 335 OFFCURVE",
"78 335 CURVE SMOOTH",
"52 335 LINE SMOOTH",
"45 335 OFFCURVE",
"43 331 OFFCURVE",
"44 324 CURVE",
"76 183 LINE SMOOTH",
"77 178 OFFCURVE",
"80 176 OFFCURVE",
"85 176 CURVE SMOOTH",
"109 176 LINE SMOOTH",
"114 176 OFFCURVE",
"117 178 OFFCURVE",
"118 183 CURVE SMOOTH",
"130 241 LINE",
"141 183 LINE SMOOTH",
"142 178 OFFCURVE",
"145 176 OFFCURVE",
"150 176 CURVE SMOOTH",
"175 176 LINE SMOOTH",
"180 176 OFFCURVE",
"183 178 OFFCURVE",
"184 183 CURVE SMOOTH"
);
},
{
closed = 1;
nodes = (
"513 480 LINE",
"513 88 LINE",
"257 -32 LINE",
"1 88 LINE",
"1 480 LINE"
);
}
);
width = 512;
}
);
},
{
glyphname = uniE00B;
lastChange = "2013-02-02 00:18:52 +0100";
layers = (
{
layerId = "457A0151-1F15-493B-A022-4CDC4EBB0E42";
name = Regular;
paths = (
{
closed = 1;
nodes = (
"1 314 LINE",
"105 314 LINE",
"262 442 LINE",
"262 3 LINE",
"105 130 LINE",
"1 130 LINE"
);
},
{
closed = 1;
nodes = (
"320 335 LINE",
"351 304 OFFCURVE",
"366 267 OFFCURVE",
"367 223 CURVE SMOOTH",
"367 180 OFFCURVE",
"351 144 OFFCURVE",
"320 114 CURVE",
"289 147 LINE",
"310 168 OFFCURVE",
"321 194 OFFCURVE",
"321 224 CURVE SMOOTH",
"321 254 OFFCURVE",
"310 280 OFFCURVE",
"289 302 CURVE"
);
},
{
closed = 1;
nodes = (
"375 388 LINE",
"420 343 OFFCURVE",
"442 288 OFFCURVE",
"442 225 CURVE SMOOTH",
"442 161 OFFCURVE",
"420 106 OFFCURVE",
"375 60 CURVE",
"341 93 LINE",
"377 129 OFFCURVE",
"395 173 OFFCURVE",
"395 224 CURVE SMOOTH",
"395 275 OFFCURVE",
"377 319 OFFCURVE",
"341 356 CURVE"
);
},
{
closed = 1;
nodes = (
"424 438 LINE",
"452 410 OFFCURVE",
"474 378 OFFCURVE",
"490 341 CURVE SMOOTH",
"505 304 OFFCURVE",
"513 266 OFFCURVE",
"513 225 CURVE SMOOTH",
"513 184 OFFCURVE",
"505 145 OFFCURVE",
"490 108 CURVE SMOOTH",
"474 71 OFFCURVE",
"452 38 OFFCURVE",
"424 10 CURVE",
"392 43 LINE",
"442 93 OFFCURVE",
"467 153 OFFCURVE",
"467 224 CURVE SMOOTH",
"467 295 OFFCURVE",
"442 355 OFFCURVE",
"392 405 CURVE"
);
}
);
width = 512;
}
);
},
{
glyphname = uniE00C;
lastChange = "2013-02-02 00:18:52 +0100";
layers = (
{
layerId = "457A0151-1F15-493B-A022-4CDC4EBB0E42";
name = Regular;
paths = (
{
closed = 1;
nodes = (
"422 189 LINE SMOOTH",
"423 188 OFFCURVE",
"423 188 OFFCURVE",
"423 187 CURVE SMOOTH",
"423 186 OFFCURVE",
"423 185 OFFCURVE",
"422 184 CURVE SMOOTH",
"397 159 LINE SMOOTH",
"396 158 OFFCURVE",
"396 158 OFFCURVE",
"395 158 CURVE SMOOTH",
"394 158 OFFCURVE",
"393 158 OFFCURVE",
"392 159 CURVE SMOOTH",
"357 194 LINE",
"322 159 LINE SMOOTH",
"321 158 OFFCURVE",
"321 158 OFFCURVE",
"320 158 CURVE SMOOTH",
"319 158 OFFCURVE",
"318 158 OFFCURVE",
"317 159 CURVE SMOOTH",
"292 184 LINE SMOOTH",
"291 185 OFFCURVE",
"291 186 OFFCURVE",
"291 187 CURVE SMOOTH",
"291 188 OFFCURVE",
"291 188 OFFCURVE",
"292 189 CURVE SMOOTH",
"327 224 LINE",
"292 259 LINE SMOOTH",
"291 260 OFFCURVE",
"291 261 OFFCURVE",
"291 262 CURVE SMOOTH",
"291 263 OFFCURVE",
"291 263 OFFCURVE",
"292 264 CURVE SMOOTH",
"317 289 LINE SMOOTH",
"318 290 OFFCURVE",
"319 290 OFFCURVE",
"320 290 CURVE SMOOTH",
"321 290 OFFCURVE",
"321 290 OFFCURVE",
"322 289 CURVE SMOOTH",
"357 254 LINE",
"392 289 LINE SMOOTH",
"393 290 OFFCURVE",
"394 290 OFFCURVE",
"395 290 CURVE SMOOTH",
"396 290 OFFCURVE",
"396 290 OFFCURVE",
"397 289 CURVE SMOOTH",
"422 264 LINE SMOOTH",
"423 263 OFFCURVE",
"423 263 OFFCURVE",
"423 262 CURVE SMOOTH",
"423 261 OFFCURVE",
"423 260 OFFCURVE",
"422 259 CURVE SMOOTH",
"387 224 LINE"
);
},
{
closed = 1;
nodes = (
"0 317 LINE",
"105 317 LINE",
"263 445 LINE",
"263 3 LINE",
"105 131 LINE",
"0 131 LINE",
"-35 317 LINE"
);
}
);
width = 512;
}
);
},
{
glyphname = uniE00D;
lastChange = "2013-02-02 00:18:52 +0100";
layers = (
{
layerId = "457A0151-1F15-493B-A022-4CDC4EBB0E42";
name = Regular;
paths = (
{
closed = 1;
nodes = (
"1 317 LINE",
"106 317 LINE",
"264 445 LINE",
"264 3 LINE",
"106 131 LINE",
"1 131 LINE"
);
},
{
closed = 1;
nodes = (
"323 338 LINE",
"354 307 OFFCURVE",
"369 269 OFFCURVE",
"370 224 CURVE SMOOTH",
"370 182 OFFCURVE",
"354 146 OFFCURVE",
"323 115 CURVE",
"291 148 LINE",
"313 170 OFFCURVE",
"324 196 OFFCURVE",
"324 225 CURVE SMOOTH",
"324 256 OFFCURVE",
"313 282 OFFCURVE",
"291 305 CURVE"
);
}
);
width = 512;
}
);
},
{
glyphname = uniE00E;
lastChange = "2013-02-02 00:18:52 +0100";
layers = (
{
layerId = "457A0151-1F15-493B-A022-4CDC4EBB0E42";
name = Regular;
paths = (
{
closed = 1;
nodes = (
"389 358 OFFCURVE",
"371 363 OFFCURVE",
"352 358 CURVE SMOOTH",
"333 353 OFFCURVE",
"315 343 OFFCURVE",
"300 328 CURVE SMOOTH",
"285 313 OFFCURVE",
"274 297 OFFCURVE",
"268 280 CURVE",
"285 280 OFFCURVE",
"295 279 OFFCURVE",
"298 278 CURVE",
"308 273 OFFCURVE",
"312 262 OFFCURVE",
"311 245 CURVE",
"307 228 OFFCURVE",
"301 211 OFFCURVE",
"292 194 CURVE SMOOTH",
"283 177 OFFCURVE",
"273 168 OFFCURVE",
"262 166 CURVE",
"257 166 OFFCURVE",
"252 169 OFFCURVE",
"247 175 CURVE SMOOTH",
"240 183 OFFCURVE",
"236 192 OFFCURVE",
"233 201 CURVE SMOOTH",
"230 210 OFFCURVE",
"228 222 OFFCURVE",
"227 237 CURVE",
"225 252 OFFCURVE",
"224 262 OFFCURVE",
"223 265 CURVE",
"223 266 OFFCURVE",
"222 271 OFFCURVE",
"221 281 CURVE",
"219 291 OFFCURVE",
"218 298 OFFCURVE",
"217 303 CURVE",
"216 307 OFFCURVE",
"214 313 OFFCURVE",
"211 321 CURVE",
"208 328 OFFCURVE",
"205 334 OFFCURVE",
"201 339 CURVE",
"197 343 OFFCURVE",
"192 346 OFFCURVE",
"187 348 CURVE",
"164 351 OFFCURVE",
"138 339 OFFCURVE",
"107 310 CURVE",
"94 299 OFFCURVE",
"82 288 OFFCURVE",
"69 277 CURVE",
"69 275 LINE",
"70 274 OFFCURVE",
"71 272 OFFCURVE",
"73 269 CURVE SMOOTH",
"75 266 OFFCURVE",
"76 265 OFFCURVE",
"77 264 CURVE SMOOTH",
"81 260 OFFCURVE",
"87 259 OFFCURVE",
"96 262 CURVE SMOOTH",
"105 265 OFFCURVE",
"112 267 OFFCURVE",
"117 267 CURVE",
"122 266 OFFCURVE",
"127 262 OFFCURVE",
"132 253 CURVE",
"141 228 OFFCURVE",
"154 185 OFFCURVE",
"170 124 CURVE",
"181 89 OFFCURVE",
"194 69 OFFCURVE",
"209 62 CURVE",
"218 60 OFFCURVE",
"227 60 OFFCURVE",
"236 62 CURVE SMOOTH",
"245 64 OFFCURVE",
"252 67 OFFCURVE",
"259 71 CURVE",
"300 97 OFFCURVE",
"336 138 OFFCURVE",
"368 193 CURVE",
"369 194 OFFCURVE",
"373 203 OFFCURVE",
"382 219 CURVE",
"390 235 OFFCURVE",
"396 247 OFFCURVE",
"399 254 CURVE SMOOTH",
"402 261 OFFCURVE",
"405 272 OFFCURVE",
"410 285 CURVE SMOOTH",
"415 298 OFFCURVE",
"417 310 OFFCURVE",
"416 320 CURVE SMOOTH",
"415 329 OFFCURVE",
"412 337 OFFCURVE",
"407 344 CURVE"
);
},
{
closed = 1;
nodes = (
"513 480 LINE",
"513 -32 LINE",
"1 -32 LINE",
"1 480 LINE"
);
}
);
width = 512;
}
);
},
{
glyphname = uniE00F;
lastChange = "2013-02-02 00:18:52 +0100";
layers = (
{
layerId = "457A0151-1F15-493B-A022-4CDC4EBB0E42";
name = Regular;
paths = (
{
closed = 1;
nodes = (
"474 480 LINE",
"0 6 LINE",
"38 -32 LINE",
"512 442 LINE"
);
},
{
closed = 1;
nodes = (
"0 479 LINE",
"0 359 LINE",
"120 359 LINE",
"120 479 LINE"
);
},
{
closed = 1;
nodes = (
"141 479 LINE",
"141 359 LINE",
"261 359 LINE",
"261 479 LINE"
);
},
{
closed = 1;
nodes = (
"0 336 LINE",
"0 216 LINE",
"120 216 LINE",
"120 336 LINE"
);
},
{
closed = 1;
nodes = (
"141 336 LINE",
"141 216 LINE",
"261 336 LINE"
);
},
{
closed = 1;
nodes = (
"352 208 LINE",
"278 141 LINE",
"512 141 LINE",
"512 208 LINE"
);
},
{
closed = 1;
nodes = (
"262 122 LINE",
"262 55 LINE",
"512 55 LINE",
"512 122 LINE"
);
},
{
closed = 1;
nodes = (
"262 36 LINE",
"262 -31 LINE",
"512 -31 LINE",
"512 36 LINE"
);
}
);
width = 512;
}
);
},
{
glyphname = uniE010;
lastChange = "2013-02-02 00:18:52 +0100";
layers = (
{
layerId = "457A0151-1F15-493B-A022-4CDC4EBB0E42";
name = Regular;
paths = (
{
closed = 1;
nodes = (
"1 459 LINE",
"1 94 LINE",
"107 94 LINE",
"107 -11 LINE",
"271 94 LINE",
"513 94 LINE",
"513 459 LINE"
);
},
{
closed = 1;
nodes = (
"113 367 LINE",
"319 367 LINE",
"319 304 LINE",
"401 367 LINE",
"401 197 LINE",
"319 261 LINE",
"319 197 LINE",
"113 197 LINE"
);
}
);
width = 512;
}
);
},
{
glyphname = uniE011;
lastChange = "2013-02-02 00:18:52 +0100";
layers = (
{
layerId = "457A0151-1F15-493B-A022-4CDC4EBB0E42";
name = Regular;
paths = (
{
closed = 1;
nodes = (
"387 455 OFFCURVE",
"327 480 OFFCURVE",
"256 480 CURVE SMOOTH",
"185 480 OFFCURVE",
"125 455 OFFCURVE",
"75 405 CURVE SMOOTH",
"25 355 OFFCURVE",
"0 295 OFFCURVE",
"0 224 CURVE SMOOTH",
"0 153 OFFCURVE",
"25 93 OFFCURVE",
"75 43 CURVE SMOOTH",
"125 -7 OFFCURVE",
"185 -32 OFFCURVE",
"256 -32 CURVE SMOOTH",
"327 -32 OFFCURVE",
"387 -7 OFFCURVE",
"437 43 CURVE SMOOTH",
"487 93 OFFCURVE",
"512 153 OFFCURVE",
"512 224 CURVE SMOOTH",
"512 295 OFFCURVE",
"487 355 OFFCURVE",
"437 405 CURVE SMOOTH"
);
},
{
closed = 1;
nodes = (
"103 340 LINE",
"409 340 LINE",
"409 108 LINE",
"103 108 LINE"
);
},
{
closed = 1;
nodes = (
"141 302 LINE",
"141 146 LINE",
"371 146 LINE",
"371 302 LINE"
);
},
{
closed = 1;
nodes = (
"222 275 LINE",
"312 223 LINE",
"222 171 LINE"
);
}
);
width = 512;
}
);
},
{
glyphname = uniE012;
lastChange = "2013-02-02 00:18:52 +0100";
layers = (
{
layerId = "457A0151-1F15-493B-A022-4CDC4EBB0E42";
name = Regular;
paths = (
{
closed = 1;
nodes = (
"0 418 LINE",
"0 30 LINE",
"512 30 LINE",
"512 418 LINE"
);
},
{
closed = 1;
nodes = (
"63 355 LINE",
"449 355 LINE",
"449 93 LINE",
"63 93 LINE"
);
},
{
closed = 1;
nodes = (
"199 309 LINE",
"199 135 LINE",
"349 222 LINE"
);
}
);
width = 512;
}
);
},
{
glyphname = uniE013;
lastChange = "2013-02-02 00:18:52 +0100";
layers = (
{
layerId = "457A0151-1F15-493B-A022-4CDC4EBB0E42";
name = Regular;
paths = (
{
closed = 1;
nodes = (
"368 126 OFFCURVE",
"345 138 OFFCURVE",
"332 151 CURVE SMOOTH",
"319 164 OFFCURVE",
"313 181 OFFCURVE",
"313 203 CURVE SMOOTH",
"313 213 OFFCURVE",
"318 225 OFFCURVE",
"327 240 CURVE SMOOTH",
"336 255 OFFCURVE",
"341 265 OFFCURVE",
"343 270 CURVE",
"347 282 OFFCURVE",
"352 305 OFFCURVE",
"358 339 CURVE SMOOTH",
"361 357 OFFCURVE",
"364 373 OFFCURVE",
"365 387 CURVE",
"366 394 OFFCURVE",
"365 403 OFFCURVE",
"362 413 CURVE SMOOTH",
"359 422 OFFCURVE",
"355 432 OFFCURVE",
"348 443 CURVE SMOOTH",
"341 454 OFFCURVE",
"329 463 OFFCURVE",
"314 470 CURVE SMOOTH",
"298 477 OFFCURVE",
"279 480 OFFCURVE",
"257 480 CURVE SMOOTH",
"235 480 OFFCURVE",
"216 477 OFFCURVE",
"201 470 CURVE SMOOTH",
"185 463 OFFCURVE",
"174 454 OFFCURVE",
"167 443 CURVE SMOOTH",
"160 432 OFFCURVE",
"155 422 OFFCURVE",
"152 413 CURVE SMOOTH",
"149 403 OFFCURVE",
"148 394 OFFCURVE",
"149 387 CURVE",
"150 373 OFFCURVE",
"153 357 OFFCURVE",
"156 339 CURVE SMOOTH",
"162 305 OFFCURVE",
"167 282 OFFCURVE",
"171 270 CURVE",
"173 265 OFFCURVE",
"179 255 OFFCURVE",
"188 240 CURVE SMOOTH",
"197 225 OFFCURVE",
"201 213 OFFCURVE",
"201 203 CURVE SMOOTH",
"201 181 OFFCURVE",
"195 164 OFFCURVE",
"182 151 CURVE SMOOTH",
"169 138 OFFCURVE",
"146 126 OFFCURVE",
"112 114 CURVE SMOOTH",
"77 101 OFFCURVE",
"50 89 OFFCURVE",
"31 78 CURVE SMOOTH",
"11 66 OFFCURVE",
"1 56 OFFCURVE",
"1 48 CURVE SMOOTH",
"1 -32 LINE",
"513 -32 LINE",
"513 48 LINE SMOOTH",
"513 65 OFFCURVE",
"476 87 OFFCURVE",
"402 114 CURVE SMOOTH"
);
}
);
width = 512;
}
);
},
{
glyphname = uniE014;
lastChange = "2013-02-02 00:18:52 +0100";
layers = (
{
layerId = "457A0151-1F15-493B-A022-4CDC4EBB0E42";
name = Regular;
paths = (
{
closed = 1;
nodes = (
"388 -7 OFFCURVE",
"328 -32 OFFCURVE",
"257 -32 CURVE SMOOTH",
"186 -32 OFFCURVE",
"126 -7 OFFCURVE",
"76 43 CURVE SMOOTH",
"26 93 OFFCURVE",
"1 153 OFFCURVE",
"1 224 CURVE SMOOTH",
"1 295 OFFCURVE",
"26 355 OFFCURVE",
"76 405 CURVE SMOOTH",
"126 455 OFFCURVE",
"186 480 OFFCURVE",
"257 480 CURVE SMOOTH",
"328 480 OFFCURVE",
"388 455 OFFCURVE",
"438 405 CURVE SMOOTH",
"488 355 OFFCURVE",
"513 295 OFFCURVE",
"513 224 CURVE SMOOTH",
"513 153 OFFCURVE",
"488 93 OFFCURVE",
"438 43 CURVE SMOOTH"
);
},
{
closed = 1;
nodes = (
"360 405 OFFCURVE",
"312 424 OFFCURVE",
"257 424 CURVE SMOOTH",
"202 424 OFFCURVE",
"155 405 OFFCURVE",
"116 366 CURVE SMOOTH",
"77 327 OFFCURVE",
"57 279 OFFCURVE",
"57 224 CURVE SMOOTH",
"57 169 OFFCURVE",
"77 122 OFFCURVE",
"116 83 CURVE SMOOTH",
"155 44 OFFCURVE",
"202 24 OFFCURVE",
"257 24 CURVE SMOOTH",
"312 24 OFFCURVE",
"360 44 OFFCURVE",
"399 83 CURVE SMOOTH",
"438 122 OFFCURVE",
"457 169 OFFCURVE",
"457 224 CURVE SMOOTH",
"457 279 OFFCURVE",
"438 327 OFFCURVE",
"399 366 CURVE SMOOTH"
);
},
{
closed = 1;
nodes = (
"307 117 LINE",
"207 117 LINE",
"207 231 LINE",
"144 231 LINE",
"257 337 LINE",
"370 231 LINE",
"307 231 LINE"
);
}
);
width = 512;
}
);
},
{
glyphname = uniE015;
lastChange = "2013-02-02 00:18:52 +0100";
layers = (
{
layerId = "457A0151-1F15-493B-A022-4CDC4EBB0E42";
name = Regular;
paths = (
{
closed = 1;
nodes = (
"388 455 OFFCURVE",
"328 480 OFFCURVE",
"257 480 CURVE SMOOTH",
"186 480 OFFCURVE",
"126 455 OFFCURVE",
"76 405 CURVE SMOOTH",
"26 355 OFFCURVE",
"1 295 OFFCURVE",
"1 224 CURVE SMOOTH",
"1 153 OFFCURVE",
"26 93 OFFCURVE",
"76 43 CURVE SMOOTH",
"126 -7 OFFCURVE",
"186 -32 OFFCURVE",
"257 -32 CURVE SMOOTH",
"328 -32 OFFCURVE",
"388 -7 OFFCURVE",
"438 43 CURVE SMOOTH",
"488 93 OFFCURVE",
"513 153 OFFCURVE",
"513 224 CURVE SMOOTH",
"513 295 OFFCURVE",
"488 355 OFFCURVE",
"438 405 CURVE SMOOTH"
);
},
{
closed = 1;
nodes = (
"284 390 OFFCURVE",
"303 383 OFFCURVE",
"320 366 CURVE SMOOTH",
"336 349 OFFCURVE",
"344 329 OFFCURVE",
"345 306 CURVE",
"295 306 LINE",
"294 316 OFFCURVE",
"291 324 OFFCURVE",
"285 331 CURVE",
"278 337 OFFCURVE",
"270 340 OFFCURVE",
"261 339 CURVE",
"251 339 OFFCURVE",
"243 336 OFFCURVE",
"236 329 CURVE SMOOTH",
"229 322 OFFCURVE",
"226 314 OFFCURVE",
"226 305 CURVE SMOOTH",
"226 265 LINE",
"381 265 LINE",
"381 109 LINE",
"133 109 LINE",
"133 265 LINE",
"176 265 LINE",
"176 305 LINE",
"178 329 OFFCURVE",
"187 349 OFFCURVE",
"202 365 CURVE SMOOTH",
"217 380 OFFCURVE",
"237 388 OFFCURVE",
"261 389 CURVE SMOOTH"
);
}
);
width = 512;
}
);
},
{
glyphname = uniE016;
lastChange = "2013-02-02 00:18:52 +0100";
layers = (
{
layerId = "457A0151-1F15-493B-A022-4CDC4EBB0E42";
name = Regular;
paths = (
{
closed = 1;
nodes = (
"483 254 LINE",
"483 -32 LINE",
"31 -32 LINE",
"31 254 LINE",
"109 254 LINE",
"109 325 LINE SMOOTH",
"110 368 OFFCURVE",
"125 405 OFFCURVE",
"154 435 CURVE",
"168 448 OFFCURVE",
"184 459 OFFCURVE",
"203 468 CURVE",
"222 476 OFFCURVE",
"242 480 OFFCURVE",
"264 480 CURVE SMOOTH",
"306 479 OFFCURVE",
"342 464 OFFCURVE",
"372 435 CURVE SMOOTH",
"401 405 OFFCURVE",
"417 369 OFFCURVE",
"418 328 CURVE",
"327 328 LINE",
"326 344 OFFCURVE",
"320 358 OFFCURVE",
"308 370 CURVE",
"295 382 OFFCURVE",
"281 388 OFFCURVE",
"264 389 CURVE",
"246 388 OFFCURVE",
"231 382 OFFCURVE",
"219 370 CURVE SMOOTH",
"206 357 OFFCURVE",
"200 342 OFFCURVE",
"200 325 CURVE SMOOTH",
"200 254 LINE"
);
}
);
width = 512;
}
);
},
{
glyphname = uniE017;
lastChange = "2013-02-02 00:18:52 +0100";
layers = (
{
layerId = "457A0151-1F15-493B-A022-4CDC4EBB0E42";
name = Regular;
paths = (
{
closed = 1;
nodes = (
"388 455 OFFCURVE",
"328 480 OFFCURVE",
"257 480 CURVE SMOOTH",
"186 480 OFFCURVE",
"126 455 OFFCURVE",
"76 405 CURVE SMOOTH",
"26 355 OFFCURVE",
"1 295 OFFCURVE",
"1 224 CURVE SMOOTH",
"1 153 OFFCURVE",
"26 93 OFFCURVE",
"76 43 CURVE SMOOTH",
"126 -7 OFFCURVE",
"186 -32 OFFCURVE",
"257 -32 CURVE SMOOTH",
"328 -32 OFFCURVE",
"388 -7 OFFCURVE",
"438 43 CURVE SMOOTH",
"488 93 OFFCURVE",
"513 153 OFFCURVE",
"513 224 CURVE SMOOTH",
"513 295 OFFCURVE",
"488 355 OFFCURVE",
"438 405 CURVE SMOOTH"
);
},
{
closed = 1;
nodes = (
"143 424 OFFCURVE",
"196 446 OFFCURVE",
"257 446 CURVE SMOOTH",
"318 446 OFFCURVE",
"371 424 OFFCURVE",
"414 381 CURVE SMOOTH",
"457 338 OFFCURVE",
"479 285 OFFCURVE",
"479 224 CURVE SMOOTH",
"479 163 OFFCURVE",
"457 110 OFFCURVE",
"414 67 CURVE SMOOTH",
"371 24 OFFCURVE",
"318 2 OFFCURVE",
"257 2 CURVE SMOOTH",
"196 2 OFFCURVE",
"143 24 OFFCURVE",
"100 67 CURVE SMOOTH",
"57 110 OFFCURVE",
"35 163 OFFCURVE",
"35 224 CURVE SMOOTH",
"35 285 OFFCURVE",
"57 338 OFFCURVE",
"100 381 CURVE SMOOTH"
);
},
{
closed = 1;
nodes = (
"402 242 OFFCURVE",
"403 234 OFFCURVE",
"396 225 CURVE",
"389 217 OFFCURVE",
"381 216 OFFCURVE",
"372 223 CURVE",
"365 229 OFFCURVE",
"355 238 OFFCURVE",
"340 251 CURVE",
"325 263 OFFCURVE",
"314 273 OFFCURVE",
"307 280 CURVE",
"307 279 OFFCURVE",
"307 279 OFFCURVE",
"306 280 CURVE SMOOTH",
"305 281 OFFCURVE",
"303 281 OFFCURVE",
"302 282 CURVE SMOOTH",
"301 283 OFFCURVE",
"300 283 OFFCURVE",
"299 283 CURVE SMOOTH",
"297 283 OFFCURVE",
"296 281 OFFCURVE",
"296 276 CURVE SMOOTH",
"296 271 OFFCURVE",
"296 262 OFFCURVE",
"296 247 CURVE SMOOTH",
"296 232 OFFCURVE",
"297 220 OFFCURVE",
"298 212 CURVE SMOOTH",
"299 205 OFFCURVE",
"299 200 OFFCURVE",
"299 199 CURVE",
"324 60 LINE",
"325 46 OFFCURVE",
"320 38 OFFCURVE",
"307 35 CURVE",
"301 34 OFFCURVE",
"296 35 OFFCURVE",
"291 39 CURVE",
"286 42 OFFCURVE",
"283 47 OFFCURVE",
"282 52 CURVE SMOOTH",
"269 127 OFFCURVE",
"262 166 OFFCURVE",
"262 167 CURVE",
"260 175 OFFCURVE",
"258 179 OFFCURVE",
"257 179 CURVE",
"256 178 OFFCURVE",
"255 178 OFFCURVE",
"254 177 CURVE SMOOTH",
"253 176 OFFCURVE",
"253 174 OFFCURVE",
"253 173 CURVE SMOOTH",
"253 172 OFFCURVE",
"253 170 OFFCURVE",
"253 169 CURVE",
"252 168 OFFCURVE",
"252 167 OFFCURVE",
"252 167 CURVE",
"252 166 OFFCURVE",
"250 156 OFFCURVE",
"247 137 CURVE SMOOTH",
"244 118 OFFCURVE",
"240 99 OFFCURVE",
"237 80 CURVE SMOOTH",
"234 61 OFFCURVE",
"232 52 OFFCURVE",
"232 52 CURVE",
"230 46 OFFCURVE",
"227 42 OFFCURVE",
"223 39 CURVE",
"218 36 OFFCURVE",
"213 34 OFFCURVE",
"207 35 CURVE",
"194 38 OFFCURVE",
"188 47 OFFCURVE",
"190 60 CURVE SMOOTH",
"215 200 LINE SMOOTH",
"217 213 OFFCURVE",
"218 238 OFFCURVE",
"218 275 CURVE SMOOTH",
"218 280 OFFCURVE",
"217 283 OFFCURVE",
"215 283 CURVE SMOOTH",
"213 283 OFFCURVE",
"210 282 OFFCURVE",
"207 279 CURVE",
"142 223 LINE",
"133 216 OFFCURVE",
"125 217 OFFCURVE",
"118 225 CURVE",
"111 234 OFFCURVE",
"112 242 OFFCURVE",
"119 249 CURVE",
"205 324 LINE",
"209 327 OFFCURVE",
"213 329 OFFCURVE",
"216 330 CURVE SMOOTH",
"219 331 OFFCURVE",
"224 331 OFFCURVE",
"229 331 CURVE SMOOTH",
"285 331 LINE SMOOTH",
"290 331 OFFCURVE",
"295 331 OFFCURVE",
"298 330 CURVE SMOOTH",
"301 329 OFFCURVE",
"305 327 OFFCURVE",
"309 324 CURVE",
"312 321 OFFCURVE",
"325 311 OFFCURVE",
"346 292 CURVE SMOOTH",
"367 273 OFFCURVE",
"383 259 OFFCURVE",
"395 249 CURVE"
);
},
{
closed = 1;
nodes = (
"291 398 OFFCURVE",
"295 389 OFFCURVE",
"295 379 CURVE SMOOTH",
"295 368 OFFCURVE",
"291 359 OFFCURVE",
"284 352 CURVE SMOOTH",
"277 345 OFFCURVE",
"268 341 OFFCURVE",
"258 341 CURVE SMOOTH",
"247 341 OFFCURVE",
"238 345 OFFCURVE",
"231 352 CURVE SMOOTH",
"224 359 OFFCURVE",
"220 368 OFFCURVE",
"220 379 CURVE SMOOTH",
"220 389 OFFCURVE",
"224 398 OFFCURVE",
"231 405 CURVE SMOOTH",
"238 412 OFFCURVE",
"247 416 OFFCURVE",
"258 416 CURVE SMOOTH",
"268 416 OFFCURVE",
"277 412 OFFCURVE",
"284 405 CURVE SMOOTH"
);
}
);
width = 512;
}
);
},
{
glyphname = uniE018;
lastChange = "2013-02-02 00:18:52 +0100";
layers = (
{
layerId = "457A0151-1F15-493B-A022-4CDC4EBB0E42";
name = Regular;
paths = (
{
closed = 1;
nodes = (
"510 380 OFFCURVE",
"503 371 OFFCURVE",
"494 360 CURVE SMOOTH",
"485 349 OFFCURVE",
"473 339 OFFCURVE",
"459 331 CURVE",
"460 328 OFFCURVE",
"460 325 OFFCURVE",
"460 322 CURVE SMOOTH",
"461 285 OFFCURVE",
"454 245 OFFCURVE",
"438 203 CURVE SMOOTH",
"411 134 OFFCURVE",
"369 83 OFFCURVE",
"314 48 CURVE",
"259 17 OFFCURVE",
"194 6 OFFCURVE",
"118 13 CURVE SMOOTH",
"70 18 OFFCURVE",
"31 33 OFFCURVE",
"1 58 CURVE",
"56 51 OFFCURVE",
"108 66 OFFCURVE",
"157 103 CURVE",
"134 102 OFFCURVE",
"114 109 OFFCURVE",
"97 123 CURVE SMOOTH",
"80 137 OFFCURVE",
"67 155 OFFCURVE",
"58 177 CURVE",
"64 176 OFFCURVE",
"71 175 OFFCURVE",
"80 176 CURVE SMOOTH",
"91 177 OFFCURVE",
"100 178 OFFCURVE",
"105 179 CURVE",
"71 190 OFFCURVE",
"47 209 OFFCURVE",
"34 234 CURVE",
"26 251 OFFCURVE",
"22 269 OFFCURVE",
"22 287 CURVE",
"41 277 OFFCURVE",
"57 272 OFFCURVE",
"69 273 CURVE",
"42 296 OFFCURVE",
"26 321 OFFCURVE",
"23 348 CURVE SMOOTH",
"21 369 OFFCURVE",
"25 392 OFFCURVE",
"36 417 CURVE",
"75 374 OFFCURVE",
"115 344 OFFCURVE",
"158 325 CURVE SMOOTH",
"190 312 OFFCURVE",
"222 305 OFFCURVE",
"253 305 CURVE",
"249 337 OFFCURVE",
"253 364 OFFCURVE",
"266 386 CURVE SMOOTH",
"281 410 OFFCURVE",
"303 426 OFFCURVE",
"332 434 CURVE SMOOTH",
"351 439 OFFCURVE",
"369 438 OFFCURVE",
"386 433 CURVE",
"403 427 OFFCURVE",
"418 417 OFFCURVE",
"430 404 CURVE",
"451 406 OFFCURVE",
"473 414 OFFCURVE",
"498 429 CURVE",
"488 400 OFFCURVE",
"472 380 OFFCURVE",
"451 369 CURVE",
"472 372 OFFCURVE",
"493 378 OFFCURVE",
"513 387 CURVE"
);
}
);
width = 512;
}
);
},
{
glyphname = uniE019;
lastChange = "2013-02-02 00:18:52 +0100";
layers = (
{
layerId = "457A0151-1F15-493B-A022-4CDC4EBB0E42";
name = Regular;
paths = (
{
closed = 1;
nodes = (
"513 480 LINE",
"513 -32 LINE",
"1 -32 LINE",
"1 480 LINE"
);
},
{
closed = 1;
nodes = (
"288 110 OFFCURVE",
"280 113 OFFCURVE",
"275 117 CURVE",
"272 120 OFFCURVE",
"271 122 OFFCURVE",
"271 123 CURVE SMOOTH",
"271 254 LINE",
"354 254 LINE",
"354 312 LINE",
"271 312 LINE",
"271 398 LINE",
"223 398 LINE",
"222 374 OFFCURVE",
"215 354 OFFCURVE",
"202 337 CURVE SMOOTH",
"189 320 OFFCURVE",
"172 312 OFFCURVE",
"150 312 CURVE",
"150 254 LINE",
"189 254 LINE",
"189 113 LINE",
"190 89 OFFCURVE",
"199 72 OFFCURVE",
"218 61 CURVE",
"232 54 OFFCURVE",
"250 50 OFFCURVE",
"271 50 CURVE SMOOTH",
"300 50 OFFCURVE",
"317 50 OFFCURVE",
"323 51 CURVE",
"338 51 OFFCURVE",
"352 54 OFFCURVE",
"364 61 CURVE",
"364 122 LINE",
"364 122 LINE",
"357 117 OFFCURVE",
"349 113 OFFCURVE",
"340 110 CURVE SMOOTH",
"325 105 OFFCURVE",
"312 104 OFFCURVE",
"299 107 CURVE"
);
}
);
width = 512;
}
);
},
{
glyphname = uniE01A;
lastChange = "2013-02-02 00:18:52 +0100";
layers = (
{
layerId = "457A0151-1F15-493B-A022-4CDC4EBB0E42";
name = Regular;
paths = (
{
closed = 1;
nodes = (
"387 455 OFFCURVE",
"327 480 OFFCURVE",
"256 480 CURVE SMOOTH",
"185 480 OFFCURVE",
"125 455 OFFCURVE",
"75 405 CURVE SMOOTH",
"25 355 OFFCURVE",
"0 295 OFFCURVE",
"0 224 CURVE SMOOTH",
"0 153 OFFCURVE",
"25 93 OFFCURVE",
"75 43 CURVE SMOOTH",
"125 -7 OFFCURVE",
"185 -32 OFFCURVE",
"256 -32 CURVE SMOOTH",
"327 -32 OFFCURVE",
"387 -7 OFFCURVE",
"437 43 CURVE SMOOTH",
"487 93 OFFCURVE",
"512 153 OFFCURVE",
"512 224 CURVE SMOOTH",
"512 295 OFFCURVE",
"487 355 OFFCURVE",
"437 405 CURVE SMOOTH"
);
},
{
closed = 1;
nodes = (
"216 384 LINE",
"296 384 LINE",
"296 360 LINE",
"388 360 LINE",
"388 315 LINE",
"124 315 LINE",
"124 360 LINE",
"216 360 LINE"
);
},
{
closed = 1;
nodes = (
"138 280 LINE",
"374 280 LINE",
"374 64 LINE",
"138 64 LINE"
);
}
);
width = 512;
}
);
},
{
glyphname = uniE01B;
lastChange = "2013-02-02 00:18:52 +0100";
layers = (
{
layerId = "457A0151-1F15-493B-A022-4CDC4EBB0E42";
name = Regular;
paths = (
{
closed = 1;
nodes = (
"194 480 LINE",
"194 441 LINE",
"46 441 LINE",
"46 369 LINE",
"468 369 LINE",
"468 441 LINE",
"320 441 LINE",
"320 480 LINE"
);
},
{
closed = 1;
nodes = (
"68 314 LINE",
"68 -32 LINE",
"446 -32 LINE",
"446 314 LINE"
);
}
);
width = 512;
}
);
},
{
glyphname = uniE01C;
lastChange = "2013-02-02 00:18:52 +0100";
layers = (
{
layerId = "457A0151-1F15-493B-A022-4CDC4EBB0E42";
name = Regular;
paths = (
{
closed = 1;
nodes = (
"483 151 LINE",
"483 -32 LINE",
"31 -32 LINE",
"31 151 LINE",
"204 225 LINE",
"183 238 OFFCURVE",
"168 255 OFFCURVE",
"157 277 CURVE SMOOTH",
"146 298 OFFCURVE",
"141 321 OFFCURVE",
"141 345 CURVE SMOOTH",
"141 380 OFFCURVE",
"152 412 OFFCURVE",
"174 439 CURVE SMOOTH",
"196 466 OFFCURVE",
"224 480 OFFCURVE",
"257 480 CURVE SMOOTH",
"292 479 OFFCURVE",
"320 465 OFFCURVE",
"341 438 CURVE SMOOTH",
"362 411 OFFCURVE",
"373 380 OFFCURVE",
"373 345 CURVE",
"372 320 OFFCURVE",
"367 296 OFFCURVE",
"356 275 CURVE SMOOTH",
"345 254 OFFCURVE",
"331 237 OFFCURVE",
"312 225 CURVE"
);
}
);
width = 512;
}
);
},
{
glyphname = uniE01D;
lastChange = "2013-02-02 00:18:52 +0100";
layers = (
{
layerId = "457A0151-1F15-493B-A022-4CDC4EBB0E42";
name = Regular;
paths = (
{
closed = 1;
nodes = (
"76 185 OFFCURVE",
"85 217 OFFCURVE",
"104 246 CURVE SMOOTH",
"110 255 OFFCURVE",
"120 269 OFFCURVE",
"133 288 CURVE SMOOTH",
"146 306 OFFCURVE",
"155 319 OFFCURVE",
"161 328 CURVE SMOOTH",
"192 375 OFFCURVE",
"213 419 OFFCURVE",
"226 459 CURVE SMOOTH",
"231 474 OFFCURVE",
"241 481 OFFCURVE",
"256 480 CURVE",
"272 481 OFFCURVE",
"282 474 OFFCURVE",
"286 459 CURVE",
"299 418 OFFCURVE",
"321 375 OFFCURVE",
"352 328 CURVE",
"358 318 OFFCURVE",
"367 304 OFFCURVE",
"380 287 CURVE SMOOTH",
"393 270 OFFCURVE",
"402 256 OFFCURVE",
"408 246 CURVE SMOOTH",
"427 216 OFFCURVE",
"437 184 OFFCURVE",
"437 149 CURVE SMOOTH",
"436 98 OFFCURVE",
"418 56 OFFCURVE",
"384 21 CURVE SMOOTH",
"348 -14 OFFCURVE",
"305 -31 OFFCURVE",
"256 -32 CURVE",
"205 -31 OFFCURVE",
"163 -13 OFFCURVE",
"128 21 CURVE",
"93 58 OFFCURVE",
"76 100 OFFCURVE",
"75 149 CURVE"
);
},
{
closed = 1;
nodes = (
"155 96 OFFCURVE",
"160 86 OFFCURVE",
"169 77 CURVE SMOOTH",
"178 68 OFFCURVE",
"188 64 OFFCURVE",
"200 64 CURVE",
"213 65 OFFCURVE",
"223 69 OFFCURVE",
"232 78 CURVE SMOOTH",
"241 87 OFFCURVE",
"245 97 OFFCURVE",
"245 109 CURVE SMOOTH",
"245 118 OFFCURVE",
"243 126 OFFCURVE",
"238 133 CURVE SMOOTH",
"232 141 OFFCURVE",
"227 148 OFFCURVE",
"223 154 CURVE SMOOTH",
"214 168 OFFCURVE",
"209 179 OFFCURVE",
"207 186 CURVE",
"206 191 OFFCURVE",
"204 193 OFFCURVE",
"200 192 CURVE",
"196 193 OFFCURVE",
"193 191 OFFCURVE",
"192 186 CURVE",
"189 177 OFFCURVE",
"184 166 OFFCURVE",
"176 154 CURVE",
"175 151 OFFCURVE",
"172 147 OFFCURVE",
"169 143 CURVE SMOOTH",
"165 138 OFFCURVE",
"163 135 OFFCURVE",
"162 133 CURVE",
"157 126 OFFCURVE",
"154 118 OFFCURVE",
"154 109 CURVE"
);
}
);
width = 512;
}
);
},
{
glyphname = uniE01E;
lastChange = "2013-02-02 00:18:52 +0100";
layers = (
{
layerId = "457A0151-1F15-493B-A022-4CDC4EBB0E42";
name = Regular;
paths = (
{
closed = 1;
nodes = (
"513 295 OFFCURVE",
"488 355 OFFCURVE",
"438 405 CURVE SMOOTH",
"388 455 OFFCURVE",
"328 480 OFFCURVE",
"257 480 CURVE SMOOTH",
"186 480 OFFCURVE",
"126 455 OFFCURVE",
"76 405 CURVE SMOOTH",
"26 355 OFFCURVE",
"1 295 OFFCURVE",
"1 224 CURVE SMOOTH",
"1 153 OFFCURVE",
"26 93 OFFCURVE",
"76 43 CURVE SMOOTH",
"126 -7 OFFCURVE",
"186 -32 OFFCURVE",
"257 -32 CURVE SMOOTH",
"328 -32 OFFCURVE",
"388 -7 OFFCURVE",
"438 43 CURVE SMOOTH",
"488 93 OFFCURVE",
"513 153 OFFCURVE",
"513 224 CURVE SMOOTH"
);
},
{
closed = 1;
nodes = (
"386 368 LINE",
"432 322 LINE",
"259 149 LINE",
"259 149 LINE",
"138 270 LINE",
"143 275 LINE",
"179 311 LINE",
"184 316 LINE",
"259 241 LINE"
);
}
);
width = 512;
}
);
},
{
glyphname = uniE01F;
lastChange = "2013-02-02 00:18:52 +0100";
layers = (
{
layerId = "457A0151-1F15-493B-A022-4CDC4EBB0E42";
name = Regular;
paths = (
{
closed = 1;
nodes = (
"388 455 OFFCURVE",
"328 480 OFFCURVE",
"257 480 CURVE SMOOTH",
"186 480 OFFCURVE",
"126 455 OFFCURVE",
"76 405 CURVE SMOOTH",
"26 355 OFFCURVE",
"1 295 OFFCURVE",
"1 224 CURVE SMOOTH",
"1 153 OFFCURVE",
"26 93 OFFCURVE",
"76 43 CURVE SMOOTH",
"126 -7 OFFCURVE",
"186 -32 OFFCURVE",
"257 -32 CURVE SMOOTH",
"328 -32 OFFCURVE",
"388 -7 OFFCURVE",
"438 43 CURVE SMOOTH",
"488 93 OFFCURVE",
"513 153 OFFCURVE",
"513 224 CURVE SMOOTH",
"513 295 OFFCURVE",
"488 355 OFFCURVE",
"438 405 CURVE SMOOTH"
);
},
{
closed = 1;
nodes = (
"161 395 OFFCURVE",
"205 413 OFFCURVE",
"257 413 CURVE SMOOTH",
"309 413 OFFCURVE",
"354 395 OFFCURVE",
"391 358 CURVE SMOOTH",
"428 321 OFFCURVE",
"446 276 OFFCURVE",
"446 224 CURVE SMOOTH",
"446 172 OFFCURVE",
"428 128 OFFCURVE",
"391 91 CURVE SMOOTH",
"354 54 OFFCURVE",
"309 35 OFFCURVE",
"257 35 CURVE SMOOTH",
"205 35 OFFCURVE",
"161 54 OFFCURVE",
"124 91 CURVE SMOOTH",
"87 128 OFFCURVE",
"68 172 OFFCURVE",
"68 224 CURVE SMOOTH",
"68 276 OFFCURVE",
"87 321 OFFCURVE",
"124 358 CURVE SMOOTH"
);
},
{
closed = 1;
nodes = (
"231 370 LINE",
"231 251 LINE",
"165 251 LINE",
"165 185 LINE",
"231 185 LINE",
"296 185 LINE",
"296 251 LINE",
"296 370 LINE"
);
}
);
width = 512;
}
);
},
{
glyphname = uniE020;
lastChange = "2013-02-02 00:18:52 +0100";
layers = (
{
layerId = "457A0151-1F15-493B-A022-4CDC4EBB0E42";
name = Regular;
paths = (
{
closed = 1;
nodes = (
"320 441 OFFCURVE",
"335 430 OFFCURVE",
"354 409 CURVE SMOOTH",
"361 401 OFFCURVE",
"365 392 OFFCURVE",
"368 382 CURVE",
"370 371 OFFCURVE",
"371 363 OFFCURVE",
"371 357 CURVE",
"370 351 OFFCURVE",
"369 340 OFFCURVE",
"366 325 CURVE SMOOTH",
"363 309 OFFCURVE",
"362 299 OFFCURVE",
"361 295 CURVE",
"488 295 LINE SMOOTH",
"497 295 OFFCURVE",
"503 292 OFFCURVE",
"508 287 CURVE",
"512 281 OFFCURVE",
"514 274 OFFCURVE",
"513 265 CURVE",
"477 44 LINE",
"473 30 OFFCURVE",
"464 18 OFFCURVE",
"450 7 CURVE SMOOTH",
"436 -4 OFFCURVE",
"421 -11 OFFCURVE",
"405 -13 CURVE",
"169 -13 LINE SMOOTH",
"162 -13 OFFCURVE",
"157 -11 OFFCURVE",
"152 -6 CURVE SMOOTH",
"147 -1 OFFCURVE",
"144 5 OFFCURVE",
"144 13 CURVE SMOOTH",
"144 270 LINE SMOOTH",
"144 277 OFFCURVE",
"146 283 OFFCURVE",
"151 288 CURVE SMOOTH",
"156 293 OFFCURVE",
"162 295 OFFCURVE",
"169 295 CURVE SMOOTH",
"228 295 LINE",
"286 425 LINE SMOOTH",
"291 436 OFFCURVE",
"298 441 OFFCURVE",
"307 441 CURVE SMOOTH"
);
},
{
closed = 1;
nodes = (
"94 301 LINE",
"105 300 OFFCURVE",
"111 294 OFFCURVE",
"112 283 CURVE",
"112 -1 LINE SMOOTH",
"112 -6 OFFCURVE",
"110 -10 OFFCURVE",
"107 -13 CURVE",
"104 -17 OFFCURVE",
"99 -19 OFFCURVE",
"94 -19 CURVE SMOOTH",
"19 -19 LINE SMOOTH",
"14 -19 OFFCURVE",
"10 -17 OFFCURVE",
"7 -14 CURVE SMOOTH",
"4 -11 OFFCURVE",
"2 -6 OFFCURVE",
"1 -1 CURVE",
"1 283 LINE SMOOTH",
"1 288 OFFCURVE",
"3 292 OFFCURVE",
"6 295 CURVE SMOOTH",
"9 298 OFFCURVE",
"14 300 OFFCURVE",
"19 301 CURVE"
);
}
);
width = 512;
}
);
},
{
glyphname = uniE021;
lastChange = "2013-02-02 00:18:52 +0100";
layers = (
{
layerId = "457A0151-1F15-493B-A022-4CDC4EBB0E42";
name = Regular;
paths = (
{
closed = 1;
nodes = (
"361 140 LINE",
"363 120 OFFCURVE",
"366 100 OFFCURVE",
"371 79 CURVE",
"374 48 OFFCURVE",
"358 21 OFFCURVE",
"323 -2 CURVE",
"316 -6 OFFCURVE",
"309 -7 OFFCURVE",
"301 -5 CURVE",
"294 -2 OFFCURVE",
"289 3 OFFCURVE",
"286 10 CURVE SMOOTH",
"228 140 LINE",
"169 140 LINE",
"162 141 OFFCURVE",
"156 143 OFFCURVE",
"151 148 CURVE SMOOTH",
"146 153 OFFCURVE",
"144 158 OFFCURVE",
"144 165 CURVE SMOOTH",
"144 422 LINE SMOOTH",
"144 430 OFFCURVE",
"146 436 OFFCURVE",
"151 441 CURVE SMOOTH",
"156 446 OFFCURVE",
"162 448 OFFCURVE",
"169 448 CURVE SMOOTH",
"405 448 LINE",
"417 447 OFFCURVE",
"429 443 OFFCURVE",
"441 436 CURVE SMOOTH",
"459 425 OFFCURVE",
"471 411 OFFCURVE",
"477 392 CURVE",
"513 170 LINE",
"514 162 OFFCURVE",
"512 155 OFFCURVE",
"507 149 CURVE SMOOTH",
"502 143 OFFCURVE",
"495 140 OFFCURVE",
"488 140 CURVE SMOOTH"
);
},
{
closed = 1;
nodes = (
"19 135 LINE SMOOTH",
"14 135 OFFCURVE",
"10 137 OFFCURVE",
"7 140 CURVE",
"3 143 OFFCURVE",
"1 148 OFFCURVE",
"1 153 CURVE SMOOTH",
"1 436 LINE",
"2 448 OFFCURVE",
"8 454 OFFCURVE",
"19 454 CURVE SMOOTH",
"94 454 LINE",
"106 453 OFFCURVE",
"112 447 OFFCURVE",
"112 436 CURVE SMOOTH",
"112 153 LINE SMOOTH",
"112 148 OFFCURVE",
"110 143 OFFCURVE",
"107 140 CURVE",
"103 137 OFFCURVE",
"99 135 OFFCURVE",
"94 135 CURVE SMOOTH"
);
}
);
width = 512;
}
);
},
{
glyphname = uniE022;
lastChange = "2013-02-02 00:18:52 +0100";
layers = (
{
layerId = "457A0151-1F15-493B-A022-4CDC4EBB0E42";
name = Regular;
paths = (
{
closed = 1;
nodes = (
"0 480 LINE",
"0 352 LINE",
"128 352 LINE",
"128 480 LINE"
);
},
{
closed = 1;
nodes = (
"200 480 LINE",
"200 352 LINE",
"512 352 LINE",
"512 480 LINE"
);
},
{
closed = 1;
nodes = (
"0 288 LINE",
"0 160 LINE",
"128 160 LINE",
"128 288 LINE"
);
},
{
closed = 1;
nodes = (
"200 288 LINE",
"200 160 LINE",
"512 160 LINE",
"512 288 LINE"
);
},
{
closed = 1;
nodes = (
"0 96 LINE",
"0 -32 LINE",
"128 -32 LINE",
"128 96 LINE"
);
},
{
closed = 1;
nodes = (
"200 96 LINE",
"200 -32 LINE",
"512 -32 LINE",
"512 96 LINE"
);
}
);
width = 512;
}
);
},
{
glyphname = uniE023;
lastChange = "2013-02-02 00:18:52 +0100";
layers = (
{
layerId = "457A0151-1F15-493B-A022-4CDC4EBB0E42";
name = Regular;
paths = (
{
closed = 1;
nodes = (
"0 480 LINE",
"0 256 LINE",
"224 256 LINE",
"224 480 LINE"
);
},
{
closed = 1;
nodes = (
"288 480 LINE",
"288 256 LINE",
"512 256 LINE",
"512 480 LINE"
);
},
{
closed = 1;
nodes = (
"0 192 LINE",
"0 -32 LINE",
"224 -32 LINE",
"224 192 LINE"
);
},
{
closed = 1;
nodes = (
"288 192 LINE",
"288 -32 LINE",
"512 -32 LINE",
"512 192 LINE"
);
}
);
width = 512;
}
);
},
{
glyphname = uniE024;
lastChange = "2013-02-02 00:18:52 +0100";
layers = (
{
layerId = "457A0151-1F15-493B-A022-4CDC4EBB0E42";
name = Regular;
paths = (
{
closed = 1;
nodes = (
"0 480 LINE",
"0 352 LINE",
"128 352 LINE",
"128 480 LINE"
);
},
{
closed = 1;
nodes = (
"192 480 LINE",
"192 352 LINE",
"320 352 LINE",
"320 480 LINE"
);
},
{
closed = 1;
nodes = (
"384 480 LINE",
"384 352 LINE",
"512 352 LINE",
"512 480 LINE"
);
},
{
closed = 1;
nodes = (
"0 288 LINE",
"0 160 LINE",
"128 160 LINE",
"128 288 LINE"
);
},
{
closed = 1;
nodes = (
"192 288 LINE",
"192 160 LINE",
"320 160 LINE",
"320 288 LINE"
);
},
{
closed = 1;
nodes = (
"384 288 LINE",
"384 160 LINE",
"512 160 LINE",
"512 288 LINE"
);
},
{
closed = 1;
nodes = (
"0 96 LINE",
"0 -32 LINE",
"128 -32 LINE",
"128 96 LINE"
);
},
{
closed = 1;
nodes = (
"192 96 LINE",
"192 -32 LINE",
"320 -32 LINE",
"320 96 LINE"
);
},
{
closed = 1;
nodes = (
"384 96 LINE",
"384 -32 LINE",
"512 -32 LINE",
"512 96 LINE"
);
}
);
width = 512;
}
);
},
{
glyphname = uniE025;
lastChange = "2013-02-02 00:18:52 +0100";
layers = (
{
layerId = "457A0151-1F15-493B-A022-4CDC4EBB0E42";
name = Regular;
paths = (
{
closed = 1;
nodes = (
"110 480 LINE",
"108 389 LINE",
"139 389 LINE",
"139 420 OFFCURVE",
"142 439 OFFCURVE",
"149 444 CURVE SMOOTH",
"156 449 OFFCURVE",
"179 451 OFFCURVE",
"219 451 CURVE",
"219 201 LINE SMOOTH",
"219 185 OFFCURVE",
"217 176 OFFCURVE",
"214 174 CURVE",
"210 171 OFFCURVE",
"197 170 OFFCURVE",
"175 170 CURVE",
"175 145 LINE",
"337 145 LINE",
"337 170 LINE",
"315 170 OFFCURVE",
"302 171 OFFCURVE",
"299 174 CURVE",
"295 177 OFFCURVE",
"293 186 OFFCURVE",
"293 201 CURVE SMOOTH",
"293 451 LINE",
"333 451 OFFCURVE",
"356 449 OFFCURVE",
"363 444 CURVE SMOOTH",
"370 439 OFFCURVE",
"373 420 OFFCURVE",
"373 389 CURVE",
"404 389 LINE",
"402 480 LINE"
);
},
{
closed = 1;
nodes = (
"89 146 LINE",
"0 57 LINE",
"89 -32 LINE",
"89 27 LINE",
"423 27 LINE",
"423 -32 LINE",
"512 57 LINE",
"423 146 LINE",
"423 86 LINE",
"89 86 LINE"
);
}
);
width = 512;
}
);
},
{
glyphname = uniE026;
lastChange = "2013-02-02 00:18:52 +0100";
layers = (
{
layerId = "457A0151-1F15-493B-A022-4CDC4EBB0E42";
name = Regular;
paths = (
{
closed = 1;
nodes = (
"423 480 LINE",
"334 391 LINE",
"394 391 LINE",
"394 57 LINE",
"334 57 LINE",
"423 -32 LINE",
"512 57 LINE",
"453 57 LINE",
"453 391 LINE",
"512 391 LINE"
);
},
{
closed = 1;
nodes = (
"3 391 LINE",
"0 300 LINE",
"32 300 LINE",
"32 331 OFFCURVE",
"35 350 OFFCURVE",
"42 355 CURVE",
"48 360 OFFCURVE",
"71 363 OFFCURVE",
"111 363 CURVE",
"111 112 LINE SMOOTH",
"111 97 OFFCURVE",
"109 88 OFFCURVE",
"106 85 CURVE",
"102 82 OFFCURVE",
"89 81 OFFCURVE",
"68 82 CURVE",
"68 57 LINE",
"229 57 LINE",
"229 82 LINE",
"208 82 OFFCURVE",
"195 83 OFFCURVE",
"192 86 CURVE",
"188 88 OFFCURVE",
"186 97 OFFCURVE",
"186 112 CURVE SMOOTH",
"186 363 LINE",
"226 363 OFFCURVE",
"249 360 OFFCURVE",
"256 355 CURVE SMOOTH",
"263 350 OFFCURVE",
"266 331 OFFCURVE",
"266 300 CURVE",
"297 300 LINE",
"295 391 LINE"
);
}
);
width = 512;
}
);
},
{
glyphname = uniE027;
lastChange = "2013-02-02 00:18:52 +0100";
layers = (
{
layerId = "457A0151-1F15-493B-A022-4CDC4EBB0E42";
name = Regular;
paths = (
{
closed = 1;
nodes = (
"0 413 LINE",
"0 313 LINE",
"512 313 LINE",
"512 413 LINE"
);
},
{
closed = 1;
nodes = (
"321 389 LINE",
"486 389 LINE",
"486 338 LINE",
"321 338 LINE"
);
},
{
closed = 1;
nodes = (
"0 263 LINE",
"0 163 LINE",
"512 163 LINE",
"512 263 LINE"
);
},
{
closed = 1;
nodes = (
"208 239 LINE",
"486 239 LINE",
"486 188 LINE",
"208 188 LINE"
);
},
{
closed = 1;
nodes = (
"0 113 LINE",
"0 13 LINE",
"512 13 LINE",
"512 113 LINE"
);
},
{
closed = 1;
nodes = (
"382 89 LINE",
"486 89 LINE",
"486 38 LINE",
"382 38 LINE"
);
}
);
width = 512;
}
);
},
{
glyphname = uniE028;
lastChange = "2013-02-02 00:18:52 +0100";
layers = (
{
layerId = "457A0151-1F15-493B-A022-4CDC4EBB0E42";
name = Regular;
paths = (
{
closed = 1;
nodes = (
"0 405 LINE",
"1 414 OFFCURVE",
"4 422 OFFCURVE",
"11 428 CURVE",
"17 434 OFFCURVE",
"24 437 OFFCURVE",
"33 438 CURVE",
"157 438 LINE",
"172 437 OFFCURVE",
"187 432 OFFCURVE",
"202 423 CURVE",
"397 210 LINE",
"403 202 OFFCURVE",
"406 194 OFFCURVE",
"406 186 CURVE SMOOTH",
"406 177 OFFCURVE",
"403 170 OFFCURVE",
"397 163 CURVE",
"253 20 LINE",
"246 14 OFFCURVE",
"238 11 OFFCURVE",
"229 11 CURVE",
"220 10 OFFCURVE",
"212 13 OFFCURVE",
"207 20 CURVE",
"23 224 LINE",
"8 243 OFFCURVE",
"0 262 OFFCURVE",
"0 281 CURVE SMOOTH"
);
},
{
closed = 1;
nodes = (
"70 323 OFFCURVE",
"77 320 OFFCURVE",
"86 321 CURVE",
"95 321 OFFCURVE",
"102 324 OFFCURVE",
"108 330 CURVE",
"114 337 OFFCURVE",
"117 344 OFFCURVE",
"117 353 CURVE SMOOTH",
"117 362 OFFCURVE",
"114 369 OFFCURVE",
"108 375 CURVE",
"101 381 OFFCURVE",
"94 384 OFFCURVE",
"85 384 CURVE SMOOTH",
"76 384 OFFCURVE",
"69 381 OFFCURVE",
"63 375 CURVE SMOOTH",
"56 368 OFFCURVE",
"53 360 OFFCURVE",
"54 352 CURVE",
"54 343 OFFCURVE",
"57 336 OFFCURVE",
"63 330 CURVE SMOOTH"
);
},
{
closed = 1;
nodes = (
"264 437 LINE",
"289 436 OFFCURVE",
"307 428 OFFCURVE",
"320 414 CURVE SMOOTH",
"503 209 LINE SMOOTH",
"509 202 OFFCURVE",
"512 194 OFFCURVE",
"512 185 CURVE SMOOTH",
"512 176 OFFCURVE",
"509 168 OFFCURVE",
"503 162 CURVE SMOOTH",
"360 19 LINE",
"339 7 OFFCURVE",
"322 8 OFFCURVE",
"310 23 CURVE",
"450 163 LINE",
"456 170 OFFCURVE",
"459 178 OFFCURVE",
"459 187 CURVE SMOOTH",
"459 196 OFFCURVE",
"456 203 OFFCURVE",
"450 210 CURVE SMOOTH",
"286 393 LINE",
"277 404 OFFCURVE",
"265 414 OFFCURVE",
"249 423 CURVE SMOOTH",
"233 432 OFFCURVE",
"222 436 OFFCURVE",
"216 437 CURVE"
);
}
);
width = 512;
}
);
},
{
glyphname = uniE029;
lastChange = "2013-02-02 00:18:52 +0100";
layers = (
{
layerId = "457A0151-1F15-493B-A022-4CDC4EBB0E42";
name = Regular;
paths = (
{
closed = 1;
nodes = (
"13 440 LINE",
"14 451 OFFCURVE",
"18 461 OFFCURVE",
"26 469 CURVE SMOOTH",
"33 476 OFFCURVE",
"42 480 OFFCURVE",
"53 480 CURVE SMOOTH",
"201 480 LINE",
"231 478 OFFCURVE",
"254 469 OFFCURVE",
"269 452 CURVE SMOOTH",
"488 207 LINE",
"495 198 OFFCURVE",
"499 189 OFFCURVE",
"499 178 CURVE SMOOTH",
"499 167 OFFCURVE",
"495 158 OFFCURVE",
"488 151 CURVE SMOOTH",
"316 -21 LINE",
"308 -28 OFFCURVE",
"299 -32 OFFCURVE",
"288 -32 CURVE SMOOTH",
"277 -32 OFFCURVE",
"267 -28 OFFCURVE",
"260 -21 CURVE",
"41 224 LINE SMOOTH",
"22 246 OFFCURVE",
"13 269 OFFCURVE",
"13 292 CURVE SMOOTH"
);
},
{
closed = 1;
nodes = (
"78 367 OFFCURVE",
"82 358 OFFCURVE",
"89 351 CURVE SMOOTH",
"96 344 OFFCURVE",
"105 340 OFFCURVE",
"115 339 CURVE",
"126 340 OFFCURVE",
"136 344 OFFCURVE",
"143 352 CURVE",
"150 359 OFFCURVE",
"153 368 OFFCURVE",
"154 378 CURVE",
"153 389 OFFCURVE",
"149 398 OFFCURVE",
"142 405 CURVE",
"134 412 OFFCURVE",
"125 415 OFFCURVE",
"115 416 CURVE",
"104 415 OFFCURVE",
"96 411 OFFCURVE",
"89 404 CURVE SMOOTH",
"82 397 OFFCURVE",
"78 388 OFFCURVE",
"77 378 CURVE"
);
}
);
width = 512;
}
);
},
{
glyphname = uniE02A;
lastChange = "2013-02-02 00:18:52 +0100";
layers = (
{
layerId = "457A0151-1F15-493B-A022-4CDC4EBB0E42";
name = Regular;
paths = (
{
closed = 1;
nodes = (
"460 381 LINE",
"488 344 OFFCURVE",
"505 302 OFFCURVE",
"511 256 CURVE SMOOTH",
"517 209 OFFCURVE",
"511 166 OFFCURVE",
"494 125 CURVE",
"472 77 OFFCURVE",
"440 39 OFFCURVE",
"397 11 CURVE SMOOTH",
"354 -17 OFFCURVE",
"308 -31 OFFCURVE",
"257 -32 CURVE",
"209 -31 OFFCURVE",
"165 -18 OFFCURVE",
"124 7 CURVE SMOOTH",
"83 32 OFFCURVE",
"51 66 OFFCURVE",
"29 108 CURVE",
"141 108 LINE SMOOTH",
"166 108 OFFCURVE",
"187 115 OFFCURVE",
"204 129 CURVE SMOOTH",
"221 143 OFFCURVE",
"230 161 OFFCURVE",
"231 182 CURVE",
"231 210 OFFCURVE",
"221 230 OFFCURVE",
"202 241 CURVE SMOOTH",
"193 246 OFFCURVE",
"175 251 OFFCURVE",
"148 256 CURVE",
"148 257 OFFCURVE",
"147 257 OFFCURVE",
"145 258 CURVE",
"142 258 OFFCURVE",
"141 258 OFFCURVE",
"140 258 CURVE SMOOTH",
"139 258 OFFCURVE",
"138 258 OFFCURVE",
"136 259 CURVE SMOOTH",
"134 260 OFFCURVE",
"133 260 OFFCURVE",
"132 261 CURVE",
"131 261 OFFCURVE",
"129 261 OFFCURVE",
"128 262 CURVE",
"126 263 OFFCURVE",
"125 263 OFFCURVE",
"124 264 CURVE SMOOTH",
"123 265 OFFCURVE",
"123 266 OFFCURVE",
"122 267 CURVE SMOOTH",
"121 268 OFFCURVE",
"120 269 OFFCURVE",
"120 270 CURVE",
"119 271 OFFCURVE",
"119 273 OFFCURVE",
"119 274 CURVE",
"120 289 OFFCURVE",
"132 296 OFFCURVE",
"157 297 CURVE",
"234 297 LINE",
"248 296 OFFCURVE",
"259 295 OFFCURVE",
"266 292 CURVE",
"276 287 OFFCURVE",
"281 279 OFFCURVE",
"282 270 CURVE",
"282 192 LINE",
"283 165 OFFCURVE",
"292 144 OFFCURVE",
"309 129 CURVE SMOOTH",
"326 115 OFFCURVE",
"347 108 OFFCURVE",
"371 108 CURVE",
"396 109 OFFCURVE",
"417 116 OFFCURVE",
"433 129 CURVE",
"451 146 OFFCURVE",
"460 167 OFFCURVE",
"460 192 CURVE SMOOTH"
);
},
{
closed = 1;
nodes = (
"309 479 OFFCURVE",
"357 465 OFFCURVE",
"401 436 CURVE",
"401 190 LINE",
"400 181 OFFCURVE",
"397 174 OFFCURVE",
"392 168 CURVE",
"386 162 OFFCURVE",
"379 159 OFFCURVE",
"371 159 CURVE",
"362 160 OFFCURVE",
"354 163 OFFCURVE",
"349 169 CURVE",
"343 175 OFFCURVE",
"340 182 OFFCURVE",
"339 190 CURVE",
"339 264 LINE",
"338 306 OFFCURVE",
"325 332 OFFCURVE",
"298 342 CURVE SMOOTH",
"289 345 OFFCURVE",
"280 347 OFFCURVE",
"271 347 CURVE SMOOTH",
"145 347 LINE",
"121 346 OFFCURVE",
"101 340 OFFCURVE",
"86 327 CURVE",
"70 312 OFFCURVE",
"62 293 OFFCURVE",
"62 272 CURVE SMOOTH",
"62 256 OFFCURVE",
"65 243 OFFCURVE",
"72 233 CURVE SMOOTH",
"83 218 OFFCURVE",
"98 209 OFFCURVE",
"119 205 CURVE",
"123 204 OFFCURVE",
"130 203 OFFCURVE",
"140 202 CURVE SMOOTH",
"149 201 OFFCURVE",
"156 199 OFFCURVE",
"161 198 CURVE",
"170 195 OFFCURVE",
"174 189 OFFCURVE",
"174 180 CURVE",
"173 171 OFFCURVE",
"168 165 OFFCURVE",
"159 162 CURVE",
"152 160 OFFCURVE",
"139 159 OFFCURVE",
"121 159 CURVE SMOOTH",
"9 159 LINE",
"4 182 OFFCURVE",
"1 203 OFFCURVE",
"1 224 CURVE SMOOTH",
"2 295 OFFCURVE",
"28 355 OFFCURVE",
"79 405 CURVE SMOOTH",
"129 454 OFFCURVE",
"188 479 OFFCURVE",
"257 480 CURVE SMOOTH"
);
}
);
width = 512;
}
);
},
{
glyphname = uniE02B;
lastChange = "2013-02-02 00:18:52 +0100";
layers = (
{
layerId = "457A0151-1F15-493B-A022-4CDC4EBB0E42";
name = Regular;
paths = (
{
closed = 1;
nodes = (
"387 455 OFFCURVE",
"327 480 OFFCURVE",
"256 480 CURVE SMOOTH",
"185 480 OFFCURVE",
"125 455 OFFCURVE",
"75 405 CURVE SMOOTH",
"25 355 OFFCURVE",
"0 295 OFFCURVE",
"0 224 CURVE SMOOTH",
"0 153 OFFCURVE",
"25 93 OFFCURVE",
"75 43 CURVE SMOOTH",
"125 -7 OFFCURVE",
"185 -32 OFFCURVE",
"256 -32 CURVE SMOOTH",
"327 -32 OFFCURVE",
"387 -7 OFFCURVE",
"437 43 CURVE SMOOTH",
"487 93 OFFCURVE",
"512 153 OFFCURVE",
"512 224 CURVE SMOOTH",
"512 295 OFFCURVE",
"487 355 OFFCURVE",
"437 405 CURVE SMOOTH"
);
},
{
closed = 1;
nodes = (
"128 352 LINE",
"384 352 LINE",
"384 96 LINE",
"128 96 LINE"
);
}
);
width = 512;
}
);
},
{
glyphname = uniE02C;
lastChange = "2013-02-02 00:18:52 +0100";
layers = (
{
layerId = "457A0151-1F15-493B-A022-4CDC4EBB0E42";
name = Regular;
paths = (
{
closed = 1;
nodes = (
"101 380 LINE",
"413 380 LINE",
"413 68 LINE",
"101 68 LINE"
);
}
);
width = 512;
}
);
},
{
glyphname = uniE02D;
lastChange = "2013-02-02 00:18:52 +0100";
layers = (
{
layerId = "457A0151-1F15-493B-A022-4CDC4EBB0E42";
name = Regular;
paths = (
{
closed = 1;
nodes = (
"329 380 LINE",
"403 380 LINE",
"403 68 LINE",
"329 68 LINE"
);
},
{
closed = 1;
nodes = (
"110 380 LINE",
"110 68 LINE",
"319 224 LINE"
);
}
);
width = 512;
}
);
},
{
glyphname = uniE02E;
lastChange = "2013-02-02 00:18:52 +0100";
layers = (
{
layerId = "457A0151-1F15-493B-A022-4CDC4EBB0E42";
name = Regular;
paths = (
{
closed = 1;
nodes = (
"111 380 LINE",
"184 380 LINE",
"184 68 LINE",
"111 68 LINE"
);
},
{
closed = 1;
nodes = (
"403 380 LINE",
"403 68 LINE",
"195 224 LINE"
);
}
);
width = 512;
}
);
},
{
glyphname = uniE02F;
lastChange = "2013-02-02 00:18:52 +0100";
layers = (
{
layerId = "457A0151-1F15-493B-A022-4CDC4EBB0E42";
name = Regular;
paths = (
{
closed = 1;
nodes = (
"259 469 LINE",
"244 423 LINE",
"195 285 LINE",
"49 286 LINE",
"1 286 LINE",
"40 257 LINE",
"156 168 LINE",
"110 30 LINE",
"95 -16 LINE",
"135 11 LINE",
"254 94 LINE",
"372 8 LINE",
"411 -21 LINE",
"397 26 LINE",
"355 166 LINE",
"474 251 LINE",
"513 279 LINE",
"465 280 LINE",
"319 283 LINE",
"274 422 LINE"
);
},
{
closed = 1;
nodes = (
"258 366 LINE",
"291 263 LINE",
"295 252 LINE",
"306 251 LINE",
"416 249 LINE",
"327 185 LINE",
"318 178 LINE",
"321 167 LINE",
"352 63 LINE",
"264 127 LINE",
"255 134 LINE",
"246 128 LINE",
"156 65 LINE",
"190 169 LINE",
"194 180 LINE",
"184 187 LINE",
"98 253 LINE",
"207 253 LINE",
"218 253 LINE",
"222 264 LINE"
);
}
);
width = 512;
}
);
},
{
glyphname = uniE030;
lastChange = "2013-02-02 00:18:52 +0100";
layers = (
{
layerId = "457A0151-1F15-493B-A022-4CDC4EBB0E42";
name = Regular;
paths = (
{
closed = 1;
nodes = (
"387 455 OFFCURVE",
"327 480 OFFCURVE",
"256 480 CURVE SMOOTH",
"185 480 OFFCURVE",
"125 455 OFFCURVE",
"75 405 CURVE SMOOTH",
"25 355 OFFCURVE",
"0 295 OFFCURVE",
"0 224 CURVE SMOOTH",
"0 153 OFFCURVE",
"25 93 OFFCURVE",
"75 43 CURVE SMOOTH",
"125 -7 OFFCURVE",
"185 -32 OFFCURVE",
"256 -32 CURVE SMOOTH",
"327 -32 OFFCURVE",
"387 -7 OFFCURVE",
"437 43 CURVE SMOOTH",
"487 93 OFFCURVE",
"512 153 OFFCURVE",
"512 224 CURVE SMOOTH",
"512 295 OFFCURVE",
"487 355 OFFCURVE",
"437 405 CURVE SMOOTH"
);
},
{
closed = 1;
nodes = (
"258 390 LINE",
"298 264 LINE",
"430 262 LINE",
"323 184 LINE",
"361 58 LINE",
"254 136 LINE",
"146 60 LINE",
"187 186 LINE",
"82 266 LINE",
"214 266 LINE"
);
}
);
width = 512;
}
);
},
{
glyphname = uniE031;
lastChange = "2013-02-02 00:18:52 +0100";
layers = (
{
layerId = "457A0151-1F15-493B-A022-4CDC4EBB0E42";
name = Regular;
paths = (
{
closed = 1;
nodes = (
"410 -21 LINE",
"253 94 LINE",
"94 -16 LINE",
"155 168 LINE",
"0 286 LINE",
"194 285 LINE",
"258 469 LINE",
"318 283 LINE",
"512 279 LINE",
"354 166 LINE"
);
}
);
width = 512;
}
);
},
{
glyphname = uniE032;
lastChange = "2013-02-02 00:20:47 +0100";
layers = (
{
layerId = "457A0151-1F15-493B-A022-4CDC4EBB0E42";
name = Regular;
paths = (
{
closed = 1;
nodes = (
"121 77 LINE",
"121 36 LINE",
"323 36 LINE",
"323 77 LINE"
);
},
{
closed = 1;
nodes = (
"125 152 LINE",
"122 111 LINE",
"323 97 LINE",
"326 138 LINE"
);
},
{
closed = 1;
nodes = (
"63 170 LINE",
"63 -32 LINE",
"96 -32 LINE",
"360 -32 LINE",
"382 -32 LINE",
"382 170 LINE",
"348 170 LINE",
"348 2 LINE",
"96 2 LINE",
"96 170 LINE"
);
},
{
closed = 1;
nodes = (
"140 241 LINE",
"130 201 LINE",
"326 152 LINE",
"336 193 LINE"
);
},
{
closed = 1;
nodes = (
"183 342 LINE",
"162 306 LINE",
"336 204 LINE",
"357 240 LINE"
);
},
{
closed = 1;
nodes = (
"289 438 LINE",
"255 415 LINE",
"367 248 LINE",
"402 271 LINE"
);
},
{
closed = 1;
nodes = (
"425 480 LINE",
"383 475 LINE",
"408 275 LINE",
"449 280 LINE"
);
}
);
width = 512;
}
);
},
{
glyphname = uniE033;
lastChange = "2013-02-02 00:18:52 +0100";
layers = (
{
layerId = "457A0151-1F15-493B-A022-4CDC4EBB0E42";
name = Regular;
paths = (
{
closed = 1;
nodes = (
"1 316 LINE",
"105 316 LINE",
"262 443 LINE",
"262 5 LINE",
"105 132 LINE",
"1 132 LINE"
);
},
{
closed = 1;
nodes = (
"320 337 LINE",
"351 306 OFFCURVE",
"366 268 OFFCURVE",
"367 224 CURVE SMOOTH",
"367 182 OFFCURVE",
"351 146 OFFCURVE",
"320 116 CURVE",
"289 148 LINE",
"310 170 OFFCURVE",
"321 196 OFFCURVE",
"321 225 CURVE SMOOTH",
"321 256 OFFCURVE",
"310 282 OFFCURVE",
"289 304 CURVE"
);
},
{
closed = 1;
nodes = (
"375 390 LINE",
"420 345 OFFCURVE",
"442 290 OFFCURVE",
"442 226 CURVE SMOOTH",
"442 162 OFFCURVE",
"420 107 OFFCURVE",
"375 62 CURVE",
"341 95 LINE",
"377 130 OFFCURVE",
"395 174 OFFCURVE",
"395 226 CURVE SMOOTH",
"395 277 OFFCURVE",
"377 321 OFFCURVE",
"341 357 CURVE"
);
}
);
width = 512;
}
);
},
{
glyphname = uniE034;
lastChange = "2013-02-02 00:18:52 +0100";
layers = (
{
layerId = "457A0151-1F15-493B-A022-4CDC4EBB0E42";
name = Regular;
paths = (
{
closed = 1;
nodes = (
"387 455 OFFCURVE",
"327 480 OFFCURVE",
"256 480 CURVE SMOOTH",
"185 480 OFFCURVE",
"125 455 OFFCURVE",
"75 405 CURVE SMOOTH",
"25 355 OFFCURVE",
"0 295 OFFCURVE",
"0 224 CURVE SMOOTH",
"0 153 OFFCURVE",
"25 93 OFFCURVE",
"75 43 CURVE SMOOTH",
"125 -7 OFFCURVE",
"185 -32 OFFCURVE",
"256 -32 CURVE SMOOTH",
"327 -32 OFFCURVE",
"387 -7 OFFCURVE",
"437 43 CURVE SMOOTH",
"487 93 OFFCURVE",
"512 153 OFFCURVE",
"512 224 CURVE SMOOTH",
"512 295 OFFCURVE",
"487 355 OFFCURVE",
"437 405 CURVE SMOOTH"
);
},
{
closed = 1;
nodes = (
"122 358 LINE",
"390 358 LINE",
"390 90 LINE",
"122 90 LINE"
);
},
{
closed = 1;
nodes = (
"225 304 OFFCURVE",
"218 307 OFFCURVE",
"210 307 CURVE SMOOTH",
"202 307 OFFCURVE",
"195 304 OFFCURVE",
"190 299 CURVE SMOOTH",
"184 293 OFFCURVE",
"181 286 OFFCURVE",
"181 278 CURVE SMOOTH",
"181 270 OFFCURVE",
"184 263 OFFCURVE",
"190 258 CURVE",
"195 252 OFFCURVE",
"202 249 OFFCURVE",
"210 249 CURVE SMOOTH",
"218 249 OFFCURVE",
"225 252 OFFCURVE",
"231 258 CURVE SMOOTH",
"236 263 OFFCURVE",
"239 270 OFFCURVE",
"239 278 CURVE SMOOTH",
"239 286 OFFCURVE",
"236 293 OFFCURVE",
"231 299 CURVE"
);
},
{
closed = 1;
nodes = (
"315 304 OFFCURVE",
"308 307 OFFCURVE",
"300 307 CURVE SMOOTH",
"292 307 OFFCURVE",
"285 304 OFFCURVE",
"280 299 CURVE SMOOTH",
"274 293 OFFCURVE",
"271 286 OFFCURVE",
"271 278 CURVE SMOOTH",
"271 270 OFFCURVE",
"274 263 OFFCURVE",
"280 258 CURVE",
"285 252 OFFCURVE",
"292 249 OFFCURVE",
"300 249 CURVE SMOOTH",
"308 249 OFFCURVE",
"315 252 OFFCURVE",
"321 258 CURVE SMOOTH",
"326 263 OFFCURVE",
"329 270 OFFCURVE",
"329 278 CURVE SMOOTH",
"329 286 OFFCURVE",
"326 293 OFFCURVE",
"321 299 CURVE"
);
},
{
closed = 1;
nodes = (
"163 216 LINE",
"163 190 OFFCURVE",
"172 168 OFFCURVE",
"190 150 CURVE SMOOTH",
"208 132 OFFCURVE",
"230 123 OFFCURVE",
"256 123 CURVE SMOOTH",
"282 123 OFFCURVE",
"304 132 OFFCURVE",
"322 150 CURVE SMOOTH",
"340 168 OFFCURVE",
"349 190 OFFCURVE",
"349 216 CURVE"
);
}
);
width = 512;
}
);
},
{
glyphname = uniE035;
lastChange = "2013-02-02 00:18:52 +0100";
layers = (
{
layerId = "457A0151-1F15-493B-A022-4CDC4EBB0E42";
name = Regular;
paths = (
{
closed = 1;
nodes = (
"1 480 LINE",
"1 -32 LINE",
"513 -32 LINE",
"513 480 LINE"
);
},
{
closed = 1;
nodes = (
"140 378 OFFCURVE",
"153 383 OFFCURVE",
"168 383 CURVE SMOOTH",
"183 383 OFFCURVE",
"197 378 OFFCURVE",
"208 367 CURVE SMOOTH",
"219 356 OFFCURVE",
"224 342 OFFCURVE",
"224 327 CURVE SMOOTH",
"224 312 OFFCURVE",
"219 299 OFFCURVE",
"208 288 CURVE SMOOTH",
"197 277 OFFCURVE",
"183 272 OFFCURVE",
"168 272 CURVE SMOOTH",
"153 272 OFFCURVE",
"140 277 OFFCURVE",
"129 288 CURVE SMOOTH",
"118 299 OFFCURVE",
"113 312 OFFCURVE",
"113 327 CURVE SMOOTH",
"113 342 OFFCURVE",
"118 356 OFFCURVE",
"129 367 CURVE SMOOTH"
);
},
{
closed = 1;
nodes = (
"313 378 OFFCURVE",
"326 383 OFFCURVE",
"341 383 CURVE SMOOTH",
"356 383 OFFCURVE",
"369 378 OFFCURVE",
"380 367 CURVE SMOOTH",
"391 356 OFFCURVE",
"396 342 OFFCURVE",
"396 327 CURVE SMOOTH",
"396 312 OFFCURVE",
"391 299 OFFCURVE",
"380 288 CURVE SMOOTH",
"369 277 OFFCURVE",
"356 272 OFFCURVE",
"341 272 CURVE SMOOTH",
"326 272 OFFCURVE",
"313 277 OFFCURVE",
"302 288 CURVE SMOOTH",
"291 299 OFFCURVE",
"285 312 OFFCURVE",
"285 327 CURVE SMOOTH",
"285 342 OFFCURVE",
"291 356 OFFCURVE",
"302 367 CURVE SMOOTH"
);
},
{
closed = 1;
nodes = (
"435 209 LINE",
"435 160 OFFCURVE",
"418 118 OFFCURVE",
"383 83 CURVE SMOOTH",
"348 48 OFFCURVE",
"306 31 OFFCURVE",
"257 31 CURVE SMOOTH",
"208 31 OFFCURVE",
"166 48 OFFCURVE",
"131 83 CURVE SMOOTH",
"96 118 OFFCURVE",
"79 160 OFFCURVE",
"79 209 CURVE"
);
}
);
width = 512;
}
);
},
{
glyphname = uniE036;
lastChange = "2013-02-02 00:18:52 +0100";
layers = (
{
layerId = "457A0151-1F15-493B-A022-4CDC4EBB0E42";
name = Regular;
paths = (
{
closed = 1;
nodes = (
"28 480 LINE",
"28 233 LINE",
"19 239 OFFCURVE",
"11 240 OFFCURVE",
"6 236 CURVE",
"3 233 OFFCURVE",
"5 227 OFFCURVE",
"11 216 CURVE",
"40 187 OFFCURVE",
"75 163 OFFCURVE",
"116 145 CURVE",
"107 118 OFFCURVE",
"104 91 OFFCURVE",
"107 63 CURVE SMOOTH",
"110 37 OFFCURVE",
"120 15 OFFCURVE",
"136 -4 CURVE SMOOTH",
"152 -23 OFFCURVE",
"172 -32 OFFCURVE",
"197 -32 CURVE SMOOTH",
"210 -32 OFFCURVE",
"221 -28 OFFCURVE",
"232 -19 CURVE",
"243 -11 OFFCURVE",
"248 -1 OFFCURVE",
"248 11 CURVE SMOOTH",
"248 119 LINE",
"249 119 OFFCURVE",
"251 118 OFFCURVE",
"256 117 CURVE",
"261 115 OFFCURVE",
"264 114 OFFCURVE",
"266 114 CURVE",
"266 13 LINE SMOOTH",
"266 6 OFFCURVE",
"268 -1 OFFCURVE",
"271 -6 CURVE",
"282 -22 OFFCURVE",
"298 -30 OFFCURVE",
"317 -30 CURVE",
"342 -29 OFFCURVE",
"363 -20 OFFCURVE",
"379 -2 CURVE SMOOTH",
"394 16 OFFCURVE",
"404 38 OFFCURVE",
"407 64 CURVE SMOOTH",
"410 91 OFFCURVE",
"407 119 OFFCURVE",
"398 147 CURVE",
"400 148 OFFCURVE",
"407 151 OFFCURVE",
"418 156 CURVE SMOOTH",
"429 161 OFFCURVE",
"436 165 OFFCURVE",
"441 168 CURVE SMOOTH",
"446 171 OFFCURVE",
"453 175 OFFCURVE",
"463 181 CURVE SMOOTH",
"472 186 OFFCURVE",
"480 191 OFFCURVE",
"485 196 CURVE SMOOTH",
"490 201 OFFCURVE",
"495 206 OFFCURVE",
"500 213 CURVE SMOOTH",
"505 220 OFFCURVE",
"508 226 OFFCURVE",
"510 232 CURVE",
"511 237 OFFCURVE",
"508 239 OFFCURVE",
"502 239 CURVE SMOOTH",
"496 239 OFFCURVE",
"490 237 OFFCURVE",
"485 233 CURVE",
"485 480 LINE"
);
},
{
closed = 1;
nodes = (
"54 453 LINE",
"458 453 LINE",
"458 217 LINE",
"455 215 OFFCURVE",
"448 212 OFFCURVE",
"438 207 CURVE",
"80 203 LINE",
"77 204 OFFCURVE",
"72 207 OFFCURVE",
"67 210 CURVE",
"61 213 OFFCURVE",
"57 215 OFFCURVE",
"54 216 CURVE"
);
},
{
closed = 1;
nodes = (
"219 322 OFFCURVE",
"205 328 OFFCURVE",
"188 328 CURVE SMOOTH",
"171 328 OFFCURVE",
"157 322 OFFCURVE",
"145 310 CURVE SMOOTH",
"133 298 OFFCURVE",
"127 284 OFFCURVE",
"127 267 CURVE SMOOTH",
"127 250 OFFCURVE",
"133 236 OFFCURVE",
"145 225 CURVE",
"157 213 OFFCURVE",
"171 207 OFFCURVE",
"188 207 CURVE SMOOTH",
"205 207 OFFCURVE",
"219 213 OFFCURVE",
"231 225 CURVE SMOOTH",
"242 236 OFFCURVE",
"248 250 OFFCURVE",
"248 267 CURVE SMOOTH",
"248 284 OFFCURVE",
"242 298 OFFCURVE",
"231 310 CURVE"
);
},
{
closed = 1;
nodes = (
"362 322 OFFCURVE",
"348 328 OFFCURVE",
"331 328 CURVE SMOOTH",
"314 328 OFFCURVE",
"300 322 OFFCURVE",
"288 310 CURVE SMOOTH",
"276 298 OFFCURVE",
"270 284 OFFCURVE",
"270 267 CURVE SMOOTH",
"270 250 OFFCURVE",
"276 236 OFFCURVE",
"288 225 CURVE",
"300 213 OFFCURVE",
"314 207 OFFCURVE",
"331 207 CURVE SMOOTH",
"348 207 OFFCURVE",
"362 213 OFFCURVE",
"374 225 CURVE SMOOTH",
"385 236 OFFCURVE",
"391 250 OFFCURVE",
"391 267 CURVE SMOOTH",
"391 284 OFFCURVE",
"385 298 OFFCURVE",
"374 310 CURVE"
);
}
);
width = 512;
}
);
},
{
glyphname = uniE037;
lastChange = "2013-02-02 00:18:52 +0100";
layers = (
{
layerId = "457A0151-1F15-493B-A022-4CDC4EBB0E42";
name = Regular;
paths = (
{
closed = 1;
nodes = (
"400 197 OFFCURVE",
"381 225 OFFCURVE",
"344 242 CURVE SMOOTH",
"328 249 OFFCURVE",
"312 254 OFFCURVE",
"296 258 CURVE",
"291 259 OFFCURVE",
"282 262 OFFCURVE",
"268 265 CURVE SMOOTH",
"254 268 OFFCURVE",
"243 270 OFFCURVE",
"235 273 CURVE",
"226 275 OFFCURVE",
"217 279 OFFCURVE",
"209 285 CURVE SMOOTH",
"201 291 OFFCURVE",
"197 298 OFFCURVE",
"196 305 CURVE",
"198 317 OFFCURVE",
"205 326 OFFCURVE",
"216 331 CURVE SMOOTH",
"227 336 OFFCURVE",
"240 338 OFFCURVE",
"253 338 CURVE",
"280 339 OFFCURVE",
"300 327 OFFCURVE",
"315 302 CURVE SMOOTH",
"320 293 OFFCURVE",
"326 287 OFFCURVE",
"331 283 CURVE SMOOTH",
"336 279 OFFCURVE",
"342 277 OFFCURVE",
"350 276 CURVE",
"360 277 OFFCURVE",
"368 280 OFFCURVE",
"375 287 CURVE SMOOTH",
"382 294 OFFCURVE",
"385 301 OFFCURVE",
"385 310 CURVE",
"384 329 OFFCURVE",
"376 344 OFFCURVE",
"363 356 CURVE SMOOTH",
"350 368 OFFCURVE",
"333 377 OFFCURVE",
"314 384 CURVE",
"267 395 OFFCURVE",
"225 394 OFFCURVE",
"187 380 CURVE SMOOTH",
"168 373 OFFCURVE",
"153 363 OFFCURVE",
"142 348 CURVE",
"130 333 OFFCURVE",
"124 317 OFFCURVE",
"124 299 CURVE",
"125 283 OFFCURVE",
"129 269 OFFCURVE",
"136 257 CURVE SMOOTH",
"143 245 OFFCURVE",
"154 236 OFFCURVE",
"167 229 CURVE SMOOTH",
"180 222 OFFCURVE",
"193 216 OFFCURVE",
"204 212 CURVE SMOOTH",
"215 208 OFFCURVE",
"228 204 OFFCURVE",
"244 201 CURVE SMOOTH",
"263 198 OFFCURVE",
"277 194 OFFCURVE",
"288 190 CURVE SMOOTH",
"311 182 OFFCURVE",
"323 170 OFFCURVE",
"324 153 CURVE",
"324 141 OFFCURVE",
"318 131 OFFCURVE",
"305 123 CURVE",
"272 107 OFFCURVE",
"245 105 OFFCURVE",
"222 117 CURVE SMOOTH",
"208 124 OFFCURVE",
"197 137 OFFCURVE",
"188 157 CURVE SMOOTH",
"179 176 OFFCURVE",
"168 185 OFFCURVE",
"153 185 CURVE",
"143 184 OFFCURVE",
"135 181 OFFCURVE",
"128 175 CURVE SMOOTH",
"121 169 OFFCURVE",
"117 162 OFFCURVE",
"117 153 CURVE",
"118 136 OFFCURVE",
"124 121 OFFCURVE",
"135 107 CURVE",
"145 93 OFFCURVE",
"157 82 OFFCURVE",
"172 74 CURVE",
"230 51 OFFCURVE",
"284 49 OFFCURVE",
"334 69 CURVE",
"354 78 OFFCURVE",
"370 90 OFFCURVE",
"382 107 CURVE SMOOTH",
"393 123 OFFCURVE",
"399 141 OFFCURVE",
"400 160 CURVE"
);
},
{
closed = 1;
nodes = (
"504 151 OFFCURVE",
"509 130 OFFCURVE",
"509 108 CURVE SMOOTH",
"508 69 OFFCURVE",
"495 36 OFFCURVE",
"468 9 CURVE",
"439 -18 OFFCURVE",
"407 -32 OFFCURVE",
"370 -32 CURVE",
"346 -31 OFFCURVE",
"324 -26 OFFCURVE",
"304 -16 CURVE",
"255 -24 OFFCURVE",
"209 -19 OFFCURVE",
"166 -1 CURVE SMOOTH",
"137 12 OFFCURVE",
"111 30 OFFCURVE",
"89 53 CURVE SMOOTH",
"67 75 OFFCURVE",
"50 100 OFFCURVE",
"37 128 CURVE",
"19 177 OFFCURVE",
"14 225 OFFCURVE",
"23 270 CURVE",
"8 299 OFFCURVE",
"2 329 OFFCURVE",
"6 360 CURVE SMOOTH",
"10 391 OFFCURVE",
"23 418 OFFCURVE",
"45 440 CURVE SMOOTH",
"69 463 OFFCURVE",
"97 476 OFFCURVE",
"129 479 CURVE SMOOTH",
"161 482 OFFCURVE",
"191 476 OFFCURVE",
"218 459 CURVE",
"257 466 OFFCURVE",
"295 463 OFFCURVE",
"333 451 CURVE SMOOTH",
"370 438 OFFCURVE",
"403 419 OFFCURVE",
"430 392 CURVE SMOOTH",
"477 343 OFFCURVE",
"500 287 OFFCURVE",
"500 222 CURVE SMOOTH",
"500 204 OFFCURVE",
"498 187 OFFCURVE",
"495 170 CURVE"
);
}
);
width = 512;
}
);
},
{
glyphname = uniE038;
lastChange = "2013-02-02 00:18:52 +0100";
layers = (
{
layerId = "457A0151-1F15-493B-A022-4CDC4EBB0E42";
name = Regular;
paths = (
{
closed = 1;
nodes = (
"411 -32 LINE",
"411 480 LINE",
"513 480 LINE",
"513 -32 LINE"
);
},
{
closed = 1;
nodes = (
"274 352 LINE",
"376 352 LINE",
"376 -32 LINE",
"274 -32 LINE"
);
},
{
closed = 1;
nodes = (
"138 224 LINE",
"240 224 LINE",
"240 -32 LINE",
"138 -32 LINE"
);
},
{
closed = 1;
nodes = (
"1 96 LINE",
"103 96 LINE",
"103 -32 LINE",
"1 -32 LINE"
);
}
);
width = 512;
}
);
},
{
glyphname = uniE039;
lastChange = "2013-02-02 00:18:52 +0100";
layers = (
{
layerId = "457A0151-1F15-493B-A022-4CDC4EBB0E42";
name = Regular;
paths = (
{
closed = 1;
nodes = (
"387 455 OFFCURVE",
"327 480 OFFCURVE",
"256 480 CURVE SMOOTH",
"185 480 OFFCURVE",
"125 455 OFFCURVE",
"75 405 CURVE SMOOTH",
"25 355 OFFCURVE",
"0 295 OFFCURVE",
"0 224 CURVE SMOOTH",
"0 153 OFFCURVE",
"25 93 OFFCURVE",
"75 43 CURVE SMOOTH",
"125 -7 OFFCURVE",
"185 -32 OFFCURVE",
"256 -32 CURVE SMOOTH",
"327 -32 OFFCURVE",
"387 -7 OFFCURVE",
"437 43 CURVE SMOOTH",
"487 93 OFFCURVE",
"512 153 OFFCURVE",
"512 224 CURVE SMOOTH",
"512 295 OFFCURVE",
"487 355 OFFCURVE",
"437 405 CURVE SMOOTH"
);
},
{
closed = 1;
nodes = (
"173 358 LINE",
"179 355 OFFCURVE",
"182 351 OFFCURVE",
"183 344 CURVE SMOOTH",
"186 319 LINE",
"392 296 LINE",
"397 295 OFFCURVE",
"400 293 OFFCURVE",
"403 290 CURVE",
"406 286 OFFCURVE",
"407 282 OFFCURVE",
"406 278 CURVE",
"393 206 LINE",
"391 197 OFFCURVE",
"386 193 OFFCURVE",
"378 193 CURVE SMOOTH",
"195 193 LINE",
"191 173 LINE",
"366 173 LINE",
"370 172 OFFCURVE",
"374 171 OFFCURVE",
"377 168 CURVE SMOOTH",
"380 165 OFFCURVE",
"381 161 OFFCURVE",
"381 157 CURVE SMOOTH",
"381 153 OFFCURVE",
"380 150 OFFCURVE",
"377 147 CURVE SMOOTH",
"374 144 OFFCURVE",
"370 142 OFFCURVE",
"366 142 CURVE SMOOTH",
"173 142 LINE",
"168 143 OFFCURVE",
"165 145 OFFCURVE",
"162 148 CURVE SMOOTH",
"159 151 OFFCURVE",
"157 155 OFFCURVE",
"158 160 CURVE SMOOTH",
"166 205 LINE",
"153 331 LINE",
"118 342 LINE",
"114 343 OFFCURVE",
"111 346 OFFCURVE",
"109 350 CURVE",
"104 359 OFFCURVE",
"106 366 OFFCURVE",
"115 371 CURVE",
"119 373 OFFCURVE",
"123 373 OFFCURVE",
"127 372 CURVE"
);
},
{
closed = 1;
nodes = (
"184 131 OFFCURVE",
"189 133 OFFCURVE",
"196 133 CURVE SMOOTH",
"203 133 OFFCURVE",
"208 131 OFFCURVE",
"213 126 CURVE SMOOTH",
"218 121 OFFCURVE",
"220 116 OFFCURVE",
"220 109 CURVE SMOOTH",
"220 102 OFFCURVE",
"218 97 OFFCURVE",
"213 92 CURVE SMOOTH",
"208 87 OFFCURVE",
"203 85 OFFCURVE",
"196 85 CURVE SMOOTH",
"189 85 OFFCURVE",
"184 87 OFFCURVE",
"179 92 CURVE SMOOTH",
"174 97 OFFCURVE",
"172 102 OFFCURVE",
"172 109 CURVE SMOOTH",
"172 116 OFFCURVE",
"174 121 OFFCURVE",
"179 126 CURVE SMOOTH"
);
},
{
closed = 1;
nodes = (
"325 131 OFFCURVE",
"330 133 OFFCURVE",
"337 133 CURVE SMOOTH",
"344 133 OFFCURVE",
"349 131 OFFCURVE",
"354 126 CURVE SMOOTH",
"359 121 OFFCURVE",
"361 116 OFFCURVE",
"361 109 CURVE SMOOTH",
"361 102 OFFCURVE",
"359 97 OFFCURVE",
"354 92 CURVE SMOOTH",
"349 87 OFFCURVE",
"344 85 OFFCURVE",
"337 85 CURVE SMOOTH",
"330 85 OFFCURVE",
"325 87 OFFCURVE",
"320 92 CURVE SMOOTH",
"315 97 OFFCURVE",
"313 102 OFFCURVE",
"313 109 CURVE SMOOTH",
"313 116 OFFCURVE",
"315 121 OFFCURVE",
"320 126 CURVE SMOOTH"
);
}
);
width = 512;
}
);
},
{
glyphname = uniE03A;
lastChange = "2013-02-02 00:18:52 +0100";
layers = (
{
layerId = "457A0151-1F15-493B-A022-4CDC4EBB0E42";
name = Regular;
paths = (
{
closed = 1;
nodes = (
"491 185 LINE SMOOTH",
"488 170 OFFCURVE",
"480 163 OFFCURVE",
"465 163 CURVE SMOOTH",
"152 163 LINE",
"146 128 LINE",
"444 128 LINE",
"452 127 OFFCURVE",
"459 125 OFFCURVE",
"464 120 CURVE SMOOTH",
"469 115 OFFCURVE",
"471 108 OFFCURVE",
"471 101 CURVE",
"470 93 OFFCURVE",
"468 87 OFFCURVE",
"463 82 CURVE SMOOTH",
"458 77 OFFCURVE",
"451 75 OFFCURVE",
"444 74 CURVE",
"114 74 LINE",
"105 75 OFFCURVE",
"99 79 OFFCURVE",
"94 85 CURVE SMOOTH",
"89 91 OFFCURVE",
"87 98 OFFCURVE",
"88 106 CURVE",
"102 183 LINE",
"80 399 LINE",
"19 418 LINE",
"4 424 OFFCURVE",
"-2 435 OFFCURVE",
"2 451 CURVE",
"5 458 OFFCURVE",
"9 464 OFFCURVE",
"16 467 CURVE",
"22 470 OFFCURVE",
"28 471 OFFCURVE",
"35 469 CURVE SMOOTH",
"113 444 LINE",
"124 440 OFFCURVE",
"130 432 OFFCURVE",
"131 421 CURVE SMOOTH",
"136 378 LINE",
"490 339 LINE",
"498 337 OFFCURVE",
"504 333 OFFCURVE",
"508 328 CURVE",
"512 322 OFFCURVE",
"514 315 OFFCURVE",
"513 308 CURVE"
);
},
{
closed = 1;
nodes = (
"191 39 OFFCURVE",
"195 30 OFFCURVE",
"195 19 CURVE SMOOTH",
"195 8 OFFCURVE",
"191 -2 OFFCURVE",
"184 -10 CURVE",
"176 -18 OFFCURVE",
"166 -22 OFFCURVE",
"155 -22 CURVE SMOOTH",
"144 -22 OFFCURVE",
"134 -18 OFFCURVE",
"126 -10 CURVE SMOOTH",
"118 -2 OFFCURVE",
"114 8 OFFCURVE",
"114 19 CURVE SMOOTH",
"114 30 OFFCURVE",
"118 39 OFFCURVE",
"126 47 CURVE SMOOTH",
"134 55 OFFCURVE",
"144 59 OFFCURVE",
"155 59 CURVE SMOOTH",
"166 59 OFFCURVE",
"176 55 OFFCURVE",
"184 47 CURVE"
);
},
{
closed = 1;
nodes = (
"433 39 OFFCURVE",
"437 30 OFFCURVE",
"437 19 CURVE SMOOTH",
"437 8 OFFCURVE",
"433 -2 OFFCURVE",
"426 -10 CURVE",
"418 -18 OFFCURVE",
"408 -22 OFFCURVE",
"397 -22 CURVE SMOOTH",
"386 -22 OFFCURVE",
"376 -18 OFFCURVE",
"368 -10 CURVE SMOOTH",
"360 -2 OFFCURVE",
"356 8 OFFCURVE",
"356 19 CURVE SMOOTH",
"356 30 OFFCURVE",
"360 39 OFFCURVE",
"368 47 CURVE SMOOTH",
"376 55 OFFCURVE",
"386 59 OFFCURVE",
"397 59 CURVE SMOOTH",
"408 59 OFFCURVE",
"418 55 OFFCURVE",
"426 47 CURVE"
);
}
);
width = 512;
}
);
},
{
glyphname = uniE03B;
lastChange = "2013-02-02 00:18:52 +0100";
layers = (
{
layerId = "457A0151-1F15-493B-A022-4CDC4EBB0E42";
name = Regular;
paths = (
{
closed = 1;
nodes = (
"322 465 LINE",
"322 340 LINE",
"299 340 OFFCURVE",
"281 340 OFFCURVE",
"268 339 CURVE SMOOTH",
"254 338 OFFCURVE",
"234 336 OFFCURVE",
"209 331 CURVE SMOOTH",
"184 326 OFFCURVE",
"163 320 OFFCURVE",
"147 312 CURVE SMOOTH",
"130 303 OFFCURVE",
"112 290 OFFCURVE",
"92 273 CURVE SMOOTH",
"71 255 OFFCURVE",
"55 234 OFFCURVE",
"43 209 CURVE SMOOTH",
"31 184 OFFCURVE",
"21 153 OFFCURVE",
"13 114 CURVE SMOOTH",
"4 75 OFFCURVE",
"0 32 OFFCURVE",
"0 -17 CURVE",
"3 16 OFFCURVE",
"9 46 OFFCURVE",
"16 71 CURVE SMOOTH",
"23 96 OFFCURVE",
"31 118 OFFCURVE",
"40 135 CURVE SMOOTH",
"49 152 OFFCURVE",
"61 166 OFFCURVE",
"78 177 CURVE SMOOTH",
"95 188 OFFCURVE",
"109 197 OFFCURVE",
"122 203 CURVE SMOOTH",
"135 209 OFFCURVE",
"154 214 OFFCURVE",
"180 217 CURVE SMOOTH",
"206 220 OFFCURVE",
"228 221 OFFCURVE",
"245 222 CURVE",
"262 222 OFFCURVE",
"287 222 OFFCURVE",
"322 222 CURVE",
"322 85 LINE",
"512 275 LINE"
);
}
);
width = 512;
}
);
},
{
glyphname = uniE03C;
lastChange = "2013-02-02 00:18:52 +0100";
layers = (
{
layerId = "457A0151-1F15-493B-A022-4CDC4EBB0E42";
name = Regular;
paths = (
{
closed = 1;
nodes = (
"1 480 LINE",
"1 -32 LINE",
"513 -32 LINE",
"513 235 LINE",
"429 146 LINE",
"429 52 LINE",
"85 52 LINE",
"85 396 LINE",
"254 396 LINE",
"254 480 LINE"
);
},
{
closed = 1;
nodes = (
"367 480 LINE",
"367 384 LINE",
"354 384 OFFCURVE",
"343 384 OFFCURVE",
"335 384 CURVE",
"327 383 OFFCURVE",
"316 382 OFFCURVE",
"301 381 CURVE",
"286 379 OFFCURVE",
"273 377 OFFCURVE",
"264 374 CURVE SMOOTH",
"254 371 OFFCURVE",
"242 366 OFFCURVE",
"228 360 CURVE",
"214 353 OFFCURVE",
"203 346 OFFCURVE",
"194 337 CURVE SMOOTH",
"185 328 OFFCURVE",
"175 316 OFFCURVE",
"165 302 CURVE",
"154 288 OFFCURVE",
"146 272 OFFCURVE",
"141 255 CURVE",
"135 237 OFFCURVE",
"130 216 OFFCURVE",
"126 191 CURVE SMOOTH",
"122 166 OFFCURVE",
"120 139 OFFCURVE",
"120 110 CURVE",
"123 145 OFFCURVE",
"130 175 OFFCURVE",
"140 199 CURVE SMOOTH",
"150 222 OFFCURVE",
"161 240 OFFCURVE",
"172 253 CURVE SMOOTH",
"183 266 OFFCURVE",
"200 275 OFFCURVE",
"224 281 CURVE SMOOTH",
"247 287 OFFCURVE",
"268 291 OFFCURVE",
"286 292 CURVE SMOOTH",
"303 293 OFFCURVE",
"330 293 OFFCURVE",
"367 293 CURVE",
"367 188 LINE",
"513 334 LINE"
);
}
);
width = 512;
}
);
},
{
glyphname = uniE03D;
lastChange = "2013-02-02 00:18:52 +0100";
layers = (
{
layerId = "457A0151-1F15-493B-A022-4CDC4EBB0E42";
name = Regular;
paths = (
{
closed = 1;
nodes = (
"387 455 OFFCURVE",
"327 480 OFFCURVE",
"256 480 CURVE SMOOTH",
"185 480 OFFCURVE",
"125 455 OFFCURVE",
"75 405 CURVE SMOOTH",
"25 355 OFFCURVE",
"0 295 OFFCURVE",
"0 224 CURVE SMOOTH",
"0 153 OFFCURVE",
"25 93 OFFCURVE",
"75 43 CURVE SMOOTH",
"125 -7 OFFCURVE",
"185 -32 OFFCURVE",
"256 -32 CURVE SMOOTH",
"327 -32 OFFCURVE",
"387 -7 OFFCURVE",
"437 43 CURVE SMOOTH",
"487 93 OFFCURVE",
"512 153 OFFCURVE",
"512 224 CURVE SMOOTH",
"512 295 OFFCURVE",
"487 355 OFFCURVE",
"437 405 CURVE SMOOTH"
);
},
{
closed = 1;
nodes = (
"253 121 OFFCURVE",
"234 126 OFFCURVE",
"216 135 CURVE",
"160 79 LINE",
"114 125 LINE",
"168 179 LINE",
"169 179 LINE",
"156 199 OFFCURVE",
"150 221 OFFCURVE",
"150 245 CURVE SMOOTH",
"150 279 OFFCURVE",
"162 308 OFFCURVE",
"186 333 CURVE SMOOTH",
"210 357 OFFCURVE",
"239 369 OFFCURVE",
"274 369 CURVE SMOOTH",
"308 369 OFFCURVE",
"337 357 OFFCURVE",
"362 333 CURVE",
"386 308 OFFCURVE",
"398 279 OFFCURVE",
"398 245 CURVE SMOOTH",
"398 211 OFFCURVE",
"386 182 OFFCURVE",
"362 158 CURVE SMOOTH",
"337 133 OFFCURVE",
"308 121 OFFCURVE",
"274 121 CURVE SMOOTH"
);
},
{
closed = 1;
nodes = (
"309 307 OFFCURVE",
"293 314 OFFCURVE",
"274 314 CURVE SMOOTH",
"255 314 OFFCURVE",
"238 307 OFFCURVE",
"225 294 CURVE SMOOTH",
"212 281 OFFCURVE",
"205 264 OFFCURVE",
"205 245 CURVE SMOOTH",
"205 226 OFFCURVE",
"212 209 OFFCURVE",
"225 196 CURVE SMOOTH",
"238 183 OFFCURVE",
"255 176 OFFCURVE",
"274 176 CURVE SMOOTH",
"293 176 OFFCURVE",
"309 183 OFFCURVE",
"322 196 CURVE SMOOTH",
"335 209 OFFCURVE",
"342 226 OFFCURVE",
"342 245 CURVE SMOOTH",
"342 264 OFFCURVE",
"335 281 OFFCURVE",
"322 294 CURVE SMOOTH"
);
}
);
width = 512;
}
);
},
{
glyphname = uniE03E;
lastChange = "2013-02-02 00:18:52 +0100";
layers = (
{
layerId = "457A0151-1F15-493B-A022-4CDC4EBB0E42";
name = Regular;
paths = (
{
closed = 1;
nodes = (
"69 219 OFFCURVE",
"80 180 OFFCURVE",
"103 144 CURVE",
"102 144 LINE",
"7 49 LINE",
"88 -32 LINE",
"187 67 LINE",
"218 50 OFFCURVE",
"252 42 OFFCURVE",
"288 42 CURVE SMOOTH",
"349 42 OFFCURVE",
"400 63 OFFCURVE",
"443 106 CURVE SMOOTH",
"486 149 OFFCURVE",
"507 200 OFFCURVE",
"507 261 CURVE SMOOTH",
"507 322 OFFCURVE",
"486 373 OFFCURVE",
"443 416 CURVE SMOOTH",
"400 459 OFFCURVE",
"349 480 OFFCURVE",
"288 480 CURVE SMOOTH",
"227 480 OFFCURVE",
"176 459 OFFCURVE",
"133 416 CURVE SMOOTH",
"90 373 OFFCURVE",
"69 322 OFFCURVE",
"69 261 CURVE SMOOTH"
);
},
{
closed = 1;
nodes = (
"226 371 OFFCURVE",
"255 383 OFFCURVE",
"288 383 CURVE SMOOTH",
"321 383 OFFCURVE",
"350 371 OFFCURVE",
"374 348 CURVE SMOOTH",
"398 324 OFFCURVE",
"410 295 OFFCURVE",
"410 262 CURVE SMOOTH",
"410 228 OFFCURVE",
"398 199 OFFCURVE",
"374 176 CURVE SMOOTH",
"350 152 OFFCURVE",
"321 140 OFFCURVE",
"288 140 CURVE SMOOTH",
"255 140 OFFCURVE",
"226 152 OFFCURVE",
"202 176 CURVE SMOOTH",
"178 199 OFFCURVE",
"166 228 OFFCURVE",
"166 262 CURVE SMOOTH",
"166 295 OFFCURVE",
"178 324 OFFCURVE",
"202 348 CURVE SMOOTH"
);
}
);
width = 512;
}
);
},
{
glyphname = uniE03F;
lastChange = "2013-02-02 00:18:52 +0100";
layers = (
{
layerId = "457A0151-1F15-493B-A022-4CDC4EBB0E42";
name = Regular;
paths = (
{
closed = 1;
nodes = (
"217 480 LINE",
"217 413 LINE",
"180 406 OFFCURVE",
"147 388 OFFCURVE",
"120 361 CURVE SMOOTH",
"92 333 OFFCURVE",
"74 300 OFFCURVE",
"67 263 CURVE",
"0 263 LINE",
"0 185 LINE",
"67 185 LINE",
"74 148 OFFCURVE",
"92 115 OFFCURVE",
"120 88 CURVE",
"147 60 OFFCURVE",
"180 42 OFFCURVE",
"217 35 CURVE",
"217 -32 LINE",
"295 -32 LINE",
"295 35 LINE",
"332 42 OFFCURVE",
"365 60 OFFCURVE",
"393 88 CURVE SMOOTH",
"420 115 OFFCURVE",
"438 148 OFFCURVE",
"445 185 CURVE",
"512 185 LINE",
"512 263 LINE",
"445 263 LINE",
"438 300 OFFCURVE",
"420 333 OFFCURVE",
"393 361 CURVE",
"365 388 OFFCURVE",
"332 406 OFFCURVE",
"295 413 CURVE",
"295 480 LINE"
);
},
{
closed = 1;
nodes = (
"217 287 LINE",
"295 287 LINE",
"295 362 LINE",
"319 355 OFFCURVE",
"340 343 OFFCURVE",
"358 326 CURVE",
"375 308 OFFCURVE",
"387 287 OFFCURVE",
"394 263 CURVE",
"319 263 LINE",
"319 185 LINE",
"394 185 LINE",
"387 161 OFFCURVE",
"375 140 OFFCURVE",
"358 123 CURVE SMOOTH",
"340 105 OFFCURVE",
"319 93 OFFCURVE",
"295 86 CURVE",
"295 161 LINE",
"217 161 LINE",
"217 86 LINE",
"193 93 OFFCURVE",
"172 105 OFFCURVE",
"155 123 CURVE",
"137 140 OFFCURVE",
"125 161 OFFCURVE",
"118 185 CURVE",
"193 185 LINE",
"193 263 LINE",
"118 263 LINE",
"125 287 OFFCURVE",
"137 308 OFFCURVE",
"155 326 CURVE SMOOTH",
"172 343 OFFCURVE",
"193 355 OFFCURVE",
"217 362 CURVE"
);
}
);
width = 512;
}
);
},
{
glyphname = uniE040;
lastChange = "2013-02-02 00:18:52 +0100";
layers = (
{
layerId = "457A0151-1F15-493B-A022-4CDC4EBB0E42";
name = Regular;
paths = (
{
closed = 1;
nodes = (
"387 455 OFFCURVE",
"327 480 OFFCURVE",
"256 480 CURVE SMOOTH",
"185 480 OFFCURVE",
"125 455 OFFCURVE",
"75 405 CURVE SMOOTH",
"25 355 OFFCURVE",
"0 295 OFFCURVE",
"0 224 CURVE SMOOTH",
"0 153 OFFCURVE",
"25 93 OFFCURVE",
"75 43 CURVE SMOOTH",
"125 -7 OFFCURVE",
"185 -32 OFFCURVE",
"256 -32 CURVE SMOOTH",
"327 -32 OFFCURVE",
"387 -7 OFFCURVE",
"437 43 CURVE SMOOTH",
"487 93 OFFCURVE",
"512 153 OFFCURVE",
"512 224 CURVE SMOOTH",
"512 295 OFFCURVE",
"487 355 OFFCURVE",
"437 405 CURVE SMOOTH"
);
},
{
closed = 1;
nodes = (
"107 348 LINE",
"405 348 LINE",
"405 150 LINE",
"297 150 LINE",
"297 122 LINE",
"323 122 LINE",
"323 100 LINE",
"189 100 LINE",
"189 122 LINE",
"215 122 LINE",
"215 150 LINE",
"107 150 LINE"
);
},
{
closed = 1;
nodes = (
"143 310 LINE",
"143 188 LINE",
"369 188 LINE",
"369 310 LINE"
);
}
);
width = 512;
}
);
},
{
glyphname = uniE041;
lastChange = "2013-02-02 00:18:52 +0100";
layers = (
{
layerId = "457A0151-1F15-493B-A022-4CDC4EBB0E42";
name = Regular;
paths = (
{
closed = 1;
nodes = (
"1 436 LINE",
"1 98 LINE",
"187 98 LINE",
"187 49 LINE",
"142 49 LINE",
"142 12 LINE",
"372 12 LINE",
"372 49 LINE",
"327 49 LINE",
"327 98 LINE",
"513 98 LINE",
"513 436 LINE"
);
},
{
closed = 1;
nodes = (
"64 372 LINE",
"450 372 LINE",
"450 162 LINE",
"64 162 LINE"
);
}
);
width = 512;
}
);
},
{
glyphname = uniE042;
lastChange = "2013-02-02 00:18:52 +0100";
layers = (
{
layerId = "457A0151-1F15-493B-A022-4CDC4EBB0E42";
name = Regular;
paths = (
{
closed = 1;
nodes = (
"513 -32 LINE",
"513 37 OFFCURVE",
"500 104 OFFCURVE",
"473 167 CURVE SMOOTH",
"446 230 OFFCURVE",
"409 285 OFFCURVE",
"364 331 CURVE SMOOTH",
"318 376 OFFCURVE",
"263 413 OFFCURVE",
"200 440 CURVE SMOOTH",
"137 467 OFFCURVE",
"70 480 OFFCURVE",
"1 480 CURVE",
"1 378 LINE",
"75 378 OFFCURVE",
"144 360 OFFCURVE",
"207 323 CURVE SMOOTH",
"270 286 OFFCURVE",
"319 237 OFFCURVE",
"356 174 CURVE SMOOTH",
"393 111 OFFCURVE",
"411 42 OFFCURVE",
"411 -32 CURVE"
);
},
{
closed = 1;
nodes = (
"308 -32 LINE",
"308 53 OFFCURVE",
"278 125 OFFCURVE",
"218 185 CURVE SMOOTH",
"158 245 OFFCURVE",
"86 275 OFFCURVE",
"1 275 CURVE",
"1 173 LINE",
"58 173 OFFCURVE",
"106 153 OFFCURVE",
"146 113 CURVE SMOOTH",
"186 73 OFFCURVE",
"206 25 OFFCURVE",
"206 -32 CURVE"
);
},
{
closed = 1;
nodes = (
"103 -32 LINE",
"103 -4 OFFCURVE",
"93 20 OFFCURVE",
"73 40 CURVE SMOOTH",
"53 60 OFFCURVE",
"29 70 OFFCURVE",
"1 70 CURVE",
"1 -32 LINE"
);
}
);
width = 512;
}
);
},
{
glyphname = uniE043;
lastChange = "2013-02-02 00:18:52 +0100";
layers = (
{
layerId = "457A0151-1F15-493B-A022-4CDC4EBB0E42";
name = Regular;
paths = (
{
closed = 1;
nodes = (
"513 -32 LINE",
"410 480 LINE",
"282 480 LINE",
"286 362 LINE",
"228 362 LINE",
"232 480 LINE",
"104 480 LINE",
"1 -32 LINE",
"215 -32 LINE",
"220 115 LINE",
"294 115 LINE",
"299 -32 LINE"
);
},
{
closed = 1;
nodes = (
"221 159 LINE",
"227 333 LINE",
"287 333 LINE",
"293 159 LINE"
);
}
);
width = 512;
}
);
},
{
glyphname = uniE044;
lastChange = "2013-02-02 00:18:52 +0100";
layers = (
{
layerId = "457A0151-1F15-493B-A022-4CDC4EBB0E42";
name = Regular;
paths = (
{
closed = 1;
nodes = (
"388 -7 OFFCURVE",
"328 -32 OFFCURVE",
"257 -32 CURVE SMOOTH",
"186 -32 OFFCURVE",
"126 -7 OFFCURVE",
"76 43 CURVE SMOOTH",
"26 93 OFFCURVE",
"1 153 OFFCURVE",
"1 224 CURVE SMOOTH",
"1 295 OFFCURVE",
"26 355 OFFCURVE",
"76 405 CURVE SMOOTH",
"126 455 OFFCURVE",
"186 480 OFFCURVE",
"257 480 CURVE SMOOTH",
"328 480 OFFCURVE",
"388 455 OFFCURVE",
"438 405 CURVE SMOOTH",
"488 355 OFFCURVE",
"513 295 OFFCURVE",
"513 224 CURVE SMOOTH",
"513 153 OFFCURVE",
"488 93 OFFCURVE",
"438 43 CURVE SMOOTH"
);
},
{
closed = 1;
nodes = (
"225 320 LINE",
"97 224 LINE",
"225 128 LINE"
);
},
{
closed = 1;
nodes = (
"385 320 LINE",
"257 224 LINE",
"385 128 LINE"
);
}
);
width = 512;
}
);
},
{
glyphname = uniE045;
lastChange = "2013-02-02 00:18:52 +0100";
layers = (
{
layerId = "457A0151-1F15-493B-A022-4CDC4EBB0E42";
name = Regular;
paths = (
{
closed = 1;
nodes = (
"128 384 LINE",
"0 256 LINE",
"96 256 LINE",
"96 96 LINE",
"288 96 LINE",
"224 160 LINE",
"160 160 LINE",
"160 256 LINE",
"256 256 LINE"
);
},
{
closed = 1;
nodes = (
"224 352 LINE",
"288 288 LINE",
"352 288 LINE",
"352 192 LINE",
"256 192 LINE",
"384 64 LINE",
"512 192 LINE",
"416 192 LINE",
"416 352 LINE"
);
}
);
width = 512;
}
);
},
{
glyphname = uniE046;
lastChange = "2013-02-02 00:18:52 +0100";
layers = (
{
layerId = "457A0151-1F15-493B-A022-4CDC4EBB0E42";
name = Regular;
paths = (
{
closed = 1;
nodes = (
"387 350 LINE",
"257 480 LINE",
"127 350 LINE",
"214 350 LINE",
"214 216 LINE",
"214 200 LINE",
"214 98 LINE",
"127 98 LINE",
"257 -32 LINE",
"387 98 LINE",
"300 98 LINE",
"300 200 LINE",
"300 216 LINE",
"300 350 LINE"
);
}
);
width = 512;
}
);
},
{
glyphname = uniE047;
lastChange = "2013-02-02 00:18:52 +0100";
layers = (
{
layerId = "457A0151-1F15-493B-A022-4CDC4EBB0E42";
name = Regular;
paths = (
{
closed = 1;
nodes = (
"75 -32 LINE",
"178 71 LINE",
"253 -5 LINE",
"253 221 LINE",
"27 221 LINE",
"103 146 LINE",
"0 43 LINE"
);
},
{
closed = 1;
nodes = (
"437 480 LINE",
"334 377 LINE",
"259 453 LINE",
"259 227 LINE",
"485 227 LINE",
"409 302 LINE",
"512 405 LINE"
);
}
);
width = 512;
}
);
},
{
glyphname = uniE048;
lastChange = "2013-02-02 00:18:52 +0100";
layers = (
{
layerId = "457A0151-1F15-493B-A022-4CDC4EBB0E42";
name = Regular;
paths = (
{
closed = 1;
nodes = (
"130 354 LINE",
"0 224 LINE",
"130 94 LINE",
"130 181 LINE",
"382 181 LINE",
"382 94 LINE",
"512 224 LINE",
"382 354 LINE",
"382 267 LINE",
"130 267 LINE"
);
}
);
width = 512;
}
);
},
{
glyphname = uniE049;
lastChange = "2013-02-02 00:18:52 +0100";
layers = (
{
layerId = "457A0151-1F15-493B-A022-4CDC4EBB0E42";
name = Regular;
paths = (
{
closed = 1;
nodes = (
"179 221 LINE",
"76 118 LINE",
"0 194 LINE",
"0 -32 LINE",
"226 -32 LINE",
"150 44 LINE",
"253 147 LINE"
);
},
{
closed = 1;
nodes = (
"333 227 LINE",
"436 330 LINE",
"512 254 LINE",
"512 480 LINE",
"286 480 LINE",
"362 404 LINE",
"259 301 LINE"
);
}
);
width = 512;
}
);
},
{
glyphname = uniE04A;
lastChange = "2013-02-02 00:18:52 +0100";
layers = (
{
layerId = "457A0151-1F15-493B-A022-4CDC4EBB0E42";
name = Regular;
paths = (
{
closed = 1;
nodes = (
"387 455 OFFCURVE",
"327 480 OFFCURVE",
"256 480 CURVE SMOOTH",
"185 480 OFFCURVE",
"125 455 OFFCURVE",
"75 405 CURVE SMOOTH",
"25 355 OFFCURVE",
"0 295 OFFCURVE",
"0 224 CURVE SMOOTH",
"0 153 OFFCURVE",
"25 93 OFFCURVE",
"75 43 CURVE SMOOTH",
"125 -7 OFFCURVE",
"185 -32 OFFCURVE",
"256 -32 CURVE SMOOTH",
"327 -32 OFFCURVE",
"387 -7 OFFCURVE",
"437 43 CURVE SMOOTH",
"487 93 OFFCURVE",
"512 153 OFFCURVE",
"512 224 CURVE SMOOTH",
"512 295 OFFCURVE",
"487 355 OFFCURVE",
"437 405 CURVE SMOOTH"
);
},
{
closed = 1;
nodes = (
"297 372 OFFCURVE",
"332 357 OFFCURVE",
"361 328 CURVE",
"404 359 LINE",
"404 221 LINE",
"272 265 LINE",
"311 293 LINE",
"295 306 OFFCURVE",
"277 312 OFFCURVE",
"256 312 CURVE SMOOTH",
"232 312 OFFCURVE",
"211 303 OFFCURVE",
"194 286 CURVE SMOOTH",
"177 269 OFFCURVE",
"168 248 OFFCURVE",
"168 224 CURVE SMOOTH",
"168 200 OFFCURVE",
"177 179 OFFCURVE",
"194 162 CURVE SMOOTH",
"211 145 OFFCURVE",
"232 136 OFFCURVE",
"256 136 CURVE SMOOTH",
"272 136 OFFCURVE",
"287 140 OFFCURVE",
"301 148 CURVE SMOOTH",
"314 156 OFFCURVE",
"325 167 OFFCURVE",
"332 180 CURVE",
"384 150 LINE",
"371 127 OFFCURVE",
"354 109 OFFCURVE",
"331 96 CURVE SMOOTH",
"308 83 OFFCURVE",
"283 76 OFFCURVE",
"256 76 CURVE SMOOTH",
"215 76 OFFCURVE",
"181 91 OFFCURVE",
"152 120 CURVE SMOOTH",
"123 149 OFFCURVE",
"108 183 OFFCURVE",
"108 224 CURVE SMOOTH",
"108 265 OFFCURVE",
"123 300 OFFCURVE",
"152 329 CURVE SMOOTH",
"181 358 OFFCURVE",
"215 372 OFFCURVE",
"256 372 CURVE SMOOTH"
);
}
);
width = 512;
}
);
},
{
glyphname = uniE04B;
lastChange = "2013-02-02 00:18:52 +0100";
layers = (
{
layerId = "457A0151-1F15-493B-A022-4CDC4EBB0E42";
name = Regular;
paths = (
{
closed = 1;
nodes = (
"185 480 OFFCURVE",
"125 455 OFFCURVE",
"75 405 CURVE SMOOTH",
"25 355 OFFCURVE",
"0 295 OFFCURVE",
"0 224 CURVE SMOOTH",
"0 153 OFFCURVE",
"25 93 OFFCURVE",
"75 43 CURVE SMOOTH",
"125 -7 OFFCURVE",
"185 -32 OFFCURVE",
"256 -32 CURVE SMOOTH",
"303 -32 OFFCURVE",
"346 -20 OFFCURVE",
"385 3 CURVE SMOOTH",
"424 26 OFFCURVE",
"455 57 OFFCURVE",
"478 96 CURVE",
"388 148 LINE",
"375 125 OFFCURVE",
"356 106 OFFCURVE",
"333 93 CURVE SMOOTH",
"310 79 OFFCURVE",
"284 72 OFFCURVE",
"256 72 CURVE SMOOTH",
"214 72 OFFCURVE",
"178 87 OFFCURVE",
"149 117 CURVE SMOOTH",
"119 146 OFFCURVE",
"104 182 OFFCURVE",
"104 224 CURVE SMOOTH",
"104 266 OFFCURVE",
"119 302 OFFCURVE",
"149 332 CURVE SMOOTH",
"178 361 OFFCURVE",
"214 376 OFFCURVE",
"256 376 CURVE SMOOTH",
"291 376 OFFCURVE",
"323 365 OFFCURVE",
"351 343 CURVE",
"284 295 LINE",
"512 219 LINE",
"512 457 LINE",
"438 404 LINE",
"388 455 OFFCURVE",
"327 480 OFFCURVE",
"256 480 CURVE SMOOTH"
);
}
);
width = 512;
}
);
},
{
glyphname = uniE04C;
lastChange = "2013-02-02 00:18:52 +0100";
layers = (
{
layerId = "457A0151-1F15-493B-A022-4CDC4EBB0E42";
name = Regular;
paths = (
{
closed = 1;
nodes = (
"387 455 OFFCURVE",
"327 480 OFFCURVE",
"256 480 CURVE SMOOTH",
"185 480 OFFCURVE",
"125 455 OFFCURVE",
"75 405 CURVE SMOOTH",
"25 355 OFFCURVE",
"0 295 OFFCURVE",
"0 224 CURVE SMOOTH",
"0 153 OFFCURVE",
"25 93 OFFCURVE",
"75 43 CURVE SMOOTH",
"125 -7 OFFCURVE",
"185 -32 OFFCURVE",
"256 -32 CURVE SMOOTH",
"327 -32 OFFCURVE",
"387 -7 OFFCURVE",
"437 43 CURVE SMOOTH",
"487 93 OFFCURVE",
"512 153 OFFCURVE",
"512 224 CURVE SMOOTH",
"512 295 OFFCURVE",
"487 355 OFFCURVE",
"437 405 CURVE SMOOTH"
);
},
{
closed = 1;
nodes = (
"176 368 LINE",
"256 288 LINE",
"336 368 LINE",
"400 304 LINE",
"320 224 LINE",
"400 144 LINE",
"336 80 LINE",
"256 160 LINE",
"176 80 LINE",
"112 144 LINE",
"192 224 LINE",
"112 304 LINE"
);
}
);
width = 512;
}
);
},
{
glyphname = uniE04D;
lastChange = "2013-02-02 00:18:52 +0100";
layers = (
{
layerId = "457A0151-1F15-493B-A022-4CDC4EBB0E42";
name = Regular;
paths = (
{
closed = 1;
nodes = (
"387 455 OFFCURVE",
"327 480 OFFCURVE",
"256 480 CURVE SMOOTH",
"185 480 OFFCURVE",
"125 455 OFFCURVE",
"75 405 CURVE SMOOTH",
"25 355 OFFCURVE",
"0 295 OFFCURVE",
"0 224 CURVE SMOOTH",
"0 153 OFFCURVE",
"25 93 OFFCURVE",
"75 43 CURVE SMOOTH",
"125 -7 OFFCURVE",
"185 -32 OFFCURVE",
"256 -32 CURVE SMOOTH",
"327 -32 OFFCURVE",
"387 -7 OFFCURVE",
"437 43 CURVE SMOOTH",
"487 93 OFFCURVE",
"512 153 OFFCURVE",
"512 224 CURVE SMOOTH",
"512 295 OFFCURVE",
"487 355 OFFCURVE",
"437 405 CURVE SMOOTH"
);
},
{
closed = 1;
nodes = (
"154 405 OFFCURVE",
"201 424 OFFCURVE",
"256 424 CURVE SMOOTH",
"311 424 OFFCURVE",
"359 405 OFFCURVE",
"398 366 CURVE SMOOTH",
"437 327 OFFCURVE",
"456 279 OFFCURVE",
"456 224 CURVE SMOOTH",
"456 169 OFFCURVE",
"437 122 OFFCURVE",
"398 83 CURVE SMOOTH",
"359 44 OFFCURVE",
"311 24 OFFCURVE",
"256 24 CURVE SMOOTH",
"201 24 OFFCURVE",
"154 44 OFFCURVE",
"115 83 CURVE SMOOTH",
"76 122 OFFCURVE",
"56 169 OFFCURVE",
"56 224 CURVE SMOOTH",
"56 279 OFFCURVE",
"76 327 OFFCURVE",
"115 366 CURVE SMOOTH"
);
},
{
closed = 1;
nodes = (
"186 350 LINE",
"130 294 LINE",
"200 224 LINE",
"130 154 LINE",
"186 98 LINE",
"256 168 LINE",
"326 98 LINE",
"382 154 LINE",
"312 224 LINE",
"382 294 LINE",
"326 350 LINE",
"256 280 LINE"
);
}
);
width = 512;
}
);
},
{
glyphname = uniE04E;
lastChange = "2013-02-02 00:18:52 +0100";
layers = (
{
layerId = "457A0151-1F15-493B-A022-4CDC4EBB0E42";
name = Regular;
paths = (
{
closed = 1;
nodes = (
"0 367 LINE",
"143 224 LINE",
"0 81 LINE",
"113 -32 LINE",
"256 111 LINE",
"399 -32 LINE",
"512 81 LINE",
"369 224 LINE",
"512 367 LINE",
"399 480 LINE",
"256 337 LINE",
"113 480 LINE"
);
}
);
width = 512;
}
);
},
{
glyphname = uniE04F;
lastChange = "2013-02-02 00:18:52 +0100";
layers = (
{
layerId = "457A0151-1F15-493B-A022-4CDC4EBB0E42";
name = Regular;
paths = (
{
closed = 1;
nodes = (
"195 480 OFFCURVE",
"141 461 OFFCURVE",
"94 422 CURVE SMOOTH",
"47 383 OFFCURVE",
"17 333 OFFCURVE",
"5 274 CURVE",
"76 274 LINE",
"87 314 OFFCURVE",
"110 347 OFFCURVE",
"143 373 CURVE SMOOTH",
"176 398 OFFCURVE",
"213 411 OFFCURVE",
"256 411 CURVE SMOOTH",
"307 411 OFFCURVE",
"351 393 OFFCURVE",
"388 356 CURVE",
"306 274 LINE",
"436 274 LINE",
"512 274 LINE",
"512 480 LINE",
"437 405 LINE",
"387 455 OFFCURVE",
"327 480 OFFCURVE",
"256 480 CURVE SMOOTH"
);
},
{
closed = 1;
nodes = (
"0 174 LINE",
"0 -32 LINE",
"75 43 LINE",
"125 -7 OFFCURVE",
"185 -32 OFFCURVE",
"256 -32 CURVE SMOOTH",
"317 -32 OFFCURVE",
"372 -12 OFFCURVE",
"419 27 CURVE SMOOTH",
"466 66 OFFCURVE",
"495 115 OFFCURVE",
"507 174 CURVE",
"436 174 LINE",
"425 134 OFFCURVE",
"403 101 OFFCURVE",
"370 76 CURVE SMOOTH",
"337 50 OFFCURVE",
"299 37 OFFCURVE",
"256 37 CURVE SMOOTH",
"205 37 OFFCURVE",
"161 55 OFFCURVE",
"124 92 CURVE",
"206 174 LINE"
);
}
);
width = 512;
}
);
},
{
glyphname = uniE050;
lastChange = "2013-02-02 00:18:52 +0100";
layers = (
{
layerId = "457A0151-1F15-493B-A022-4CDC4EBB0E42";
name = Regular;
paths = (
{
closed = 1;
nodes = (
"345 99 OFFCURVE",
"343 93 OFFCURVE",
"336 87 CURVE",
"316 72 OFFCURVE",
"289 64 OFFCURVE",
"256 64 CURVE SMOOTH",
"220 65 OFFCURVE",
"194 72 OFFCURVE",
"178 87 CURVE",
"169 94 OFFCURVE",
"168 100 OFFCURVE",
"174 105 CURVE",
"178 108 OFFCURVE",
"184 107 OFFCURVE",
"191 101 CURVE",
"193 99 OFFCURVE",
"195 97 OFFCURVE",
"198 96 CURVE",
"200 95 OFFCURVE",
"202 94 OFFCURVE",
"205 93 CURVE SMOOTH",
"208 92 OFFCURVE",
"210 91 OFFCURVE",
"212 90 CURVE",
"213 89 OFFCURVE",
"216 89 OFFCURVE",
"219 88 CURVE SMOOTH",
"222 87 OFFCURVE",
"224 87 OFFCURVE",
"225 87 CURVE",
"226 86 OFFCURVE",
"229 86 OFFCURVE",
"233 85 CURVE",
"236 84 OFFCURVE",
"239 84 OFFCURVE",
"240 84 CURVE SMOOTH",
"241 84 OFFCURVE",
"243 84 OFFCURVE",
"248 84 CURVE",
"252 83 OFFCURVE",
"255 83 OFFCURVE",
"256 83 CURVE",
"282 84 OFFCURVE",
"305 90 OFFCURVE",
"324 101 CURVE",
"331 108 OFFCURVE",
"337 109 OFFCURVE",
"342 105 CURVE"
);
},
{
closed = 1;
nodes = (
"425 440 OFFCURVE",
"416 437 OFFCURVE",
"408 432 CURVE",
"400 426 OFFCURVE",
"394 419 OFFCURVE",
"391 410 CURVE",
"291 434 LINE",
"250 317 LINE",
"221 316 OFFCURVE",
"193 312 OFFCURVE",
"167 305 CURVE",
"141 297 OFFCURVE",
"118 287 OFFCURVE",
"98 274 CURVE",
"87 284 OFFCURVE",
"75 289 OFFCURVE",
"60 289 CURVE SMOOTH",
"51 289 OFFCURVE",
"44 288 OFFCURVE",
"37 285 CURVE SMOOTH",
"30 282 OFFCURVE",
"23 277 OFFCURVE",
"18 272 CURVE",
"13 266 OFFCURVE",
"9 260 OFFCURVE",
"6 253 CURVE SMOOTH",
"3 246 OFFCURVE",
"1 238 OFFCURVE",
"1 230 CURVE SMOOTH",
"1 219 OFFCURVE",
"4 210 OFFCURVE",
"9 202 CURVE",
"14 193 OFFCURVE",
"20 186 OFFCURVE",
"28 181 CURVE",
"27 178 OFFCURVE",
"27 175 OFFCURVE",
"27 172 CURVE",
"26 169 OFFCURVE",
"26 165 OFFCURVE",
"26 162 CURVE SMOOTH",
"26 141 OFFCURVE",
"32 122 OFFCURVE",
"44 103 CURVE SMOOTH",
"56 84 OFFCURVE",
"73 67 OFFCURVE",
"94 53 CURVE SMOOTH",
"115 39 OFFCURVE",
"139 28 OFFCURVE",
"167 20 CURVE SMOOTH",
"195 12 OFFCURVE",
"225 8 OFFCURVE",
"256 8 CURVE SMOOTH",
"288 8 OFFCURVE",
"318 12 OFFCURVE",
"346 20 CURVE SMOOTH",
"374 28 OFFCURVE",
"399 39 OFFCURVE",
"420 53 CURVE SMOOTH",
"441 67 OFFCURVE",
"457 84 OFFCURVE",
"469 103 CURVE SMOOTH",
"481 122 OFFCURVE",
"487 141 OFFCURVE",
"487 162 CURVE SMOOTH",
"487 168 OFFCURVE",
"486 174 OFFCURVE",
"485 180 CURVE",
"494 185 OFFCURVE",
"501 192 OFFCURVE",
"506 201 CURVE SMOOTH",
"511 210 OFFCURVE",
"513 219 OFFCURVE",
"513 230 CURVE SMOOTH",
"513 238 OFFCURVE",
"512 246 OFFCURVE",
"509 253 CURVE SMOOTH",
"506 260 OFFCURVE",
"501 266 OFFCURVE",
"496 272 CURVE",
"491 277 OFFCURVE",
"484 282 OFFCURVE",
"477 285 CURVE SMOOTH",
"470 288 OFFCURVE",
"462 289 OFFCURVE",
"454 289 CURVE SMOOTH",
"439 289 OFFCURVE",
"426 284 OFFCURVE",
"415 274 CURVE",
"396 286 OFFCURVE",
"374 296 OFFCURVE",
"349 304 CURVE",
"324 311 OFFCURVE",
"298 316 OFFCURVE",
"269 317 CURVE",
"303 412 LINE",
"387 392 LINE",
"387 379 OFFCURVE",
"392 367 OFFCURVE",
"402 358 CURVE",
"411 349 OFFCURVE",
"423 344 OFFCURVE",
"436 344 CURVE SMOOTH",
"449 344 OFFCURVE",
"460 349 OFFCURVE",
"470 358 CURVE",
"479 367 OFFCURVE",
"484 379 OFFCURVE",
"484 392 CURVE SMOOTH",
"484 405 OFFCURVE",
"479 417 OFFCURVE",
"470 426 CURVE",
"460 435 OFFCURVE",
"448 440 OFFCURVE",
"435 440 CURVE SMOOTH"
);
},
{
closed = 1;
nodes = (
"200 295 OFFCURVE",
"228 298 OFFCURVE",
"257 298 CURVE SMOOTH",
"286 298 OFFCURVE",
"313 295 OFFCURVE",
"339 288 CURVE SMOOTH",
"364 281 OFFCURVE",
"387 271 OFFCURVE",
"406 259 CURVE",
"425 246 OFFCURVE",
"441 232 OFFCURVE",
"452 215 CURVE SMOOTH",
"463 198 OFFCURVE",
"468 181 OFFCURVE",
"468 162 CURVE SMOOTH",
"468 143 OFFCURVE",
"463 126 OFFCURVE",
"452 110 CURVE SMOOTH",
"441 93 OFFCURVE",
"425 79 OFFCURVE",
"406 67 CURVE",
"387 54 OFFCURVE",
"364 45 OFFCURVE",
"339 38 CURVE SMOOTH",
"313 31 OFFCURVE",
"286 27 OFFCURVE",
"257 27 CURVE SMOOTH",
"228 27 OFFCURVE",
"200 31 OFFCURVE",
"174 38 CURVE SMOOTH",
"148 45 OFFCURVE",
"126 54 OFFCURVE",
"107 67 CURVE",
"88 79 OFFCURVE",
"73 93 OFFCURVE",
"62 110 CURVE SMOOTH",
"51 126 OFFCURVE",
"45 143 OFFCURVE",
"45 162 CURVE SMOOTH",
"45 181 OFFCURVE",
"51 198 OFFCURVE",
"62 215 CURVE SMOOTH",
"73 232 OFFCURVE",
"88 246 OFFCURVE",
"107 259 CURVE",
"126 271 OFFCURVE",
"148 281 OFFCURVE",
"174 288 CURVE SMOOTH"
);
},
{
closed = 1;
nodes = (
"354 223 OFFCURVE",
"345 226 OFFCURVE",
"335 226 CURVE SMOOTH",
"324 226 OFFCURVE",
"316 223 OFFCURVE",
"309 216 CURVE SMOOTH",
"302 209 OFFCURVE",
"298 200 OFFCURVE",
"298 190 CURVE SMOOTH",
"298 180 OFFCURVE",
"302 172 OFFCURVE",
"309 165 CURVE SMOOTH",
"316 158 OFFCURVE",
"324 154 OFFCURVE",
"335 154 CURVE SMOOTH",
"345 154 OFFCURVE",
"354 158 OFFCURVE",
"361 165 CURVE SMOOTH",
"368 172 OFFCURVE",
"371 180 OFFCURVE",
"371 190 CURVE SMOOTH",
"371 200 OFFCURVE",
"368 209 OFFCURVE",
"361 216 CURVE SMOOTH"
);
},
{
closed = 1;
nodes = (
"203 222 OFFCURVE",
"194 226 OFFCURVE",
"184 226 CURVE SMOOTH",
"174 226 OFFCURVE",
"165 222 OFFCURVE",
"158 215 CURVE SMOOTH",
"151 208 OFFCURVE",
"147 199 OFFCURVE",
"147 190 CURVE SMOOTH",
"147 180 OFFCURVE",
"151 172 OFFCURVE",
"158 165 CURVE SMOOTH",
"165 158 OFFCURVE",
"174 154 OFFCURVE",
"184 154 CURVE SMOOTH",
"194 154 OFFCURVE",
"203 158 OFFCURVE",
"210 165 CURVE SMOOTH",
"217 172 OFFCURVE",
"220 180 OFFCURVE",
"220 190 CURVE SMOOTH",
"220 199 OFFCURVE",
"217 208 OFFCURVE",
"210 215 CURVE SMOOTH"
);
},
{
closed = 1;
nodes = (
"484 179 OFFCURVE",
"484 179 OFFCURVE",
"483 179 CURVE",
"484 179 OFFCURVE",
"484 179 OFFCURVE",
"484 179 CURVE SMOOTH"
);
}
);
width = 512;
}
);
},
{
glyphname = uniE051;
lastChange = "2013-02-02 00:18:52 +0100";
layers = (
{
layerId = "457A0151-1F15-493B-A022-4CDC4EBB0E42";
name = Regular;
paths = (
{
closed = 1;
nodes = (
"388 -7 OFFCURVE",
"328 -32 OFFCURVE",
"257 -32 CURVE SMOOTH",
"186 -32 OFFCURVE",
"126 -7 OFFCURVE",
"76 43 CURVE SMOOTH",
"26 93 OFFCURVE",
"1 153 OFFCURVE",
"1 224 CURVE SMOOTH",
"1 295 OFFCURVE",
"26 355 OFFCURVE",
"76 405 CURVE SMOOTH",
"126 455 OFFCURVE",
"186 480 OFFCURVE",
"257 480 CURVE SMOOTH",
"328 480 OFFCURVE",
"388 455 OFFCURVE",
"438 405 CURVE SMOOTH",
"488 355 OFFCURVE",
"513 295 OFFCURVE",
"513 224 CURVE SMOOTH",
"513 153 OFFCURVE",
"488 93 OFFCURVE",
"438 43 CURVE SMOOTH"
);
},
{
closed = 1;
nodes = (
"323 340 OFFCURVE",
"292 352 OFFCURVE",
"257 352 CURVE SMOOTH",
"222 352 OFFCURVE",
"192 340 OFFCURVE",
"167 315 CURVE SMOOTH",
"142 290 OFFCURVE",
"129 259 OFFCURVE",
"129 224 CURVE SMOOTH",
"129 189 OFFCURVE",
"142 159 OFFCURVE",
"167 134 CURVE SMOOTH",
"192 109 OFFCURVE",
"222 96 OFFCURVE",
"257 96 CURVE SMOOTH",
"292 96 OFFCURVE",
"323 109 OFFCURVE",
"348 134 CURVE SMOOTH",
"373 159 OFFCURVE",
"385 189 OFFCURVE",
"385 224 CURVE SMOOTH",
"385 259 OFFCURVE",
"373 290 OFFCURVE",
"348 315 CURVE SMOOTH"
);
}
);
width = 512;
}
);
},
{
glyphname = uniE052;
lastChange = "2013-02-02 00:18:52 +0100";
layers = (
{
layerId = "457A0151-1F15-493B-A022-4CDC4EBB0E42";
name = Regular;
paths = (
{
closed = 1;
nodes = (
"399 462 LINE",
"399 383 LINE",
"326 383 LINE SMOOTH",
"301 383 OFFCURVE",
"277 372 OFFCURVE",
"256 350 CURVE SMOOTH",
"239 333 OFFCURVE",
"212 298 OFFCURVE",
"174 243 CURVE SMOOTH",
"130 180 OFFCURVE",
"106 147 OFFCURVE",
"103 143 CURVE",
"97 136 OFFCURVE",
"93 133 OFFCURVE",
"91 132 CURVE SMOOTH",
"89 131 OFFCURVE",
"83 130 OFFCURVE",
"74 130 CURVE SMOOTH",
"1 130 LINE",
"0 130 LINE",
"0 67 LINE",
"1 67 LINE",
"74 67 LINE SMOOTH",
"105 67 OFFCURVE",
"130 78 OFFCURVE",
"150 101 CURVE SMOOTH",
"156 108 OFFCURVE",
"162 115 OFFCURVE",
"169 124 CURVE",
"175 133 OFFCURVE",
"184 146 OFFCURVE",
"196 164 CURVE SMOOTH",
"208 182 OFFCURVE",
"218 196 OFFCURVE",
"226 207 CURVE SMOOTH",
"262 259 OFFCURVE",
"287 292 OFFCURVE",
"300 305 CURVE SMOOTH",
"307 312 OFFCURVE",
"312 317 OFFCURVE",
"315 318 CURVE",
"317 319 OFFCURVE",
"321 320 OFFCURVE",
"326 320 CURVE SMOOTH",
"399 320 LINE",
"399 237 LINE",
"512 349 LINE"
);
},
{
closed = 1;
nodes = (
"0 383 LINE",
"0 320 LINE",
"1 320 LINE",
"74 320 LINE SMOOTH",
"83 320 OFFCURVE",
"89 320 OFFCURVE",
"91 319 CURVE SMOOTH",
"93 318 OFFCURVE",
"97 313 OFFCURVE",
"103 306 CURVE SMOOTH",
"109 299 OFFCURVE",
"122 282 OFFCURVE",
"142 253 CURVE",
"143 254 OFFCURVE",
"144 255 OFFCURVE",
"145 257 CURVE",
"146 258 OFFCURVE",
"147 260 OFFCURVE",
"148 261 CURVE",
"158 275 OFFCURVE",
"167 287 OFFCURVE",
"174 297 CURVE",
"175 298 OFFCURVE",
"176 300 OFFCURVE",
"178 303 CURVE",
"179 305 OFFCURVE",
"180 307 OFFCURVE",
"181 308 CURVE",
"168 326 OFFCURVE",
"158 339 OFFCURVE",
"150 348 CURVE SMOOTH",
"130 371 OFFCURVE",
"105 383 OFFCURVE",
"74 383 CURVE SMOOTH",
"1 383 LINE"
);
},
{
closed = 1;
nodes = (
"399 211 LINE",
"399 130 LINE",
"326 130 LINE SMOOTH",
"321 130 OFFCURVE",
"317 131 OFFCURVE",
"315 132 CURVE",
"312 133 OFFCURVE",
"307 138 OFFCURVE",
"300 145 CURVE SMOOTH",
"291 154 OFFCURVE",
"277 172 OFFCURVE",
"258 198 CURVE",
"257 197 OFFCURVE",
"256 196 OFFCURVE",
"255 194 CURVE SMOOTH",
"254 192 OFFCURVE",
"252 190 OFFCURVE",
"251 189 CURVE",
"245 180 OFFCURVE",
"235 165 OFFCURVE",
"220 143 CURVE",
"234 124 OFFCURVE",
"246 110 OFFCURVE",
"256 100 CURVE SMOOTH",
"277 78 OFFCURVE",
"301 67 OFFCURVE",
"326 67 CURVE SMOOTH",
"399 67 LINE",
"399 -14 LINE",
"512 99 LINE"
);
}
);
width = 512;
}
);
},
{
glyphname = uniE053;
lastChange = "2013-02-02 00:18:52 +0100";
layers = (
{
layerId = "457A0151-1F15-493B-A022-4CDC4EBB0E42";
name = Regular;
paths = (
{
closed = 1;
nodes = (
"387 455 OFFCURVE",
"327 480 OFFCURVE",
"256 480 CURVE SMOOTH",
"185 480 OFFCURVE",
"125 455 OFFCURVE",
"75 405 CURVE SMOOTH",
"25 355 OFFCURVE",
"0 295 OFFCURVE",
"0 224 CURVE SMOOTH",
"0 153 OFFCURVE",
"25 93 OFFCURVE",
"75 43 CURVE SMOOTH",
"125 -7 OFFCURVE",
"185 -32 OFFCURVE",
"256 -32 CURVE SMOOTH",
"327 -32 OFFCURVE",
"387 -7 OFFCURVE",
"437 43 CURVE SMOOTH",
"487 93 OFFCURVE",
"512 153 OFFCURVE",
"512 224 CURVE SMOOTH",
"512 295 OFFCURVE",
"487 355 OFFCURVE",
"437 405 CURVE SMOOTH"
);
},
{
closed = 1;
nodes = (
"247 309 LINE",
"227 304 OFFCURVE",
"212 299 OFFCURVE",
"202 292 CURVE",
"191 285 OFFCURVE",
"187 273 OFFCURVE",
"188 256 CURVE",
"226 256 LINE",
"226 122 LINE",
"112 122 LINE",
"112 248 LINE SMOOTH",
"112 267 OFFCURVE",
"115 283 OFFCURVE",
"121 297 CURVE",
"126 311 OFFCURVE",
"133 322 OFFCURVE",
"141 329 CURVE",
"148 336 OFFCURVE",
"158 342 OFFCURVE",
"171 347 CURVE SMOOTH",
"184 352 OFFCURVE",
"194 355 OFFCURVE",
"203 356 CURVE SMOOTH",
"212 357 OFFCURVE",
"223 359 OFFCURVE",
"236 360 CURVE"
);
},
{
closed = 1;
nodes = (
"400 309 LINE",
"380 304 OFFCURVE",
"365 299 OFFCURVE",
"355 292 CURVE",
"344 285 OFFCURVE",
"340 273 OFFCURVE",
"341 256 CURVE",
"379 256 LINE",
"379 122 LINE",
"265 122 LINE",
"265 248 LINE SMOOTH",
"265 267 OFFCURVE",
"268 283 OFFCURVE",
"274 297 CURVE",
"279 311 OFFCURVE",
"286 322 OFFCURVE",
"294 329 CURVE",
"301 336 OFFCURVE",
"311 342 OFFCURVE",
"324 347 CURVE SMOOTH",
"337 352 OFFCURVE",
"347 355 OFFCURVE",
"356 356 CURVE SMOOTH",
"365 357 OFFCURVE",
"376 359 OFFCURVE",
"389 360 CURVE"
);
}
);
width = 512;
}
);
},
{
glyphname = uniE054;
lastChange = "2013-02-02 00:18:52 +0100";
layers = (
{
layerId = "457A0151-1F15-493B-A022-4CDC4EBB0E42";
name = Regular;
paths = (
{
closed = 1;
nodes = (
"223 435 LINE",
"206 434 OFFCURVE",
"193 433 OFFCURVE",
"182 432 CURVE SMOOTH",
"171 431 OFFCURVE",
"157 428 OFFCURVE",
"140 424 CURVE SMOOTH",
"123 420 OFFCURVE",
"108 415 OFFCURVE",
"97 410 CURVE SMOOTH",
"86 405 OFFCURVE",
"74 397 OFFCURVE",
"61 387 CURVE SMOOTH",
"48 377 OFFCURVE",
"37 366 OFFCURVE",
"29 353 CURVE SMOOTH",
"21 340 OFFCURVE",
"15 323 OFFCURVE",
"10 304 CURVE SMOOTH",
"5 284 OFFCURVE",
"2 262 OFFCURVE",
"2 237 CURVE SMOOTH",
"2 13 LINE",
"204 13 LINE",
"204 252 LINE",
"137 252 LINE",
"136 267 OFFCURVE",
"138 281 OFFCURVE",
"143 292 CURVE SMOOTH",
"148 303 OFFCURVE",
"156 312 OFFCURVE",
"167 319 CURVE SMOOTH",
"178 326 OFFCURVE",
"190 331 OFFCURVE",
"201 335 CURVE",
"212 338 OFFCURVE",
"225 342 OFFCURVE",
"242 345 CURVE"
);
},
{
closed = 1;
nodes = (
"494 435 LINE",
"477 434 OFFCURVE",
"464 433 OFFCURVE",
"453 432 CURVE SMOOTH",
"442 431 OFFCURVE",
"428 428 OFFCURVE",
"411 424 CURVE SMOOTH",
"394 420 OFFCURVE",
"379 415 OFFCURVE",
"368 410 CURVE SMOOTH",
"357 405 OFFCURVE",
"345 397 OFFCURVE",
"332 387 CURVE SMOOTH",
"319 377 OFFCURVE",
"308 366 OFFCURVE",
"300 353 CURVE SMOOTH",
"292 340 OFFCURVE",
"286 323 OFFCURVE",
"281 304 CURVE SMOOTH",
"276 284 OFFCURVE",
"273 262 OFFCURVE",
"273 237 CURVE SMOOTH",
"273 13 LINE",
"475 13 LINE",
"475 252 LINE",
"408 252 LINE",
"407 267 OFFCURVE",
"409 281 OFFCURVE",
"414 292 CURVE SMOOTH",
"419 303 OFFCURVE",
"427 312 OFFCURVE",
"438 319 CURVE SMOOTH",
"449 326 OFFCURVE",
"461 331 OFFCURVE",
"472 335 CURVE",
"483 338 OFFCURVE",
"496 342 OFFCURVE",
"513 345 CURVE"
);
}
);
width = 512;
}
);
},
{
glyphname = uniE055;
lastChange = "2013-02-02 00:18:52 +0100";
layers = (
{
layerId = "457A0151-1F15-493B-A022-4CDC4EBB0E42";
name = Regular;
paths = (
{
closed = 1;
nodes = (
"387 455 OFFCURVE",
"327 480 OFFCURVE",
"256 480 CURVE SMOOTH",
"185 480 OFFCURVE",
"125 455 OFFCURVE",
"75 405 CURVE SMOOTH",
"25 355 OFFCURVE",
"0 295 OFFCURVE",
"0 224 CURVE SMOOTH",
"0 153 OFFCURVE",
"25 93 OFFCURVE",
"75 43 CURVE SMOOTH",
"125 -7 OFFCURVE",
"185 -32 OFFCURVE",
"256 -32 CURVE SMOOTH",
"327 -32 OFFCURVE",
"387 -7 OFFCURVE",
"437 43 CURVE SMOOTH",
"487 93 OFFCURVE",
"512 153 OFFCURVE",
"512 224 CURVE SMOOTH",
"512 295 OFFCURVE",
"487 355 OFFCURVE",
"437 405 CURVE SMOOTH"
);
},
{
closed = 1;
nodes = (
"282 416 OFFCURVE",
"307 407 OFFCURVE",
"325 388 CURVE SMOOTH",
"342 371 OFFCURVE",
"350 350 OFFCURVE",
"350 326 CURVE SMOOTH",
"350 313 OFFCURVE",
"349 303 OFFCURVE",
"347 296 CURVE",
"344 288 OFFCURVE",
"339 277 OFFCURVE",
"330 264 CURVE",
"329 262 OFFCURVE",
"321 252 OFFCURVE",
"307 235 CURVE SMOOTH",
"293 218 OFFCURVE",
"283 203 OFFCURVE",
"278 190 CURVE",
"272 177 OFFCURVE",
"270 163 OFFCURVE",
"273 149 CURVE",
"237 150 LINE",
"230 167 OFFCURVE",
"226 183 OFFCURVE",
"227 200 CURVE",
"227 217 OFFCURVE",
"230 232 OFFCURVE",
"237 246 CURVE SMOOTH",
"241 254 OFFCURVE",
"246 264 OFFCURVE",
"253 275 CURVE SMOOTH",
"260 286 OFFCURVE",
"265 295 OFFCURVE",
"268 303 CURVE",
"273 314 OFFCURVE",
"271 326 OFFCURVE",
"263 337 CURVE",
"254 348 OFFCURVE",
"244 353 OFFCURVE",
"233 353 CURVE",
"216 354 OFFCURVE",
"204 346 OFFCURVE",
"197 330 CURVE",
"168 330 LINE",
"163 333 OFFCURVE",
"161 342 OFFCURVE",
"162 359 CURVE SMOOTH",
"163 372 OFFCURVE",
"174 384 OFFCURVE",
"195 397 CURVE SMOOTH",
"216 410 OFFCURVE",
"235 416 OFFCURVE",
"251 416 CURVE SMOOTH"
);
},
{
closed = 1;
nodes = (
"231 115 OFFCURVE",
"241 119 OFFCURVE",
"253 119 CURVE SMOOTH",
"265 119 OFFCURVE",
"275 115 OFFCURVE",
"284 107 CURVE",
"293 98 OFFCURVE",
"297 88 OFFCURVE",
"297 76 CURVE SMOOTH",
"297 64 OFFCURVE",
"293 54 OFFCURVE",
"284 45 CURVE SMOOTH",
"275 36 OFFCURVE",
"265 32 OFFCURVE",
"253 32 CURVE SMOOTH",
"241 32 OFFCURVE",
"231 36 OFFCURVE",
"223 45 CURVE",
"214 54 OFFCURVE",
"210 64 OFFCURVE",
"210 76 CURVE SMOOTH",
"210 88 OFFCURVE",
"214 98 OFFCURVE",
"223 107 CURVE SMOOTH"
);
}
);
width = 512;
}
);
},
{
glyphname = uniE056;
lastChange = "2013-02-02 00:18:52 +0100";
layers = (
{
layerId = "457A0151-1F15-493B-A022-4CDC4EBB0E42";
name = Regular;
paths = (
{
closed = 1;
nodes = (
"229 480 OFFCURVE",
"204 472 OFFCURVE",
"176 455 CURVE SMOOTH",
"147 438 OFFCURVE",
"133 422 OFFCURVE",
"132 405 CURVE SMOOTH",
"130 382 OFFCURVE",
"133 369 OFFCURVE",
"140 365 CURVE",
"179 365 LINE",
"184 376 OFFCURVE",
"190 385 OFFCURVE",
"197 390 CURVE SMOOTH",
"204 395 OFFCURVE",
"214 397 OFFCURVE",
"227 397 CURVE SMOOTH",
"242 397 OFFCURVE",
"255 390 OFFCURVE",
"266 375 CURVE SMOOTH",
"277 360 OFFCURVE",
"280 344 OFFCURVE",
"273 329 CURVE SMOOTH",
"268 318 OFFCURVE",
"262 306 OFFCURVE",
"253 291 CURVE SMOOTH",
"244 276 OFFCURVE",
"237 264 OFFCURVE",
"232 253 CURVE SMOOTH",
"223 234 OFFCURVE",
"219 214 OFFCURVE",
"218 192 CURVE SMOOTH",
"217 170 OFFCURVE",
"221 148 OFFCURVE",
"231 125 CURVE",
"279 124 LINE",
"276 142 OFFCURVE",
"278 160 OFFCURVE",
"286 178 CURVE SMOOTH",
"293 195 OFFCURVE",
"306 216 OFFCURVE",
"325 239 CURVE SMOOTH",
"344 262 OFFCURVE",
"354 274 OFFCURVE",
"355 277 CURVE",
"367 295 OFFCURVE",
"375 309 OFFCURVE",
"378 320 CURVE SMOOTH",
"381 330 OFFCURVE",
"383 343 OFFCURVE",
"383 360 CURVE SMOOTH",
"383 392 OFFCURVE",
"372 420 OFFCURVE",
"349 443 CURVE SMOOTH",
"325 468 OFFCURVE",
"292 480 OFFCURVE",
"251 480 CURVE SMOOTH"
);
},
{
closed = 1;
nodes = (
"283 78 OFFCURVE",
"269 84 OFFCURVE",
"253 84 CURVE SMOOTH",
"237 84 OFFCURVE",
"223 78 OFFCURVE",
"212 67 CURVE SMOOTH",
"201 56 OFFCURVE",
"195 42 OFFCURVE",
"195 26 CURVE SMOOTH",
"195 10 OFFCURVE",
"201 -4 OFFCURVE",
"212 -15 CURVE SMOOTH",
"223 -26 OFFCURVE",
"237 -32 OFFCURVE",
"253 -32 CURVE SMOOTH",
"269 -32 OFFCURVE",
"283 -26 OFFCURVE",
"294 -15 CURVE SMOOTH",
"305 -4 OFFCURVE",
"311 10 OFFCURVE",
"311 26 CURVE SMOOTH",
"311 42 OFFCURVE",
"305 56 OFFCURVE",
"294 67 CURVE SMOOTH"
);
}
);
width = 512;
}
);
},
{
glyphname = uniE057;
lastChange = "2013-02-02 00:18:52 +0100";
layers = (
{
layerId = "457A0151-1F15-493B-A022-4CDC4EBB0E42";
name = Regular;
paths = (
{
closed = 1;
nodes = (
"0 -32 LINE",
"0 201 LINE",
"233 201 LINE",
"233 -32 LINE"
);
},
{
closed = 1;
nodes = (
"0 247 LINE",
"0 480 LINE",
"233 480 LINE",
"233 247 LINE"
);
},
{
closed = 1;
nodes = (
"46 14 LINE",
"186 14 LINE",
"186 154 LINE",
"46 154 LINE"
);
},
{
closed = 1;
nodes = (
"46 294 LINE",
"186 294 LINE",
"186 434 LINE",
"46 434 LINE"
);
},
{
closed = 1;
nodes = (
"93 61 LINE",
"93 108 LINE",
"140 108 LINE",
"140 61 LINE"
);
},
{
closed = 1;
nodes = (
"93 340 LINE",
"93 386 LINE",
"140 386 LINE",
"140 340 LINE"
);
},
{
closed = 1;
nodes = (
"279 -32 LINE",
"279 201 LINE",
"418 201 LINE",
"418 154 LINE",
"466 154 LINE",
"466 201 LINE",
"512 201 LINE",
"512 61 LINE",
"372 61 LINE",
"372 107 LINE",
"326 107 LINE",
"326 -32 LINE"
);
},
{
closed = 1;
nodes = (
"279 247 LINE",
"279 480 LINE",
"512 480 LINE",
"512 247 LINE"
);
},
{
closed = 1;
nodes = (
"326 294 LINE",
"466 294 LINE",
"466 434 LINE",
"326 434 LINE"
);
},
{
closed = 1;
nodes = (
"372 -32 LINE",
"372 14 LINE",
"418 14 LINE",
"418 -32 LINE"
);
},
{
closed = 1;
nodes = (
"372 340 LINE",
"372 386 LINE",
"418 386 LINE",
"418 340 LINE"
);
},
{
closed = 1;
nodes = (
"466 -32 LINE",
"466 14 LINE",
"512 14 LINE",
"512 -32 LINE"
);
}
);
width = 512;
}
);
},
{
glyphname = uniE058;
lastChange = "2013-02-02 00:18:52 +0100";
layers = (
{
layerId = "457A0151-1F15-493B-A022-4CDC4EBB0E42";
name = Regular;
paths = (
{
closed = 1;
nodes = (
"157 445 LINE",
"157 367 LINE",
"137 367 LINE",
"17 316 LINE",
"495 316 LINE",
"375 367 LINE",
"355 367 LINE",
"355 445 LINE"
);
},
{
closed = 1;
nodes = (
"0 287 LINE",
"0 131 LINE",
"79 131 LINE",
"51 -5 LINE",
"461 -5 LINE",
"433 131 LINE",
"512 131 LINE",
"512 287 LINE"
);
},
{
closed = 1;
nodes = (
"124 228 LINE",
"388 228 LINE",
"428 33 LINE",
"84 33 LINE"
);
}
);
width = 512;
}
);
},
{
glyphname = uniE059;
lastChange = "2013-02-02 00:18:52 +0100";
layers = (
{
layerId = "457A0151-1F15-493B-A022-4CDC4EBB0E42";
name = Regular;
paths = (
{
closed = 1;
nodes = (
"387 455 OFFCURVE",
"327 480 OFFCURVE",
"256 480 CURVE SMOOTH",
"185 480 OFFCURVE",
"125 455 OFFCURVE",
"75 405 CURVE SMOOTH",
"25 355 OFFCURVE",
"0 295 OFFCURVE",
"0 224 CURVE SMOOTH",
"0 153 OFFCURVE",
"25 93 OFFCURVE",
"75 43 CURVE SMOOTH",
"125 -7 OFFCURVE",
"185 -32 OFFCURVE",
"256 -32 CURVE SMOOTH",
"327 -32 OFFCURVE",
"387 -7 OFFCURVE",
"437 43 CURVE SMOOTH",
"487 93 OFFCURVE",
"512 153 OFFCURVE",
"512 224 CURVE SMOOTH",
"512 295 OFFCURVE",
"487 355 OFFCURVE",
"437 405 CURVE SMOOTH"
);
},
{
closed = 1;
nodes = (
"215 368 LINE",
"297 368 LINE",
"297 265 LINE",
"400 265 LINE",
"400 183 LINE",
"297 183 LINE",
"297 80 LINE",
"215 80 LINE",
"215 183 LINE",
"112 183 LINE",
"112 265 LINE",
"215 265 LINE"
);
}
);
width = 512;
}
);
},
{
glyphname = uniE05A;
lastChange = "2013-02-02 00:18:52 +0100";
layers = (
{
layerId = "457A0151-1F15-493B-A022-4CDC4EBB0E42";
name = Regular;
paths = (
{
closed = 1;
nodes = (
"184 480 LINE",
"184 296 LINE",
"0 296 LINE",
"0 152 LINE",
"184 152 LINE",
"184 -32 LINE",
"328 -32 LINE",
"328 152 LINE",
"512 152 LINE",
"512 296 LINE",
"328 296 LINE",
"328 480 LINE"
);
}
);
width = 512;
}
);
},
{
glyphname = uniE05B;
lastChange = "2013-02-02 00:18:52 +0100";
layers = (
{
layerId = "457A0151-1F15-493B-A022-4CDC4EBB0E42";
name = Regular;
paths = (
{
closed = 1;
nodes = (
"387 455 OFFCURVE",
"327 480 OFFCURVE",
"256 480 CURVE SMOOTH",
"185 480 OFFCURVE",
"125 455 OFFCURVE",
"75 405 CURVE SMOOTH",
"25 355 OFFCURVE",
"0 295 OFFCURVE",
"0 224 CURVE SMOOTH",
"0 153 OFFCURVE",
"25 93 OFFCURVE",
"75 43 CURVE SMOOTH",
"125 -7 OFFCURVE",
"185 -32 OFFCURVE",
"256 -32 CURVE SMOOTH",
"327 -32 OFFCURVE",
"387 -7 OFFCURVE",
"437 43 CURVE SMOOTH",
"487 93 OFFCURVE",
"512 153 OFFCURVE",
"512 224 CURVE SMOOTH",
"512 295 OFFCURVE",
"487 355 OFFCURVE",
"437 405 CURVE SMOOTH"
);
},
{
closed = 1;
nodes = (
"156 402 OFFCURVE",
"202 421 OFFCURVE",
"256 421 CURVE SMOOTH",
"310 421 OFFCURVE",
"356 402 OFFCURVE",
"395 363 CURVE SMOOTH",
"434 324 OFFCURVE",
"453 278 OFFCURVE",
"453 224 CURVE SMOOTH",
"453 170 OFFCURVE",
"434 124 OFFCURVE",
"395 85 CURVE SMOOTH",
"356 46 OFFCURVE",
"310 27 OFFCURVE",
"256 27 CURVE SMOOTH",
"202 27 OFFCURVE",
"156 46 OFFCURVE",
"117 85 CURVE SMOOTH",
"78 124 OFFCURVE",
"59 170 OFFCURVE",
"59 224 CURVE SMOOTH",
"59 278 OFFCURVE",
"78 324 OFFCURVE",
"117 363 CURVE SMOOTH"
);
},
{
closed = 1;
nodes = (
"192 352 LINE",
"192 96 LINE",
"384 224 LINE"
);
}
);
width = 512;
}
);
},
{
glyphname = uniE05C;
lastChange = "2013-02-02 00:18:52 +0100";
layers = (
{
layerId = "457A0151-1F15-493B-A022-4CDC4EBB0E42";
name = Regular;
paths = (
{
closed = 1;
nodes = (
"388 -7 OFFCURVE",
"328 -32 OFFCURVE",
"257 -32 CURVE SMOOTH",
"186 -32 OFFCURVE",
"126 -7 OFFCURVE",
"76 43 CURVE SMOOTH",
"26 93 OFFCURVE",
"1 153 OFFCURVE",
"1 224 CURVE SMOOTH",
"1 295 OFFCURVE",
"26 355 OFFCURVE",
"76 405 CURVE SMOOTH",
"126 455 OFFCURVE",
"186 480 OFFCURVE",
"257 480 CURVE SMOOTH",
"328 480 OFFCURVE",
"388 455 OFFCURVE",
"438 405 CURVE SMOOTH",
"488 355 OFFCURVE",
"513 295 OFFCURVE",
"513 224 CURVE SMOOTH",
"513 153 OFFCURVE",
"488 93 OFFCURVE",
"438 43 CURVE SMOOTH"
);
},
{
closed = 1;
nodes = (
"193 352 LINE",
"193 96 LINE",
"385 224 LINE"
);
}
);
width = 512;
}
);
},
{
glyphname = uniE05D;
lastChange = "2013-02-02 00:18:52 +0100";
layers = (
{
layerId = "457A0151-1F15-493B-A022-4CDC4EBB0E42";
name = Regular;
paths = (
{
closed = 1;
nodes = (
"153 380 LINE",
"153 68 LINE",
"361 224 LINE"
);
}
);
width = 512;
}
);
},
{
glyphname = uniE05E;
lastChange = "2013-02-02 00:18:52 +0100";
layers = (
{
layerId = "457A0151-1F15-493B-A022-4CDC4EBB0E42";
name = Regular;
paths = (
{
closed = 1;
nodes = (
"138 -17 LINE",
"189 -17 LINE",
"304 188 LINE",
"436 188 LINE SMOOTH",
"438 188 OFFCURVE",
"441 188 OFFCURVE",
"445 189 CURVE",
"448 189 OFFCURVE",
"454 190 OFFCURVE",
"463 191 CURVE SMOOTH",
"472 192 OFFCURVE",
"479 193 OFFCURVE",
"486 196 CURVE",
"493 198 OFFCURVE",
"499 202 OFFCURVE",
"505 207 CURVE",
"510 212 OFFCURVE",
"513 217 OFFCURVE",
"513 224 CURVE SMOOTH",
"513 235 OFFCURVE",
"507 243 OFFCURVE",
"494 249 CURVE SMOOTH",
"481 255 OFFCURVE",
"468 258 OFFCURVE",
"455 259 CURVE SMOOTH",
"436 260 LINE",
"304 260 LINE",
"189 465 LINE",
"138 465 LINE",
"202 260 LINE",
"110 260 LINE",
"52 311 LINE",
"1 311 LINE",
"42 224 LINE",
"1 137 LINE",
"52 137 LINE",
"110 188 LINE",
"202 188 LINE"
);
}
);
width = 512;
}
);
},
{
glyphname = uniE05F;
lastChange = "2013-02-02 00:18:52 +0100";
layers = (
{
layerId = "457A0151-1F15-493B-A022-4CDC4EBB0E42";
name = Regular;
paths = (
{
closed = 1;
nodes = (
"332 479 OFFCURVE",
"393 453 OFFCURVE",
"441 404 CURVE SMOOTH",
"488 354 OFFCURVE",
"512 294 OFFCURVE",
"513 224 CURVE SMOOTH",
"512 152 OFFCURVE",
"486 92 OFFCURVE",
"436 43 CURVE SMOOTH",
"386 -6 OFFCURVE",
"326 -31 OFFCURVE",
"257 -32 CURVE SMOOTH",
"233 -32 OFFCURVE",
"209 -28 OFFCURVE",
"185 -21 CURVE",
"190 -14 OFFCURVE",
"194 -5 OFFCURVE",
"199 4 CURVE",
"204 15 OFFCURVE",
"211 37 OFFCURVE",
"219 68 CURVE SMOOTH",
"221 77 OFFCURVE",
"224 88 OFFCURVE",
"228 103 CURVE",
"233 95 OFFCURVE",
"241 88 OFFCURVE",
"252 81 CURVE",
"282 67 OFFCURVE",
"314 68 OFFCURVE",
"347 85 CURVE",
"382 105 OFFCURVE",
"406 136 OFFCURVE",
"419 178 CURVE SMOOTH",
"431 222 OFFCURVE",
"430 263 OFFCURVE",
"415 301 CURVE SMOOTH",
"400 338 OFFCURVE",
"373 365 OFFCURVE",
"334 382 CURVE",
"285 396 OFFCURVE",
"238 395 OFFCURVE",
"192 378 CURVE SMOOTH",
"146 361 OFFCURVE",
"114 331 OFFCURVE",
"96 290 CURVE",
"91 275 OFFCURVE",
"89 260 OFFCURVE",
"88 245 CURVE SMOOTH",
"87 230 OFFCURVE",
"87 215 OFFCURVE",
"89 201 CURVE SMOOTH",
"91 186 OFFCURVE",
"96 173 OFFCURVE",
"104 162 CURVE SMOOTH",
"112 151 OFFCURVE",
"123 142 OFFCURVE",
"136 136 CURVE",
"139 135 OFFCURVE",
"142 135 OFFCURVE",
"144 136 CURVE",
"147 137 OFFCURVE",
"149 143 OFFCURVE",
"152 152 CURVE SMOOTH",
"155 161 OFFCURVE",
"156 168 OFFCURVE",
"155 171 CURVE",
"154 172 OFFCURVE",
"153 175 OFFCURVE",
"151 178 CURVE",
"137 201 OFFCURVE",
"132 225 OFFCURVE",
"137 250 CURVE SMOOTH",
"142 275 OFFCURVE",
"152 296 OFFCURVE",
"168 313 CURVE",
"193 335 OFFCURVE",
"222 347 OFFCURVE",
"255 349 CURVE SMOOTH",
"288 351 OFFCURVE",
"316 342 OFFCURVE",
"339 322 CURVE",
"352 307 OFFCURVE",
"360 290 OFFCURVE",
"364 269 CURVE",
"367 248 OFFCURVE",
"367 229 OFFCURVE",
"364 210 CURVE",
"360 191 OFFCURVE",
"353 173 OFFCURVE",
"344 156 CURVE",
"327 130 OFFCURVE",
"308 117 OFFCURVE",
"285 116 CURVE",
"272 117 OFFCURVE",
"261 122 OFFCURVE",
"253 132 CURVE",
"244 141 OFFCURVE",
"242 152 OFFCURVE",
"245 165 CURVE",
"246 172 OFFCURVE",
"250 187 OFFCURVE",
"257 208 CURVE SMOOTH",
"264 229 OFFCURVE",
"267 245 OFFCURVE",
"268 256 CURVE",
"266 281 OFFCURVE",
"254 294 OFFCURVE",
"233 295 CURVE",
"216 293 OFFCURVE",
"204 286 OFFCURVE",
"196 273 CURVE SMOOTH",
"188 260 OFFCURVE",
"184 245 OFFCURVE",
"183 228 CURVE",
"185 209 OFFCURVE",
"188 195 OFFCURVE",
"192 188 CURVE",
"185 158 OFFCURVE",
"179 134 OFFCURVE",
"175 116 CURVE SMOOTH",
"174 111 OFFCURVE",
"170 97 OFFCURVE",
"164 73 CURVE SMOOTH",
"158 49 OFFCURVE",
"155 31 OFFCURVE",
"154 18 CURVE",
"154 8 OFFCURVE",
"154 -1 OFFCURVE",
"154 -10 CURVE",
"107 12 OFFCURVE",
"69 44 OFFCURVE",
"42 86 CURVE SMOOTH",
"15 127 OFFCURVE",
"1 173 OFFCURVE",
"1 224 CURVE SMOOTH",
"2 297 OFFCURVE",
"28 357 OFFCURVE",
"78 406 CURVE SMOOTH",
"128 455 OFFCURVE",
"188 479 OFFCURVE",
"257 480 CURVE SMOOTH"
);
}
);
width = 512;
}
);
},
{
glyphname = uniE060;
lastChange = "2013-02-02 00:18:52 +0100";
layers = (
{
layerId = "457A0151-1F15-493B-A022-4CDC4EBB0E42";
name = Regular;
paths = (
{
closed = 1;
nodes = (
"0 438 LINE",
"0 10 LINE",
"512 10 LINE",
"512 438 LINE"
);
},
{
closed = 1;
nodes = (
"39 398 LINE",
"473 398 LINE",
"473 50 LINE",
"39 50 LINE"
);
},
{
closed = 1;
nodes = (
"116 348 OFFCURVE",
"106 344 OFFCURVE",
"98 336 CURVE SMOOTH",
"89 327 OFFCURVE",
"85 317 OFFCURVE",
"85 304 CURVE SMOOTH",
"85 293 OFFCURVE",
"89 283 OFFCURVE",
"98 275 CURVE",
"106 266 OFFCURVE",
"116 262 OFFCURVE",
"129 262 CURVE SMOOTH",
"140 262 OFFCURVE",
"150 266 OFFCURVE",
"159 275 CURVE SMOOTH",
"167 283 OFFCURVE",
"171 293 OFFCURVE",
"171 304 CURVE SMOOTH",
"171 317 OFFCURVE",
"167 327 OFFCURVE",
"159 336 CURVE",
"150 344 OFFCURVE",
"140 348 OFFCURVE",
"129 348 CURVE SMOOTH"
);
},
{
closed = 1;
nodes = (
"313 326 LINE",
"214 177 LINE",
"162 221 LINE",
"85 121 LINE",
"85 91 LINE",
"427 91 LINE",
"427 209 LINE"
);
}
);
width = 512;
}
);
},
{
glyphname = uniE061;
lastChange = "2013-02-02 00:18:52 +0100";
layers = (
{
layerId = "457A0151-1F15-493B-A022-4CDC4EBB0E42";
name = Regular;
paths = (
{
closed = 1;
nodes = (
"390 440 LINE",
"428 416 OFFCURVE",
"458 385 OFFCURVE",
"480 347 CURVE SMOOTH",
"502 308 OFFCURVE",
"513 267 OFFCURVE",
"513 224 CURVE SMOOTH",
"513 195 OFFCURVE",
"508 167 OFFCURVE",
"498 141 CURVE",
"390 141 LINE"
);
},
{
closed = 1;
nodes = (
"487 114 LINE",
"467 74 OFFCURVE",
"439 41 OFFCURVE",
"402 16 CURVE SMOOTH",
"365 -9 OFFCURVE",
"324 -24 OFFCURVE",
"280 -28 CURVE SMOOTH",
"234 -31 OFFCURVE",
"191 -24 OFFCURVE",
"152 -7 CURVE",
"152 114 LINE"
);
},
{
closed = 1;
nodes = (
"2 272 OFFCURVE",
"15 316 OFFCURVE",
"40 357 CURVE SMOOTH",
"65 397 OFFCURVE",
"99 428 OFFCURVE",
"140 449 CURVE",
"237 362 LINE",
"10 158 LINE",
"4 181 OFFCURVE",
"1 203 OFFCURVE",
"1 224 CURVE SMOOTH"
);
},
{
closed = 1;
nodes = (
"125 7 LINE",
"76 38 OFFCURVE",
"40 79 OFFCURVE",
"19 130 CURVE",
"125 225 LINE"
);
},
{
closed = 1;
nodes = (
"362 285 LINE",
"167 461 LINE",
"199 472 OFFCURVE",
"229 477 OFFCURVE",
"257 477 CURVE SMOOTH",
"294 477 OFFCURVE",
"329 469 OFFCURVE",
"362 454 CURVE"
);
}
);
width = 512;
}
);
},
{
glyphname = uniE062;
lastChange = "2013-02-02 00:18:52 +0100";
layers = (
{
layerId = "457A0151-1F15-493B-A022-4CDC4EBB0E42";
name = Regular;
paths = (
{
closed = 1;
nodes = (
"387 455 OFFCURVE",
"327 480 OFFCURVE",
"256 480 CURVE SMOOTH",
"185 480 OFFCURVE",
"125 455 OFFCURVE",
"75 405 CURVE SMOOTH",
"25 355 OFFCURVE",
"0 295 OFFCURVE",
"0 224 CURVE SMOOTH",
"0 153 OFFCURVE",
"25 93 OFFCURVE",
"75 43 CURVE SMOOTH",
"125 -7 OFFCURVE",
"185 -32 OFFCURVE",
"256 -32 CURVE SMOOTH",
"327 -32 OFFCURVE",
"387 -7 OFFCURVE",
"437 43 CURVE SMOOTH",
"487 93 OFFCURVE",
"512 153 OFFCURVE",
"512 224 CURVE SMOOTH",
"512 295 OFFCURVE",
"487 355 OFFCURVE",
"437 405 CURVE SMOOTH"
);
},
{
closed = 1;
nodes = (
"119 354 LINE",
"393 354 LINE",
"393 94 LINE",
"119 94 LINE"
);
},
{
closed = 1;
nodes = (
"153 321 LINE",
"153 179 LINE",
"359 179 LINE",
"359 321 LINE"
);
}
);
width = 512;
}
);
},
{
glyphname = uniE063;
lastChange = "2013-02-02 00:18:52 +0100";
layers = (
{
layerId = "457A0151-1F15-493B-A022-4CDC4EBB0E42";
name = Regular;
paths = (
{
closed = 1;
nodes = (
"0 467 LINE",
"0 -19 LINE",
"512 -19 LINE",
"512 467 LINE"
);
},
{
closed = 1;
nodes = (
"63 406 LINE",
"449 406 LINE",
"449 139 LINE",
"63 139 LINE"
);
}
);
width = 512;
}
);
},
{
glyphname = uniE064;
lastChange = "2013-02-02 00:18:52 +0100";
layers = (
{
layerId = "457A0151-1F15-493B-A022-4CDC4EBB0E42";
name = Regular;
paths = (
{
closed = 1;
nodes = (
"387 455 OFFCURVE",
"327 480 OFFCURVE",
"256 480 CURVE SMOOTH",
"185 480 OFFCURVE",
"125 455 OFFCURVE",
"75 405 CURVE SMOOTH",
"25 355 OFFCURVE",
"0 295 OFFCURVE",
"0 224 CURVE SMOOTH",
"0 153 OFFCURVE",
"25 93 OFFCURVE",
"75 43 CURVE SMOOTH",
"125 -7 OFFCURVE",
"185 -32 OFFCURVE",
"256 -32 CURVE SMOOTH",
"327 -32 OFFCURVE",
"387 -7 OFFCURVE",
"437 43 CURVE SMOOTH",
"487 93 OFFCURVE",
"512 153 OFFCURVE",
"512 224 CURVE SMOOTH",
"512 295 OFFCURVE",
"487 355 OFFCURVE",
"437 405 CURVE SMOOTH"
);
},
{
closed = 1;
nodes = (
"169 379 OFFCURVE",
"174 376 OFFCURVE",
"178 370 CURVE",
"213 304 LINE",
"216 295 OFFCURVE",
"215 288 OFFCURVE",
"209 282 CURVE SMOOTH",
"193 266 LINE",
"192 264 OFFCURVE",
"191 262 OFFCURVE",
"191 261 CURVE",
"196 241 OFFCURVE",
"210 221 OFFCURVE",
"232 200 CURVE",
"234 199 OFFCURVE",
"237 196 OFFCURVE",
"242 191 CURVE SMOOTH",
"247 186 OFFCURVE",
"250 183 OFFCURVE",
"253 181 CURVE",
"256 178 OFFCURVE",
"259 175 OFFCURVE",
"264 172 CURVE",
"268 169 OFFCURVE",
"272 166 OFFCURVE",
"277 164 CURVE",
"281 162 OFFCURVE",
"285 161 OFFCURVE",
"289 160 CURVE SMOOTH",
"293 159 OFFCURVE",
"296 159 OFFCURVE",
"298 161 CURVE SMOOTH",
"316 180 LINE",
"325 186 OFFCURVE",
"332 187 OFFCURVE",
"339 183 CURVE SMOOTH",
"402 146 LINE SMOOTH",
"407 143 OFFCURVE",
"409 139 OFFCURVE",
"410 134 CURVE SMOOTH",
"411 129 OFFCURVE",
"409 125 OFFCURVE",
"406 122 CURVE SMOOTH",
"363 78 LINE",
"357 73 OFFCURVE",
"349 70 OFFCURVE",
"339 70 CURVE SMOOTH",
"310 71 OFFCURVE",
"277 83 OFFCURVE",
"240 107 CURVE",
"186 146 OFFCURVE",
"147 189 OFFCURVE",
"123 234 CURVE",
"108 265 OFFCURVE",
"101 290 OFFCURVE",
"102 307 CURVE",
"102 317 OFFCURVE",
"105 325 OFFCURVE",
"111 330 CURVE",
"154 374 LINE SMOOTH",
"157 377 OFFCURVE",
"161 378 OFFCURVE",
"164 378 CURVE"
);
}
);
width = 512;
}
);
},
{
glyphname = uniE065;
lastChange = "2013-02-02 00:18:52 +0100";
layers = (
{
layerId = "457A0151-1F15-493B-A022-4CDC4EBB0E42";
name = Regular;
paths = (
{
closed = 1;
nodes = (
"434 -14 LINE",
"425 -24 OFFCURVE",
"412 -29 OFFCURVE",
"396 -29 CURVE",
"347 -27 OFFCURVE",
"292 -6 OFFCURVE",
"230 34 CURVE",
"141 98 OFFCURVE",
"77 168 OFFCURVE",
"37 244 CURVE",
"12 296 OFFCURVE",
"0 336 OFFCURVE",
"2 365 CURVE",
"2 382 OFFCURVE",
"7 395 OFFCURVE",
"16 404 CURVE SMOOTH",
"88 476 LINE",
"103 489 OFFCURVE",
"116 486 OFFCURVE",
"127 469 CURVE",
"186 359 LINE",
"192 346 OFFCURVE",
"190 334 OFFCURVE",
"179 323 CURVE SMOOTH",
"152 296 LINE",
"151 294 OFFCURVE",
"150 292 OFFCURVE",
"150 289 CURVE",
"159 256 OFFCURVE",
"181 222 OFFCURVE",
"218 188 CURVE",
"221 185 OFFCURVE",
"226 180 OFFCURVE",
"234 173 CURVE",
"242 165 OFFCURVE",
"248 159 OFFCURVE",
"253 155 CURVE SMOOTH",
"258 151 OFFCURVE",
"264 146 OFFCURVE",
"271 141 CURVE SMOOTH",
"278 136 OFFCURVE",
"285 131 OFFCURVE",
"292 128 CURVE SMOOTH",
"299 125 OFFCURVE",
"306 122 OFFCURVE",
"313 121 CURVE",
"319 119 OFFCURVE",
"324 119 OFFCURVE",
"327 122 CURVE SMOOTH",
"358 154 LINE",
"371 164 OFFCURVE",
"384 166 OFFCURVE",
"395 159 CURVE",
"396 159 LINE",
"500 97 LINE SMOOTH",
"508 92 OFFCURVE",
"513 86 OFFCURVE",
"514 78 CURVE SMOOTH",
"515 70 OFFCURVE",
"512 63 OFFCURVE",
"506 58 CURVE"
);
}
);
width = 512;
}
);
},
{
glyphname = uniE066;
lastChange = "2013-02-02 00:18:52 +0100";
layers = (
{
layerId = "457A0151-1F15-493B-A022-4CDC4EBB0E42";
name = Regular;
paths = (
{
closed = 1;
nodes = (
"308 364 LINE SMOOTH",
"316 364 OFFCURVE",
"323 362 OFFCURVE",
"330 359 CURVE",
"351 349 OFFCURVE",
"361 333 OFFCURVE",
"361 310 CURVE SMOOTH",
"361 165 LINE",
"359 154 OFFCURVE",
"354 150 OFFCURVE",
"345 151 CURVE SMOOTH",
"336 152 OFFCURVE",
"331 156 OFFCURVE",
"331 165 CURVE SMOOTH",
"331 302 LINE",
"330 305 OFFCURVE",
"326 307 OFFCURVE",
"321 306 CURVE SMOOTH",
"316 305 OFFCURVE",
"313 304 OFFCURVE",
"313 302 CURVE SMOOTH",
"313 -11 LINE",
"312 -21 OFFCURVE",
"307 -27 OFFCURVE",
"300 -30 CURVE SMOOTH",
"293 -33 OFFCURVE",
"285 -33 OFFCURVE",
"278 -28 CURVE",
"271 -24 OFFCURVE",
"267 -18 OFFCURVE",
"267 -11 CURVE SMOOTH",
"267 181 LINE",
"266 186 OFFCURVE",
"262 189 OFFCURVE",
"256 188 CURVE SMOOTH",
"250 187 OFFCURVE",
"247 184 OFFCURVE",
"246 180 CURVE",
"247 149 OFFCURVE",
"247 86 OFFCURVE",
"247 -11 CURVE",
"246 -21 OFFCURVE",
"241 -27 OFFCURVE",
"234 -30 CURVE",
"226 -33 OFFCURVE",
"219 -33 OFFCURVE",
"212 -29 CURVE SMOOTH",
"205 -25 OFFCURVE",
"201 -19 OFFCURVE",
"201 -11 CURVE",
"200 302 LINE",
"199 305 OFFCURVE",
"196 307 OFFCURVE",
"191 307 CURVE",
"186 306 OFFCURVE",
"184 305 OFFCURVE",
"183 302 CURVE",
"183 165 LINE",
"182 154 OFFCURVE",
"176 150 OFFCURVE",
"167 151 CURVE SMOOTH",
"158 152 OFFCURVE",
"153 156 OFFCURVE",
"153 165 CURVE SMOOTH",
"153 310 LINE SMOOTH",
"153 334 OFFCURVE",
"161 350 OFFCURVE",
"178 359 CURVE SMOOTH",
"184 362 OFFCURVE",
"191 364 OFFCURVE",
"199 364 CURVE SMOOTH"
);
},
{
closed = 1;
nodes = (
"302 455 OFFCURVE",
"307 443 OFFCURVE",
"307 430 CURVE SMOOTH",
"307 416 OFFCURVE",
"302 404 OFFCURVE",
"293 394 CURVE",
"283 384 OFFCURVE",
"271 379 OFFCURVE",
"257 379 CURVE SMOOTH",
"243 379 OFFCURVE",
"231 384 OFFCURVE",
"222 394 CURVE",
"212 404 OFFCURVE",
"207 416 OFFCURVE",
"207 430 CURVE SMOOTH",
"207 443 OFFCURVE",
"212 455 OFFCURVE",
"222 465 CURVE",
"231 475 OFFCURVE",
"243 480 OFFCURVE",
"257 480 CURVE SMOOTH",
"271 480 OFFCURVE",
"283 475 OFFCURVE",
"293 465 CURVE"
);
}
);
width = 512;
}
);
},
{
glyphname = uniE067;
lastChange = "2013-02-02 00:18:52 +0100";
layers = (
{
layerId = "457A0151-1F15-493B-A022-4CDC4EBB0E42";
name = Regular;
paths = (
{
closed = 1;
nodes = (
"388 455 OFFCURVE",
"328 480 OFFCURVE",
"257 480 CURVE SMOOTH",
"186 480 OFFCURVE",
"126 455 OFFCURVE",
"76 405 CURVE SMOOTH",
"26 355 OFFCURVE",
"1 295 OFFCURVE",
"1 224 CURVE SMOOTH",
"1 153 OFFCURVE",
"26 93 OFFCURVE",
"76 43 CURVE SMOOTH",
"126 -7 OFFCURVE",
"186 -32 OFFCURVE",
"257 -32 CURVE SMOOTH",
"328 -32 OFFCURVE",
"388 -7 OFFCURVE",
"438 43 CURVE SMOOTH",
"488 93 OFFCURVE",
"513 153 OFFCURVE",
"513 224 CURVE SMOOTH",
"513 295 OFFCURVE",
"488 355 OFFCURVE",
"438 405 CURVE SMOOTH"
);
},
{
closed = 1;
nodes = (
"351 400 OFFCURVE",
"358 397 OFFCURVE",
"363 392 CURVE SMOOTH",
"406 349 LINE SMOOTH",
"412 343 OFFCURVE",
"415 336 OFFCURVE",
"415 327 CURVE",
"414 318 OFFCURVE",
"411 311 OFFCURVE",
"405 305 CURVE SMOOTH",
"398 298 OFFCURVE",
"391 295 OFFCURVE",
"382 295 CURVE",
"373 294 OFFCURVE",
"366 297 OFFCURVE",
"360 303 CURVE SMOOTH",
"317 346 LINE",
"311 351 OFFCURVE",
"308 358 OFFCURVE",
"309 367 CURVE SMOOTH",
"310 376 OFFCURVE",
"313 383 OFFCURVE",
"319 390 CURVE",
"326 397 OFFCURVE",
"334 400 OFFCURVE",
"343 400 CURVE SMOOTH"
);
},
{
closed = 1;
nodes = (
"273 344 LINE",
"358 259 LINE",
"220 120 LINE",
"134 205 LINE"
);
},
{
closed = 1;
nodes = (
"112 189 LINE",
"202 99 LINE",
"90 77 LINE"
);
}
);
width = 512;
}
);
},
{
glyphname = uniE068;
lastChange = "2013-02-02 00:18:52 +0100";
layers = (
{
layerId = "457A0151-1F15-493B-A022-4CDC4EBB0E42";
name = Regular;
paths = (
{
closed = 1;
nodes = (
"432 466 LINE SMOOTH",
"423 475 OFFCURVE",
"411 480 OFFCURVE",
"398 479 CURVE SMOOTH",
"384 478 OFFCURVE",
"372 473 OFFCURVE",
"362 463 CURVE SMOOTH",
"352 453 OFFCURVE",
"347 441 OFFCURVE",
"346 428 CURVE SMOOTH",
"345 414 OFFCURVE",
"350 402 OFFCURVE",
"359 393 CURVE SMOOTH",
"426 326 LINE SMOOTH",
"435 317 OFFCURVE",
"447 312 OFFCURVE",
"461 313 CURVE",
"474 313 OFFCURVE",
"486 318 OFFCURVE",
"496 329 CURVE",
"506 339 OFFCURVE",
"511 351 OFFCURVE",
"512 365 CURVE SMOOTH",
"513 378 OFFCURVE",
"508 390 OFFCURVE",
"499 399 CURVE SMOOTH"
);
},
{
closed = 1;
nodes = (
"70 172 LINE",
"205 37 LINE",
"423 256 LINE",
"289 390 LINE"
);
},
{
closed = 1;
nodes = (
"0 -31 LINE",
"177 5 LINE",
"35 146 LINE"
);
}
);
width = 512;
}
);
},
{
glyphname = uniE069;
lastChange = "2013-02-02 00:18:52 +0100";
layers = (
{
layerId = "457A0151-1F15-493B-A022-4CDC4EBB0E42";
name = Regular;
paths = (
{
closed = 1;
nodes = (
"387 455 OFFCURVE",
"327 480 OFFCURVE",
"256 480 CURVE SMOOTH",
"185 480 OFFCURVE",
"125 455 OFFCURVE",
"75 405 CURVE SMOOTH",
"25 355 OFFCURVE",
"0 295 OFFCURVE",
"0 224 CURVE SMOOTH",
"0 153 OFFCURVE",
"25 93 OFFCURVE",
"75 43 CURVE SMOOTH",
"125 -7 OFFCURVE",
"185 -32 OFFCURVE",
"256 -32 CURVE SMOOTH",
"327 -32 OFFCURVE",
"387 -7 OFFCURVE",
"437 43 CURVE SMOOTH",
"487 93 OFFCURVE",
"512 153 OFFCURVE",
"512 224 CURVE SMOOTH",
"512 295 OFFCURVE",
"487 355 OFFCURVE",
"437 405 CURVE SMOOTH"
);
},
{
closed = 1;
nodes = (
"141 357 LINE",
"219 357 LINE",
"219 91 LINE",
"141 91 LINE"
);
},
{
closed = 1;
nodes = (
"293 357 LINE",
"371 357 LINE",
"371 91 LINE",
"293 91 LINE"
);
}
);
width = 512;
}
);
},
{
glyphname = uniE06A;
lastChange = "2013-02-02 00:18:52 +0100";
layers = (
{
layerId = "457A0151-1F15-493B-A022-4CDC4EBB0E42";
name = Regular;
paths = (
{
closed = 1;
nodes = (
"213 380 LINE",
"122 380 LINE",
"122 68 LINE",
"213 68 LINE"
);
},
{
closed = 1;
nodes = (
"392 380 LINE",
"301 380 LINE",
"301 68 LINE",
"392 68 LINE"
);
}
);
width = 512;
}
);
},
{
glyphname = uniE06B;
lastChange = "2013-02-02 00:18:52 +0100";
layers = (
{
layerId = "457A0151-1F15-493B-A022-4CDC4EBB0E42";
name = Regular;
paths = (
{
closed = 1;
nodes = (
"493 227 OFFCURVE",
"471 182 OFFCURVE",
"430 148 CURVE SMOOTH",
"387 114 OFFCURVE",
"330 97 OFFCURVE",
"261 96 CURVE",
"261 65 LINE",
"260 46 OFFCURVE",
"255 28 OFFCURVE",
"244 12 CURVE SMOOTH",
"233 -4 OFFCURVE",
"220 -16 OFFCURVE",
"203 -24 CURVE SMOOTH",
"192 -29 OFFCURVE",
"179 -32 OFFCURVE",
"166 -32 CURVE SMOOTH",
"150 -32 OFFCURVE",
"134 -28 OFFCURVE",
"118 -20 CURVE",
"118 69 LINE",
"132 59 OFFCURVE",
"145 56 OFFCURVE",
"157 59 CURVE",
"168 64 OFFCURVE",
"174 72 OFFCURVE",
"174 84 CURVE SMOOTH",
"174 330 LINE",
"261 330 LINE",
"261 177 LINE",
"281 177 OFFCURVE",
"300 179 OFFCURVE",
"318 183 CURVE",
"345 190 OFFCURVE",
"367 200 OFFCURVE",
"382 213 CURVE",
"402 232 OFFCURVE",
"412 256 OFFCURVE",
"412 283 CURVE SMOOTH",
"412 322 OFFCURVE",
"396 352 OFFCURVE",
"363 373 CURVE",
"333 390 OFFCURVE",
"297 399 OFFCURVE",
"256 399 CURVE SMOOTH",
"213 398 OFFCURVE",
"177 388 OFFCURVE",
"148 371 CURVE",
"133 361 OFFCURVE",
"121 348 OFFCURVE",
"113 333 CURVE SMOOTH",
"104 317 OFFCURVE",
"100 300 OFFCURVE",
"100 283 CURVE",
"103 247 OFFCURVE",
"111 223 OFFCURVE",
"124 210 CURVE",
"69 151 LINE",
"53 167 OFFCURVE",
"40 188 OFFCURVE",
"31 213 CURVE",
"23 240 OFFCURVE",
"19 263 OFFCURVE",
"18 283 CURVE",
"19 342 OFFCURVE",
"42 389 OFFCURVE",
"85 425 CURVE SMOOTH",
"131 461 OFFCURVE",
"188 479 OFFCURVE",
"256 480 CURVE SMOOTH",
"327 479 OFFCURVE",
"385 461 OFFCURVE",
"428 426 CURVE SMOOTH",
"449 408 OFFCURVE",
"466 386 OFFCURVE",
"477 361 CURVE SMOOTH",
"488 336 OFFCURVE",
"493 310 OFFCURVE",
"494 283 CURVE"
);
}
);
width = 512;
}
);
},
{
glyphname = uniE06C;
lastChange = "2013-02-02 00:18:52 +0100";
layers = (
{
layerId = "457A0151-1F15-493B-A022-4CDC4EBB0E42";
name = Regular;
paths = (
{
closed = 1;
nodes = (
"387 455 OFFCURVE",
"327 480 OFFCURVE",
"256 480 CURVE SMOOTH",
"185 480 OFFCURVE",
"125 455 OFFCURVE",
"75 405 CURVE SMOOTH",
"25 355 OFFCURVE",
"0 295 OFFCURVE",
"0 224 CURVE SMOOTH",
"0 153 OFFCURVE",
"25 93 OFFCURVE",
"75 43 CURVE SMOOTH",
"125 -7 OFFCURVE",
"185 -32 OFFCURVE",
"256 -32 CURVE SMOOTH",
"327 -32 OFFCURVE",
"387 -7 OFFCURVE",
"437 43 CURVE SMOOTH",
"487 93 OFFCURVE",
"512 153 OFFCURVE",
"512 224 CURVE SMOOTH",
"512 295 OFFCURVE",
"487 355 OFFCURVE",
"437 405 CURVE SMOOTH"
);
},
{
closed = 1;
nodes = (
"337 384 OFFCURVE",
"356 375 OFFCURVE",
"374 357 CURVE SMOOTH",
"397 334 OFFCURVE",
"405 309 OFFCURVE",
"398 281 CURVE",
"393 266 OFFCURVE",
"383 250 OFFCURVE",
"368 233 CURVE",
"349 215 OFFCURVE",
"323 189 OFFCURVE",
"289 155 CURVE SMOOTH",
"254 120 OFFCURVE",
"232 98 OFFCURVE",
"222 87 CURVE",
"207 72 OFFCURVE",
"190 65 OFFCURVE",
"173 64 CURVE",
"158 64 OFFCURVE",
"145 70 OFFCURVE",
"133 82 CURVE SMOOTH",
"118 97 OFFCURVE",
"111 114 OFFCURVE",
"112 132 CURVE",
"114 147 OFFCURVE",
"121 160 OFFCURVE",
"134 173 CURVE SMOOTH",
"257 296 LINE SMOOTH",
"282 321 OFFCURVE",
"304 324 OFFCURVE",
"325 307 CURVE",
"342 288 OFFCURVE",
"338 266 OFFCURVE",
"313 240 CURVE SMOOTH",
"200 127 LINE",
"178 149 LINE",
"291 262 LINE SMOOTH",
"301 272 OFFCURVE",
"305 280 OFFCURVE",
"302 286 CURVE",
"298 289 OFFCURVE",
"290 285 OFFCURVE",
"279 274 CURVE SMOOTH",
"156 151 LINE",
"148 144 OFFCURVE",
"144 136 OFFCURVE",
"143 129 CURVE SMOOTH",
"142 121 OFFCURVE",
"146 113 OFFCURVE",
"154 104 CURVE",
"163 97 OFFCURVE",
"170 95 OFFCURVE",
"177 96 CURVE SMOOTH",
"183 97 OFFCURVE",
"191 101 OFFCURVE",
"200 110 CURVE SMOOTH",
"217 127 OFFCURVE",
"241 150 OFFCURVE",
"270 179 CURVE SMOOTH",
"299 208 OFFCURVE",
"319 229 OFFCURVE",
"332 242 CURVE SMOOTH",
"333 243 OFFCURVE",
"334 244 OFFCURVE",
"337 247 CURVE",
"340 249 OFFCURVE",
"341 251 OFFCURVE",
"342 252 CURVE SMOOTH",
"343 253 OFFCURVE",
"344 254 OFFCURVE",
"347 256 CURVE",
"349 258 OFFCURVE",
"350 260 OFFCURVE",
"351 261 CURVE SMOOTH",
"352 262 OFFCURVE",
"353 264 OFFCURVE",
"355 266 CURVE",
"356 268 OFFCURVE",
"358 270 OFFCURVE",
"359 271 CURVE SMOOTH",
"360 272 OFFCURVE",
"361 274 OFFCURVE",
"362 276 CURVE SMOOTH",
"363 278 OFFCURVE",
"364 280 OFFCURVE",
"365 283 CURVE",
"366 285 OFFCURVE",
"367 287 OFFCURVE",
"368 289 CURVE",
"371 302 OFFCURVE",
"368 315 OFFCURVE",
"358 329 CURVE",
"347 343 OFFCURVE",
"335 351 OFFCURVE",
"320 353 CURVE",
"305 354 OFFCURVE",
"289 346 OFFCURVE",
"271 329 CURVE SMOOTH",
"137 195 LINE",
"115 217 LINE",
"249 352 LINE SMOOTH",
"270 373 OFFCURVE",
"292 383 OFFCURVE",
"313 384 CURVE",
"314 384 OFFCURVE",
"316 384 OFFCURVE",
"317 384 CURVE SMOOTH"
);
}
);
width = 512;
}
);
},
{
glyphname = uniE06D;
lastChange = "2013-02-02 00:18:52 +0100";
layers = (
{
layerId = "457A0151-1F15-493B-A022-4CDC4EBB0E42";
name = Regular;
paths = (
{
closed = 1;
nodes = (
"220 23 OFFCURVE",
"255 58 OFFCURVE",
"310 113 CURVE SMOOTH",
"365 168 OFFCURVE",
"407 209 OFFCURVE",
"436 238 CURVE",
"461 265 OFFCURVE",
"477 291 OFFCURVE",
"484 316 CURVE SMOOTH",
"495 359 OFFCURVE",
"483 400 OFFCURVE",
"446 437 CURVE SMOOTH",
"416 467 OFFCURVE",
"384 481 OFFCURVE",
"349 480 CURVE SMOOTH",
"314 478 OFFCURVE",
"280 461 OFFCURVE",
"247 428 CURVE SMOOTH",
"32 212 LINE",
"68 178 LINE",
"282 392 LINE",
"311 419 OFFCURVE",
"337 432 OFFCURVE",
"360 430 CURVE",
"383 427 OFFCURVE",
"403 414 OFFCURVE",
"420 392 CURVE",
"436 369 OFFCURVE",
"441 348 OFFCURVE",
"436 328 CURVE SMOOTH",
"435 324 OFFCURVE",
"433 320 OFFCURVE",
"431 316 CURVE SMOOTH",
"429 312 OFFCURVE",
"427 309 OFFCURVE",
"426 306 CURVE",
"424 303 OFFCURVE",
"422 299 OFFCURVE",
"419 295 CURVE SMOOTH",
"416 291 OFFCURVE",
"414 288 OFFCURVE",
"413 287 CURVE",
"412 285 OFFCURVE",
"409 282 OFFCURVE",
"405 278 CURVE",
"401 273 OFFCURVE",
"399 271 OFFCURVE",
"398 270 CURVE SMOOTH",
"397 269 OFFCURVE",
"394 266 OFFCURVE",
"389 261 CURVE SMOOTH",
"384 256 OFFCURVE",
"380 253 OFFCURVE",
"379 252 CURVE SMOOTH",
"359 232 OFFCURVE",
"326 199 OFFCURVE",
"279 153 CURVE SMOOTH",
"232 106 OFFCURVE",
"195 69 OFFCURVE",
"168 41 CURVE",
"153 28 OFFCURVE",
"140 20 OFFCURVE",
"131 19 CURVE",
"121 17 OFFCURVE",
"109 22 OFFCURVE",
"95 33 CURVE",
"82 46 OFFCURVE",
"76 59 OFFCURVE",
"78 72 CURVE",
"79 84 OFFCURVE",
"86 96 OFFCURVE",
"98 108 CURVE SMOOTH",
"294 304 LINE SMOOTH",
"313 323 OFFCURVE",
"325 329 OFFCURVE",
"332 322 CURVE SMOOTH",
"333 321 OFFCURVE",
"333 319 OFFCURVE",
"333 317 CURVE SMOOTH",
"333 315 OFFCURVE",
"333 313 OFFCURVE",
"333 312 CURVE SMOOTH",
"333 310 OFFCURVE",
"332 308 OFFCURVE",
"331 306 CURVE SMOOTH",
"330 304 OFFCURVE",
"329 302 OFFCURVE",
"328 301 CURVE SMOOTH",
"327 300 OFFCURVE",
"326 298 OFFCURVE",
"325 296 CURVE",
"323 294 OFFCURVE",
"322 293 OFFCURVE",
"321 292 CURVE SMOOTH",
"320 291 OFFCURVE",
"319 290 OFFCURVE",
"317 288 CURVE SMOOTH",
"315 286 OFFCURVE",
"314 285 OFFCURVE",
"313 285 CURVE",
"133 104 LINE",
"168 69 LINE",
"349 249 LINE SMOOTH",
"390 292 OFFCURVE",
"396 328 OFFCURVE",
"367 357 CURVE",
"335 385 OFFCURVE",
"299 379 OFFCURVE",
"259 339 CURVE SMOOTH",
"62 143 LINE SMOOTH",
"42 123 OFFCURVE",
"31 101 OFFCURVE",
"28 77 CURVE",
"26 48 OFFCURVE",
"37 22 OFFCURVE",
"61 -3 CURVE SMOOTH",
"80 -22 OFFCURVE",
"102 -32 OFFCURVE",
"126 -32 CURVE",
"153 -31 OFFCURVE",
"178 -18 OFFCURVE",
"203 6 CURVE SMOOTH"
);
}
);
width = 512;
}
);
},
{
glyphname = uniE06E;
lastChange = "2013-02-02 00:18:52 +0100";
layers = (
{
layerId = "457A0151-1F15-493B-A022-4CDC4EBB0E42";
name = Regular;
paths = (
{
closed = 1;
nodes = (
"387 455 OFFCURVE",
"327 480 OFFCURVE",
"256 480 CURVE SMOOTH",
"185 480 OFFCURVE",
"125 455 OFFCURVE",
"75 405 CURVE SMOOTH",
"25 355 OFFCURVE",
"0 295 OFFCURVE",
"0 224 CURVE SMOOTH",
"0 153 OFFCURVE",
"25 93 OFFCURVE",
"75 43 CURVE SMOOTH",
"125 -7 OFFCURVE",
"185 -32 OFFCURVE",
"256 -32 CURVE SMOOTH",
"327 -32 OFFCURVE",
"387 -7 OFFCURVE",
"437 43 CURVE SMOOTH",
"487 93 OFFCURVE",
"512 153 OFFCURVE",
"512 224 CURVE SMOOTH",
"512 295 OFFCURVE",
"487 355 OFFCURVE",
"437 405 CURVE SMOOTH"
);
},
{
closed = 1;
nodes = (
"366 360 LINE",
"419 307 LINE",
"253 141 LINE",
"200 88 LINE",
"147 141 LINE",
"93 195 LINE",
"146 248 LINE",
"200 194 LINE"
);
}
);
width = 512;
}
);
},
{
glyphname = uniE06F;
lastChange = "2013-02-02 00:18:52 +0100";
layers = (
{
layerId = "457A0151-1F15-493B-A022-4CDC4EBB0E42";
name = Regular;
paths = (
{
closed = 1;
nodes = (
"387 455 OFFCURVE",
"327 480 OFFCURVE",
"256 480 CURVE SMOOTH",
"185 480 OFFCURVE",
"125 455 OFFCURVE",
"75 405 CURVE SMOOTH",
"25 355 OFFCURVE",
"0 295 OFFCURVE",
"0 224 CURVE SMOOTH",
"0 153 OFFCURVE",
"25 93 OFFCURVE",
"75 43 CURVE SMOOTH",
"125 -7 OFFCURVE",
"185 -32 OFFCURVE",
"256 -32 CURVE SMOOTH",
"327 -32 OFFCURVE",
"387 -7 OFFCURVE",
"437 43 CURVE SMOOTH",
"487 93 OFFCURVE",
"512 153 OFFCURVE",
"512 224 CURVE SMOOTH",
"512 295 OFFCURVE",
"487 355 OFFCURVE",
"437 405 CURVE SMOOTH"
);
},
{
closed = 1;
nodes = (
"154 405 OFFCURVE",
"201 424 OFFCURVE",
"256 424 CURVE SMOOTH",
"311 424 OFFCURVE",
"359 405 OFFCURVE",
"398 366 CURVE SMOOTH",
"437 327 OFFCURVE",
"456 279 OFFCURVE",
"456 224 CURVE SMOOTH",
"456 169 OFFCURVE",
"437 122 OFFCURVE",
"398 83 CURVE SMOOTH",
"359 44 OFFCURVE",
"311 24 OFFCURVE",
"256 24 CURVE SMOOTH",
"201 24 OFFCURVE",
"154 44 OFFCURVE",
"115 83 CURVE SMOOTH",
"76 122 OFFCURVE",
"56 169 OFFCURVE",
"56 224 CURVE SMOOTH",
"56 279 OFFCURVE",
"76 327 OFFCURVE",
"115 366 CURVE SMOOTH"
);
},
{
closed = 1;
nodes = (
"354 346 LINE",
"206 197 LINE",
"158 245 LINE",
"110 198 LINE",
"158 150 LINE",
"206 102 LINE",
"253 150 LINE",
"402 298 LINE"
);
}
);
width = 512;
}
);
},
{
glyphname = uniE070;
lastChange = "2013-02-02 00:18:52 +0100";
layers = (
{
layerId = "457A0151-1F15-493B-A022-4CDC4EBB0E42";
name = Regular;
paths = (
{
closed = 1;
nodes = (
"429 438 LINE",
"169 177 LINE",
"84 261 LINE",
"1 178 LINE",
"86 94 LINE",
"169 10 LINE",
"252 93 LINE",
"513 354 LINE"
);
}
);
width = 512;
}
);
},
{
glyphname = uniE071;
lastChange = "2013-02-02 00:18:52 +0100";
layers = (
{
layerId = "457A0151-1F15-493B-A022-4CDC4EBB0E42";
name = Regular;
paths = (
{
closed = 1;
nodes = (
"219 480 LINE",
"219 184 LINE",
"293 184 LINE",
"293 480 LINE"
);
},
{
closed = 1;
nodes = (
"75 405 LINE",
"25 355 OFFCURVE",
"0 295 OFFCURVE",
"0 224 CURVE SMOOTH",
"0 153 OFFCURVE",
"25 93 OFFCURVE",
"75 43 CURVE SMOOTH",
"125 -7 OFFCURVE",
"185 -32 OFFCURVE",
"256 -32 CURVE SMOOTH",
"327 -32 OFFCURVE",
"387 -7 OFFCURVE",
"437 43 CURVE SMOOTH",
"487 93 OFFCURVE",
"512 153 OFFCURVE",
"512 224 CURVE SMOOTH",
"512 295 OFFCURVE",
"487 355 OFFCURVE",
"437 405 CURVE",
"385 353 LINE",
"421 318 OFFCURVE",
"439 275 OFFCURVE",
"439 224 CURVE SMOOTH",
"439 173 OFFCURVE",
"421 130 OFFCURVE",
"386 95 CURVE SMOOTH",
"350 59 OFFCURVE",
"307 41 OFFCURVE",
"256 41 CURVE SMOOTH",
"205 41 OFFCURVE",
"162 59 OFFCURVE",
"127 95 CURVE SMOOTH",
"91 130 OFFCURVE",
"73 173 OFFCURVE",
"73 224 CURVE SMOOTH",
"73 275 OFFCURVE",
"91 318 OFFCURVE",
"127 353 CURVE"
);
}
);
width = 512;
}
);
},
{
glyphname = uniE072;
lastChange = "2013-02-02 00:18:52 +0100";
layers = (
{
layerId = "457A0151-1F15-493B-A022-4CDC4EBB0E42";
name = Regular;
paths = (
{
closed = 1;
nodes = (
"1 213 OFFCURVE",
"1 217 OFFCURVE",
"1 223 CURVE SMOOTH",
"1 225 LINE",
"86 232 OFFCURVE",
"154 253 OFFCURVE",
"203 288 CURVE",
"219 281 OFFCURVE",
"235 282 OFFCURVE",
"251 290 CURVE",
"284 256 OFFCURVE",
"319 233 OFFCURVE",
"356 222 CURVE",
"360 211 OFFCURVE",
"367 202 OFFCURVE",
"377 196 CURVE",
"366 168 OFFCURVE",
"350 143 OFFCURVE",
"329 122 CURVE",
"314 132 OFFCURVE",
"298 134 OFFCURVE",
"281 129 CURVE SMOOTH",
"264 124 OFFCURVE",
"253 113 OFFCURVE",
"246 97 CURVE",
"198 97 OFFCURVE",
"152 107 OFFCURVE",
"109 128 CURVE SMOOTH",
"65 148 OFFCURVE",
"29 176 OFFCURVE",
"2 211 CURVE"
);
},
{
closed = 1;
nodes = (
"194 33 OFFCURVE",
"144 22 OFFCURVE",
"95 25 CURVE",
"56 58 OFFCURVE",
"28 99 OFFCURVE",
"12 147 CURVE",
"44 120 OFFCURVE",
"81 98 OFFCURVE",
"122 83 CURVE SMOOTH",
"163 68 OFFCURVE",
"204 60 OFFCURVE",
"245 60 CURVE"
);
},
{
closed = 1;
nodes = (
"408 79 OFFCURVE",
"457 101 OFFCURVE",
"497 134 CURVE",
"484 100 OFFCURVE",
"464 70 OFFCURVE",
"439 45 CURVE SMOOTH",
"413 19 OFFCURVE",
"384 0 OFFCURVE",
"353 -13 CURVE SMOOTH",
"322 -26 OFFCURVE",
"288 -32 OFFCURVE",
"253 -32 CURVE SMOOTH",
"218 -32 OFFCURVE",
"184 -25 OFFCURVE",
"151 -10 CURVE",
"192 -4 OFFCURVE",
"231 9 OFFCURVE",
"268 30 CURVE",
"285 21 OFFCURVE",
"303 20 OFFCURVE",
"320 28 CURVE SMOOTH",
"337 36 OFFCURVE",
"347 49 OFFCURVE",
"351 67 CURVE"
);
},
{
closed = 1;
nodes = (
"479 212 OFFCURVE",
"500 214 OFFCURVE",
"513 216 CURVE",
"513 215 OFFCURVE",
"513 212 OFFCURVE",
"513 209 CURVE",
"512 206 OFFCURVE",
"512 203 OFFCURVE",
"512 201 CURVE",
"477 156 OFFCURVE",
"428 124 OFFCURVE",
"366 107 CURVE",
"385 131 OFFCURVE",
"401 158 OFFCURVE",
"412 188 CURVE",
"429 190 OFFCURVE",
"443 197 OFFCURVE",
"452 210 CURVE"
);
},
{
closed = 1;
nodes = (
"459 265 OFFCURVE",
"451 279 OFFCURVE",
"437 288 CURVE",
"441 329 OFFCURVE",
"442 367 OFFCURVE",
"439 404 CURVE",
"480 361 OFFCURVE",
"504 311 OFFCURVE",
"511 254 CURVE",
"496 251 OFFCURVE",
"480 248 OFFCURVE",
"461 247 CURVE"
);
},
{
closed = 1;
nodes = (
"129 285 OFFCURVE",
"71 267 OFFCURVE",
"4 261 CURVE",
"11 308 OFFCURVE",
"30 349 OFFCURVE",
"60 386 CURVE SMOOTH",
"89 422 OFFCURVE",
"125 448 OFFCURVE",
"168 464 CURVE",
"171 433 OFFCURVE",
"177 404 OFFCURVE",
"188 379 CURVE",
"170 360 OFFCURVE",
"166 338 OFFCURVE",
"176 315 CURVE"
);
},
{
closed = 1;
nodes = (
"308 396 OFFCURVE",
"328 432 OFFCURVE",
"339 466 CURVE",
"361 459 OFFCURVE",
"381 449 OFFCURVE",
"398 437 CURVE",
"405 388 OFFCURVE",
"406 341 OFFCURVE",
"401 296 CURVE",
"378 292 OFFCURVE",
"363 280 OFFCURVE",
"355 261 CURVE",
"330 270 OFFCURVE",
"303 289 OFFCURVE",
"276 316 CURVE",
"281 331 OFFCURVE",
"282 345 OFFCURVE",
"277 358 CURVE"
);
},
{
closed = 1;
nodes = (
"210 422 OFFCURVE",
"204 449 OFFCURVE",
"204 474 CURVE",
"237 481 OFFCURVE",
"270 482 OFFCURVE",
"303 475 CURVE",
"292 445 OFFCURVE",
"276 415 OFFCURVE",
"253 386 CURVE",
"238 393 OFFCURVE",
"227 395 OFFCURVE",
"222 393 CURVE"
);
}
);
width = 512;
}
);
},
{
glyphname = uniE073;
lastChange = "2013-02-02 00:18:52 +0100";
layers = (
{
layerId = "457A0151-1F15-493B-A022-4CDC4EBB0E42";
name = Regular;
paths = (
{
closed = 1;
nodes = (
"156 446 LINE",
"143 108 LINE",
"124 118 OFFCURVE",
"103 121 OFFCURVE",
"80 118 CURVE SMOOTH",
"55 115 OFFCURVE",
"35 105 OFFCURVE",
"20 89 CURVE SMOOTH",
"4 72 OFFCURVE",
"-2 54 OFFCURVE",
"1 35 CURVE SMOOTH",
"4 15 OFFCURVE",
"15 -1 OFFCURVE",
"34 -12 CURVE SMOOTH",
"53 -23 OFFCURVE",
"75 -27 OFFCURVE",
"100 -24 CURVE SMOOTH",
"122 -21 OFFCURVE",
"141 -12 OFFCURVE",
"156 1 CURVE SMOOTH",
"171 14 OFFCURVE",
"179 30 OFFCURVE",
"180 47 CURVE",
"180 47 LINE",
"181 48 OFFCURVE",
"181 49 OFFCURVE",
"181 50 CURVE SMOOTH",
"181 60 OFFCURVE",
"182 90 OFFCURVE",
"185 141 CURVE SMOOTH",
"187 191 OFFCURVE",
"189 239 OFFCURVE",
"191 284 CURVE SMOOTH",
"193 329 OFFCURVE",
"194 351 OFFCURVE",
"194 352 CURVE",
"472 380 LINE",
"460 140 LINE",
"441 151 OFFCURVE",
"419 154 OFFCURVE",
"395 151 CURVE SMOOTH",
"370 148 OFFCURVE",
"349 138 OFFCURVE",
"334 122 CURVE SMOOTH",
"319 105 OFFCURVE",
"312 87 OFFCURVE",
"315 68 CURVE SMOOTH",
"318 48 OFFCURVE",
"329 32 OFFCURVE",
"348 21 CURVE SMOOTH",
"367 10 OFFCURVE",
"390 6 OFFCURVE",
"415 9 CURVE SMOOTH",
"437 12 OFFCURVE",
"456 21 OFFCURVE",
"471 35 CURVE SMOOTH",
"486 49 OFFCURVE",
"494 65 OFFCURVE",
"495 82 CURVE SMOOTH",
"496 93 OFFCURVE",
"501 223 OFFCURVE",
"512 473 CURVE"
);
}
);
width = 512;
}
);
},
{
glyphname = uniE074;
lastChange = "2013-02-02 00:18:52 +0100";
layers = (
{
layerId = "457A0151-1F15-493B-A022-4CDC4EBB0E42";
name = Regular;
paths = (
{
closed = 1;
nodes = (
"1 224 LINE",
"89 136 LINE",
"89 197 LINE",
"230 197 LINE",
"230 56 LINE",
"170 56 LINE",
"257 -32 LINE",
"345 56 LINE",
"284 56 LINE",
"284 197 LINE",
"425 197 LINE",
"425 137 LINE",
"513 224 LINE",
"425 312 LINE",
"425 251 LINE",
"284 251 LINE",
"284 392 LINE",
"345 393 LINE",
"257 480 LINE",
"169 392 LINE",
"230 392 LINE",
"230 251 LINE",
"89 251 LINE",
"89 312 LINE"
);
}
);
width = 512;
}
);
},
{
glyphname = uniE075;
lastChange = "2013-02-02 00:18:52 +0100";
layers = (
{
layerId = "457A0151-1F15-493B-A022-4CDC4EBB0E42";
name = Regular;
paths = (
{
closed = 1;
nodes = (
"387 455 OFFCURVE",
"327 480 OFFCURVE",
"256 480 CURVE SMOOTH",
"185 480 OFFCURVE",
"125 455 OFFCURVE",
"75 405 CURVE SMOOTH",
"25 355 OFFCURVE",
"0 295 OFFCURVE",
"0 224 CURVE SMOOTH",
"0 153 OFFCURVE",
"25 93 OFFCURVE",
"75 43 CURVE SMOOTH",
"125 -7 OFFCURVE",
"185 -32 OFFCURVE",
"256 -32 CURVE SMOOTH",
"327 -32 OFFCURVE",
"387 -7 OFFCURVE",
"437 43 CURVE SMOOTH",
"487 93 OFFCURVE",
"512 153 OFFCURVE",
"512 224 CURVE SMOOTH",
"512 295 OFFCURVE",
"487 355 OFFCURVE",
"437 405 CURVE SMOOTH"
);
},
{
closed = 1;
nodes = (
"109 266 LINE",
"403 266 LINE",
"403 182 LINE",
"109 182 LINE"
);
}
);
width = 512;
}
);
},
{
glyphname = uniE076;
lastChange = "2013-02-02 00:18:52 +0100";
layers = (
{
layerId = "457A0151-1F15-493B-A022-4CDC4EBB0E42";
name = Regular;
paths = (
{
closed = 1;
nodes = (
"1 297 LINE",
"513 297 LINE",
"513 152 LINE",
"1 152 LINE"
);
}
);
width = 512;
}
);
},
{
glyphname = uniE077;
lastChange = "2013-02-02 00:18:52 +0100";
layers = (
{
layerId = "457A0151-1F15-493B-A022-4CDC4EBB0E42";
name = Regular;
paths = (
{
closed = 1;
nodes = (
"387 455 OFFCURVE",
"327 480 OFFCURVE",
"256 480 CURVE SMOOTH",
"185 480 OFFCURVE",
"125 455 OFFCURVE",
"75 405 CURVE SMOOTH",
"25 355 OFFCURVE",
"0 295 OFFCURVE",
"0 224 CURVE SMOOTH",
"0 153 OFFCURVE",
"25 93 OFFCURVE",
"75 43 CURVE SMOOTH",
"125 -7 OFFCURVE",
"185 -32 OFFCURVE",
"256 -32 CURVE SMOOTH",
"327 -32 OFFCURVE",
"387 -7 OFFCURVE",
"437 43 CURVE SMOOTH",
"487 93 OFFCURVE",
"512 153 OFFCURVE",
"512 224 CURVE SMOOTH",
"512 295 OFFCURVE",
"487 355 OFFCURVE",
"437 405 CURVE SMOOTH"
);
},
{
closed = 1;
nodes = (
"247 341 LINE",
"265 341 LINE",
"265 390 LINE",
"274 389 OFFCURVE",
"282 388 OFFCURVE",
"290 386 CURVE",
"290 341 LINE",
"308 341 LINE",
"308 378 LINE",
"317 374 OFFCURVE",
"324 369 OFFCURVE",
"331 364 CURVE",
"331 181 LINE",
"309 163 OFFCURVE",
"284 154 OFFCURVE",
"256 154 CURVE SMOOTH",
"228 154 OFFCURVE",
"203 163 OFFCURVE",
"181 181 CURVE",
"181 364 LINE",
"188 369 OFFCURVE",
"195 374 OFFCURVE",
"204 379 CURVE",
"204 341 LINE",
"222 341 LINE",
"222 386 LINE",
"230 389 OFFCURVE",
"238 390 OFFCURVE",
"247 390 CURVE"
);
},
{
closed = 1;
nodes = (
"145 245 LINE",
"167 245 LINE",
"167 162 LINE",
"193 141 OFFCURVE",
"223 130 OFFCURVE",
"256 130 CURVE SMOOTH",
"289 130 OFFCURVE",
"319 141 OFFCURVE",
"345 162 CURVE",
"345 245 LINE",
"367 245 LINE",
"367 151 LINE",
"360 145 OFFCURVE",
"353 140 OFFCURVE",
"345 135 CURVE SMOOTH",
"327 123 OFFCURVE",
"307 115 OFFCURVE",
"286 111 CURVE",
"286 80 LINE",
"323 80 LINE",
"323 58 LINE",
"286 58 LINE",
"226 58 LINE",
"189 58 LINE",
"189 80 LINE",
"226 80 LINE",
"226 111 LINE",
"205 115 OFFCURVE",
"185 123 OFFCURVE",
"167 135 CURVE SMOOTH",
"159 140 OFFCURVE",
"152 145 OFFCURVE",
"145 151 CURVE"
);
},
{
closed = 1;
nodes = (
"226 111 LINE",
"236 109 OFFCURVE",
"246 108 OFFCURVE",
"256 108 CURVE SMOOTH",
"266 108 OFFCURVE",
"276 109 OFFCURVE",
"286 111 CURVE",
"286 122 LINE",
"226 122 LINE"
);
}
);
width = 512;
}
);
},
{
glyphname = uniE078;
lastChange = "2013-02-02 00:18:52 +0100";
layers = (
{
layerId = "457A0151-1F15-493B-A022-4CDC4EBB0E42";
name = Regular;
paths = (
{
closed = 1;
nodes = (
"242 480 LINE",
"229 479 OFFCURVE",
"217 477 OFFCURVE",
"204 473 CURVE",
"204 404 LINE",
"176 404 LINE",
"176 462 LINE",
"163 455 OFFCURVE",
"151 448 OFFCURVE",
"141 439 CURVE",
"141 158 LINE",
"174 131 OFFCURVE",
"213 117 OFFCURVE",
"256 117 CURVE SMOOTH",
"299 117 OFFCURVE",
"338 131 OFFCURVE",
"371 158 CURVE",
"371 439 LINE",
"361 448 OFFCURVE",
"350 455 OFFCURVE",
"337 461 CURVE",
"337 404 LINE",
"309 404 LINE",
"309 473 LINE",
"296 476 OFFCURVE",
"283 479 OFFCURVE",
"270 480 CURVE",
"270 404 LINE",
"242 404 LINE"
);
},
{
closed = 1;
nodes = (
"85 256 LINE",
"85 112 LINE",
"96 103 OFFCURVE",
"107 94 OFFCURVE",
"118 86 CURVE",
"146 68 OFFCURVE",
"176 56 OFFCURVE",
"209 50 CURVE",
"209 66 LINE",
"303 66 LINE",
"303 50 LINE",
"336 56 OFFCURVE",
"366 68 OFFCURVE",
"394 86 CURVE",
"405 94 OFFCURVE",
"416 103 OFFCURVE",
"427 112 CURVE",
"427 256 LINE",
"394 256 LINE",
"394 129 LINE",
"353 96 OFFCURVE",
"307 80 OFFCURVE",
"256 80 CURVE SMOOTH",
"205 80 OFFCURVE",
"159 96 OFFCURVE",
"118 129 CURVE",
"118 256 LINE"
);
},
{
closed = 1;
nodes = (
"303 50 LINE",
"288 47 OFFCURVE",
"272 46 OFFCURVE",
"256 46 CURVE SMOOTH",
"240 46 OFFCURVE",
"224 47 OFFCURVE",
"209 50 CURVE",
"209 3 LINE",
"154 3 LINE",
"154 -32 LINE",
"209 -32 LINE",
"303 -32 LINE",
"358 -32 LINE",
"358 3 LINE",
"303 3 LINE"
);
}
);
width = 512;
}
);
},
{
glyphname = uniE079;
lastChange = "2013-02-02 00:18:52 +0100";
layers = (
{
layerId = "457A0151-1F15-493B-A022-4CDC4EBB0E42";
name = Regular;
paths = (
{
closed = 1;
nodes = (
"387 455 OFFCURVE",
"327 480 OFFCURVE",
"256 480 CURVE SMOOTH",
"185 480 OFFCURVE",
"125 455 OFFCURVE",
"75 405 CURVE SMOOTH",
"25 355 OFFCURVE",
"0 295 OFFCURVE",
"0 224 CURVE SMOOTH",
"0 153 OFFCURVE",
"25 93 OFFCURVE",
"75 43 CURVE SMOOTH",
"125 -7 OFFCURVE",
"185 -32 OFFCURVE",
"256 -32 CURVE SMOOTH",
"327 -32 OFFCURVE",
"387 -7 OFFCURVE",
"437 43 CURVE SMOOTH",
"487 93 OFFCURVE",
"512 153 OFFCURVE",
"512 224 CURVE SMOOTH",
"512 295 OFFCURVE",
"487 355 OFFCURVE",
"437 405 CURVE SMOOTH"
);
},
{
closed = 1;
nodes = (
"384 238 OFFCURVE",
"378 216 OFFCURVE",
"366 200 CURVE SMOOTH",
"256 55 LINE",
"146 200 LINE SMOOTH",
"134 216 OFFCURVE",
"128 238 OFFCURVE",
"128 266 CURVE SMOOTH",
"128 301 OFFCURVE",
"141 331 OFFCURVE",
"166 356 CURVE SMOOTH",
"191 381 OFFCURVE",
"221 393 OFFCURVE",
"256 393 CURVE SMOOTH",
"291 393 OFFCURVE",
"322 381 OFFCURVE",
"347 356 CURVE SMOOTH",
"372 331 OFFCURVE",
"384 301 OFFCURVE",
"384 266 CURVE SMOOTH"
);
},
{
closed = 1;
nodes = (
"283 314 OFFCURVE",
"271 319 OFFCURVE",
"256 319 CURVE SMOOTH",
"241 319 OFFCURVE",
"229 314 OFFCURVE",
"218 304 CURVE",
"207 293 OFFCURVE",
"202 281 OFFCURVE",
"202 266 CURVE SMOOTH",
"202 251 OFFCURVE",
"207 238 OFFCURVE",
"218 228 CURVE",
"229 217 OFFCURVE",
"241 212 OFFCURVE",
"256 212 CURVE SMOOTH",
"271 212 OFFCURVE",
"283 217 OFFCURVE",
"294 228 CURVE",
"305 238 OFFCURVE",
"310 251 OFFCURVE",
"310 266 CURVE SMOOTH",
"310 281 OFFCURVE",
"305 293 OFFCURVE",
"294 304 CURVE"
);
}
);
width = 512;
}
);
},
{
glyphname = uniE07A;
lastChange = "2013-02-02 00:18:52 +0100";
layers = (
{
layerId = "457A0151-1F15-493B-A022-4CDC4EBB0E42";
name = Regular;
paths = (
{
closed = 1;
nodes = (
"64 245 OFFCURVE",
"73 212 OFFCURVE",
"91 188 CURVE SMOOTH",
"257 -32 LINE",
"423 188 LINE SMOOTH",
"441 212 OFFCURVE",
"450 245 OFFCURVE",
"450 287 CURVE SMOOTH",
"450 340 OFFCURVE",
"431 386 OFFCURVE",
"394 424 CURVE SMOOTH",
"356 461 OFFCURVE",
"310 480 OFFCURVE",
"257 480 CURVE SMOOTH",
"204 480 OFFCURVE",
"158 461 OFFCURVE",
"121 424 CURVE SMOOTH",
"83 386 OFFCURVE",
"64 340 OFFCURVE",
"64 287 CURVE SMOOTH"
);
},
{
closed = 1;
nodes = (
"215 360 OFFCURVE",
"234 368 OFFCURVE",
"257 368 CURVE SMOOTH",
"280 368 OFFCURVE",
"299 360 OFFCURVE",
"315 345 CURVE",
"330 329 OFFCURVE",
"338 310 OFFCURVE",
"338 287 CURVE SMOOTH",
"338 264 OFFCURVE",
"330 245 OFFCURVE",
"315 230 CURVE SMOOTH",
"299 214 OFFCURVE",
"280 206 OFFCURVE",
"257 206 CURVE SMOOTH",
"234 206 OFFCURVE",
"215 214 OFFCURVE",
"200 230 CURVE",
"184 245 OFFCURVE",
"176 264 OFFCURVE",
"176 287 CURVE SMOOTH",
"176 310 OFFCURVE",
"184 329 OFFCURVE",
"200 345 CURVE SMOOTH"
);
}
);
width = 512;
}
);
},
{
glyphname = uniE07B;
lastChange = "2013-02-02 00:18:52 +0100";
layers = (
{
layerId = "457A0151-1F15-493B-A022-4CDC4EBB0E42";
name = Regular;
paths = (
{
closed = 1;
nodes = (
"311 480 LINE",
"311 409 LINE",
"389 409 LINE",
"287 307 LINE",
"256 326 OFFCURVE",
"223 336 OFFCURVE",
"187 336 CURVE SMOOTH",
"136 336 OFFCURVE",
"92 318 OFFCURVE",
"57 282 CURVE SMOOTH",
"21 246 OFFCURVE",
"3 203 OFFCURVE",
"3 152 CURVE SMOOTH",
"3 101 OFFCURVE",
"21 58 OFFCURVE",
"57 22 CURVE SMOOTH",
"92 -14 OFFCURVE",
"136 -32 OFFCURVE",
"187 -32 CURVE SMOOTH",
"238 -32 OFFCURVE",
"281 -14 OFFCURVE",
"317 22 CURVE SMOOTH",
"353 58 OFFCURVE",
"371 101 OFFCURVE",
"371 152 CURVE SMOOTH",
"371 190 OFFCURVE",
"360 225 OFFCURVE",
"339 256 CURVE",
"439 357 LINE",
"439 280 LINE",
"511 280 LINE",
"511 301 OFFCURVE",
"511 334 OFFCURVE",
"511 380 CURVE SMOOTH",
"511 426 OFFCURVE",
"511 459 OFFCURVE",
"511 480 CURVE"
);
},
{
closed = 1;
nodes = (
"130 251 OFFCURVE",
"156 262 OFFCURVE",
"187 262 CURVE SMOOTH",
"217 262 OFFCURVE",
"243 251 OFFCURVE",
"265 230 CURVE SMOOTH",
"286 209 OFFCURVE",
"297 183 OFFCURVE",
"297 153 CURVE SMOOTH",
"297 122 OFFCURVE",
"286 96 OFFCURVE",
"265 75 CURVE SMOOTH",
"243 53 OFFCURVE",
"217 42 OFFCURVE",
"187 42 CURVE SMOOTH",
"156 42 OFFCURVE",
"130 53 OFFCURVE",
"109 75 CURVE SMOOTH",
"88 96 OFFCURVE",
"77 122 OFFCURVE",
"77 153 CURVE SMOOTH",
"77 183 OFFCURVE",
"88 209 OFFCURVE",
"109 230 CURVE SMOOTH"
);
}
);
width = 512;
}
);
},
{
glyphname = uniE07C;
lastChange = "2013-02-02 00:18:52 +0100";
layers = (
{
layerId = "457A0151-1F15-493B-A022-4CDC4EBB0E42";
name = Regular;
paths = (
{
closed = 1;
nodes = (
"17 249 OFFCURVE",
"17 243 OFFCURVE",
"18 236 CURVE",
"23 138 LINE",
"174 150 LINE",
"169 248 LINE",
"169 251 OFFCURVE",
"169 253 OFFCURVE",
"169 256 CURVE SMOOTH",
"169 279 OFFCURVE",
"178 298 OFFCURVE",
"195 314 CURVE SMOOTH",
"212 330 OFFCURVE",
"232 338 OFFCURVE",
"256 338 CURVE SMOOTH",
"280 338 OFFCURVE",
"301 330 OFFCURVE",
"318 314 CURVE SMOOTH",
"335 298 OFFCURVE",
"343 279 OFFCURVE",
"343 256 CURVE SMOOTH",
"343 253 OFFCURVE",
"343 251 OFFCURVE",
"343 248 CURVE",
"338 150 LINE",
"489 138 LINE",
"494 236 LINE",
"495 243 OFFCURVE",
"495 249 OFFCURVE",
"495 256 CURVE SMOOTH",
"495 317 OFFCURVE",
"472 370 OFFCURVE",
"425 414 CURVE SMOOTH",
"378 458 OFFCURVE",
"322 480 OFFCURVE",
"256 480 CURVE SMOOTH",
"190 480 OFFCURVE",
"134 458 OFFCURVE",
"87 414 CURVE SMOOTH",
"40 370 OFFCURVE",
"17 317 OFFCURVE",
"17 256 CURVE SMOOTH"
);
},
{
closed = 1;
nodes = (
"333 91 LINE",
"324 -5 LINE",
"323 -9 OFFCURVE",
"325 -13 OFFCURVE",
"328 -16 CURVE",
"331 -20 OFFCURVE",
"335 -22 OFFCURVE",
"340 -22 CURVE",
"455 -32 LINE",
"460 -32 OFFCURVE",
"465 -31 OFFCURVE",
"469 -28 CURVE",
"472 -25 OFFCURVE",
"474 -22 OFFCURVE",
"474 -17 CURVE",
"483 79 LINE"
);
},
{
closed = 1;
nodes = (
"179 91 LINE",
"29 79 LINE",
"38 -17 LINE",
"38 -22 OFFCURVE",
"40 -25 OFFCURVE",
"44 -28 CURVE",
"47 -31 OFFCURVE",
"52 -33 OFFCURVE",
"57 -32 CURVE",
"172 -22 LINE",
"177 -22 OFFCURVE",
"182 -20 OFFCURVE",
"185 -16 CURVE",
"188 -13 OFFCURVE",
"189 -9 OFFCURVE",
"188 -5 CURVE"
);
}
);
width = 512;
}
);
},
{
glyphname = uniE07D;
lastChange = "2013-02-02 00:18:52 +0100";
layers = (
{
layerId = "457A0151-1F15-493B-A022-4CDC4EBB0E42";
name = Regular;
paths = (
{
closed = 1;
nodes = (
"387 455 OFFCURVE",
"327 480 OFFCURVE",
"256 480 CURVE SMOOTH",
"185 480 OFFCURVE",
"125 455 OFFCURVE",
"75 405 CURVE SMOOTH",
"25 355 OFFCURVE",
"0 295 OFFCURVE",
"0 224 CURVE SMOOTH",
"0 153 OFFCURVE",
"25 93 OFFCURVE",
"75 43 CURVE SMOOTH",
"125 -7 OFFCURVE",
"185 -32 OFFCURVE",
"256 -32 CURVE SMOOTH",
"327 -32 OFFCURVE",
"387 -7 OFFCURVE",
"437 43 CURVE SMOOTH",
"487 93 OFFCURVE",
"512 153 OFFCURVE",
"512 224 CURVE SMOOTH",
"512 295 OFFCURVE",
"487 355 OFFCURVE",
"437 405 CURVE SMOOTH"
);
},
{
closed = 1;
nodes = (
"339 299 OFFCURVE",
"341 287 OFFCURVE",
"341 276 CURVE SMOOTH",
"341 246 LINE",
"383 246 LINE",
"383 85 LINE",
"129 85 LINE",
"129 246 LINE",
"168 246 LINE",
"167 277 OFFCURVE",
"170 298 OFFCURVE",
"175 310 CURVE SMOOTH",
"182 326 OFFCURVE",
"193 339 OFFCURVE",
"207 349 CURVE",
"221 358 OFFCURVE",
"237 363 OFFCURVE",
"254 363 CURVE SMOOTH",
"271 363 OFFCURVE",
"287 358 OFFCURVE",
"302 348 CURVE SMOOTH",
"317 338 OFFCURVE",
"327 325 OFFCURVE",
"334 310 CURVE SMOOTH"
);
},
{
closed = 1;
nodes = (
"243 311 OFFCURVE",
"235 308 OFFCURVE",
"229 302 CURVE",
"223 295 OFFCURVE",
"220 287 OFFCURVE",
"219 276 CURVE",
"219 246 LINE",
"290 246 LINE",
"290 276 LINE",
"289 286 OFFCURVE",
"286 294 OFFCURVE",
"279 301 CURVE SMOOTH",
"272 308 OFFCURVE",
"264 311 OFFCURVE",
"254 312 CURVE",
"253 312 OFFCURVE",
"253 312 OFFCURVE",
"252 312 CURVE"
);
}
);
width = 512;
}
);
},
{
glyphname = uniE07E;
lastChange = "2013-02-02 00:18:52 +0100";
layers = (
{
layerId = "457A0151-1F15-493B-A022-4CDC4EBB0E42";
name = Regular;
paths = (
{
closed = 1;
nodes = (
"221 480 OFFCURVE",
"192 471 OFFCURVE",
"166 454 CURVE SMOOTH",
"139 436 OFFCURVE",
"119 412 OFFCURVE",
"106 382 CURVE SMOOTH",
"97 360 OFFCURVE",
"92 321 OFFCURVE",
"93 264 CURVE",
"22 264 LINE",
"22 -32 LINE",
"490 -32 LINE",
"490 264 LINE",
"412 264 LINE",
"412 320 LINE SMOOTH",
"412 341 OFFCURVE",
"408 362 OFFCURVE",
"399 382 CURVE SMOOTH",
"387 411 OFFCURVE",
"368 434 OFFCURVE",
"341 453 CURVE SMOOTH",
"314 471 OFFCURVE",
"284 480 OFFCURVE",
"253 480 CURVE SMOOTH"
);
},
{
closed = 1;
nodes = (
"271 385 OFFCURVE",
"286 379 OFFCURVE",
"299 367 CURVE",
"311 354 OFFCURVE",
"318 339 OFFCURVE",
"319 321 CURVE",
"319 320 LINE",
"319 264 LINE",
"187 264 LINE",
"187 320 LINE",
"189 340 OFFCURVE",
"196 356 OFFCURVE",
"208 368 CURVE",
"219 380 OFFCURVE",
"234 386 OFFCURVE",
"253 386 CURVE"
);
}
);
width = 512;
}
);
},
{
glyphname = uniE07F;
lastChange = "2013-02-02 00:18:52 +0100";
layers = (
{
layerId = "457A0151-1F15-493B-A022-4CDC4EBB0E42";
name = Regular;
paths = (
{
closed = 1;
nodes = (
"207 379 LINE",
"157 379 LINE SMOOTH",
"156 379 OFFCURVE",
"155 379 OFFCURVE",
"154 379 CURVE SMOOTH",
"141 379 LINE",
"141 363 LINE",
"141 331 LINE",
"371 331 LINE",
"371 363 LINE",
"371 379 LINE",
"358 379 LINE SMOOTH",
"357 379 OFFCURVE",
"356 379 OFFCURVE",
"355 379 CURVE SMOOTH",
"305 379 LINE",
"306 393 OFFCURVE",
"306 410 OFFCURVE",
"306 429 CURVE SMOOTH",
"306 442 OFFCURVE",
"301 454 OFFCURVE",
"292 465 CURVE",
"282 475 OFFCURVE",
"270 480 OFFCURVE",
"256 480 CURVE SMOOTH",
"242 480 OFFCURVE",
"230 475 OFFCURVE",
"221 465 CURVE SMOOTH",
"212 455 OFFCURVE",
"207 443 OFFCURVE",
"207 429 CURVE SMOOTH"
);
},
{
closed = 1;
nodes = (
"75 431 LINE",
"75 -32 LINE",
"437 -32 LINE",
"437 431 LINE",
"322 431 LINE",
"322 398 LINE",
"404 398 LINE",
"404 2 LINE",
"108 2 LINE",
"108 398 LINE",
"190 398 LINE",
"190 431 LINE"
);
},
{
closed = 1;
nodes = (
"248 429 OFFCURVE",
"251 431 OFFCURVE",
"256 431 CURVE SMOOTH",
"261 431 OFFCURVE",
"265 429 OFFCURVE",
"268 426 CURVE SMOOTH",
"271 423 OFFCURVE",
"272 419 OFFCURVE",
"272 414 CURVE SMOOTH",
"272 409 OFFCURVE",
"271 406 OFFCURVE",
"268 403 CURVE SMOOTH",
"265 400 OFFCURVE",
"261 398 OFFCURVE",
"256 398 CURVE SMOOTH",
"251 398 OFFCURVE",
"248 400 OFFCURVE",
"245 403 CURVE SMOOTH",
"242 406 OFFCURVE",
"240 409 OFFCURVE",
"240 414 CURVE SMOOTH",
"240 419 OFFCURVE",
"242 423 OFFCURVE",
"245 426 CURVE SMOOTH"
);
},
{
closed = 1;
nodes = (
"141 298 LINE",
"141 282 LINE",
"157 282 LINE",
"157 298 LINE"
);
},
{
closed = 1;
nodes = (
"190 298 LINE",
"190 281 LINE",
"371 281 LINE",
"371 298 LINE"
);
},
{
closed = 1;
nodes = (
"141 236 LINE",
"141 220 LINE",
"157 220 LINE",
"157 236 LINE"
);
},
{
closed = 1;
nodes = (
"190 236 LINE",
"190 219 LINE",
"371 219 LINE",
"371 236 LINE"
);
},
{
closed = 1;
nodes = (
"141 174 LINE",
"141 158 LINE",
"157 158 LINE",
"157 174 LINE"
);
},
{
closed = 1;
nodes = (
"190 174 LINE",
"190 157 LINE",
"371 157 LINE",
"371 174 LINE"
);
},
{
closed = 1;
nodes = (
"141 112 LINE",
"141 96 LINE",
"157 96 LINE",
"157 112 LINE"
);
},
{
closed = 1;
nodes = (
"190 112 LINE",
"190 95 LINE",
"371 95 LINE",
"371 112 LINE"
);
},
{
closed = 1;
nodes = (
"141 50 LINE",
"141 34 LINE",
"157 34 LINE",
"157 50 LINE"
);
},
{
closed = 1;
nodes = (
"190 50 LINE",
"190 33 LINE",
"371 33 LINE",
"371 50 LINE"
);
}
);
width = 512;
}
);
},
{
glyphname = uniE080;
lastChange = "2013-02-02 00:18:52 +0100";
layers = (
{
layerId = "457A0151-1F15-493B-A022-4CDC4EBB0E42";
name = Regular;
paths = (
{
closed = 1;
nodes = (
"1 60 LINE",
"93 60 LINE",
"93 -32 LINE",
"1 -32 LINE"
);
},
{
closed = 1;
nodes = (
"1 60 LINE",
"93 60 LINE",
"93 -32 LINE",
"1 -32 LINE"
);
},
{
closed = 1;
nodes = (
"1 200 LINE",
"93 200 LINE",
"93 108 LINE",
"1 108 LINE"
);
},
{
closed = 1;
nodes = (
"1 340 LINE",
"93 340 LINE",
"93 248 LINE",
"1 248 LINE"
);
},
{
closed = 1;
nodes = (
"1 480 LINE",
"93 480 LINE",
"93 388 LINE",
"1 388 LINE"
);
},
{
closed = 1;
nodes = (
"137 60 LINE",
"513 60 LINE",
"513 -32 LINE",
"137 -32 LINE"
);
},
{
closed = 1;
nodes = (
"137 60 LINE",
"513 60 LINE",
"513 -32 LINE",
"137 -32 LINE"
);
},
{
closed = 1;
nodes = (
"137 200 LINE",
"513 200 LINE",
"513 108 LINE",
"137 108 LINE"
);
},
{
closed = 1;
nodes = (
"137 340 LINE",
"513 340 LINE",
"513 248 LINE",
"137 248 LINE"
);
},
{
closed = 1;
nodes = (
"137 480 LINE",
"513 480 LINE",
"513 388 LINE",
"137 388 LINE"
);
}
);
width = 512;
}
);
},
{
glyphname = uniE081;
lastChange = "2013-02-02 00:18:52 +0100";
layers = (
{
layerId = "457A0151-1F15-493B-A022-4CDC4EBB0E42";
name = Regular;
paths = (
{
closed = 1;
nodes = (
"0 480 LINE",
"0 -32 LINE",
"512 -32 LINE",
"512 480 LINE"
);
},
{
closed = 1;
nodes = (
"137 379 OFFCURVE",
"146 376 OFFCURVE",
"154 369 CURVE SMOOTH",
"162 362 OFFCURVE",
"166 352 OFFCURVE",
"167 341 CURVE",
"167 330 OFFCURVE",
"163 321 OFFCURVE",
"155 314 CURVE SMOOTH",
"147 307 OFFCURVE",
"137 303 OFFCURVE",
"125 302 CURVE",
"124 302 LINE",
"114 303 OFFCURVE",
"105 307 OFFCURVE",
"97 314 CURVE SMOOTH",
"89 321 OFFCURVE",
"85 330 OFFCURVE",
"84 341 CURVE",
"84 352 OFFCURVE",
"88 361 OFFCURVE",
"96 368 CURVE SMOOTH",
"104 375 OFFCURVE",
"114 379 OFFCURVE",
"126 379 CURVE SMOOTH"
);
},
{
closed = 1;
nodes = (
"368 277 OFFCURVE",
"388 269 OFFCURVE",
"404 253 CURVE",
"419 236 OFFCURVE",
"427 210 OFFCURVE",
"428 177 CURVE SMOOTH",
"428 50 LINE",
"354 50 LINE",
"354 169 LINE SMOOTH",
"354 202 OFFCURVE",
"342 218 OFFCURVE",
"317 219 CURVE",
"301 219 OFFCURVE",
"288 210 OFFCURVE",
"279 192 CURVE",
"278 188 OFFCURVE",
"277 182 OFFCURVE",
"277 174 CURVE SMOOTH",
"277 50 LINE",
"203 50 LINE",
"204 143 OFFCURVE",
"204 205 OFFCURVE",
"204 236 CURVE SMOOTH",
"204 254 OFFCURVE",
"204 266 OFFCURVE",
"203 272 CURVE",
"277 272 LINE",
"277 241 LINE",
"284 252 OFFCURVE",
"292 260 OFFCURVE",
"299 265 CURVE SMOOTH",
"310 273 OFFCURVE",
"325 277 OFFCURVE",
"343 278 CURVE"
);
},
{
closed = 1;
nodes = (
"88 272 LINE",
"162 272 LINE",
"162 50 LINE",
"88 50 LINE"
);
}
);
width = 512;
}
);
},
{
glyphname = uniE082;
lastChange = "2013-02-02 00:18:52 +0100";
layers = (
{
layerId = "457A0151-1F15-493B-A022-4CDC4EBB0E42";
name = Regular;
paths = (
{
closed = 1;
nodes = (
"51 134 OFFCURVE",
"49 142 OFFCURVE",
"48 145 CURVE",
"41 195 OFFCURVE",
"53 241 OFFCURVE",
"85 282 CURVE SMOOTH",
"116 323 OFFCURVE",
"154 353 OFFCURVE",
"199 371 CURVE SMOOTH",
"216 378 OFFCURVE",
"236 382 OFFCURVE",
"259 383 CURVE SMOOTH",
"282 384 OFFCURVE",
"303 383 OFFCURVE",
"321 381 CURVE SMOOTH",
"338 379 OFFCURVE",
"357 380 OFFCURVE",
"376 384 CURVE",
"395 387 OFFCURVE",
"410 395 OFFCURVE",
"423 408 CURVE",
"440 428 OFFCURVE",
"456 438 OFFCURVE",
"470 438 CURVE",
"479 437 OFFCURVE",
"486 433 OFFCURVE",
"490 426 CURVE",
"511 379 OFFCURVE",
"517 332 OFFCURVE",
"508 285 CURVE SMOOTH",
"499 237 OFFCURVE",
"480 194 OFFCURVE",
"451 155 CURVE SMOOTH",
"422 116 OFFCURVE",
"389 86 OFFCURVE",
"352 66 CURVE",
"281 31 OFFCURVE",
"212 25 OFFCURVE",
"145 48 CURVE",
"140 49 OFFCURVE",
"131 54 OFFCURVE",
"120 61 CURVE",
"108 68 OFFCURVE",
"99 72 OFFCURVE",
"92 72 CURVE",
"88 70 OFFCURVE",
"84 67 OFFCURVE",
"80 62 CURVE SMOOTH",
"76 57 OFFCURVE",
"72 50 OFFCURVE",
"67 42 CURVE SMOOTH",
"62 34 OFFCURVE",
"59 29 OFFCURVE",
"58 27 CURVE",
"53 18 OFFCURVE",
"46 12 OFFCURVE",
"37 11 CURVE",
"28 9 OFFCURVE",
"19 12 OFFCURVE",
"12 20 CURVE",
"1 30 OFFCURVE",
"-2 41 OFFCURVE",
"1 52 CURVE SMOOTH",
"4 63 OFFCURVE",
"10 72 OFFCURVE",
"19 80 CURVE",
"28 87 OFFCURVE",
"36 95 OFFCURVE",
"45 104 CURVE SMOOTH",
"53 112 OFFCURVE",
"57 118 OFFCURVE",
"56 122 CURVE"
);
},
{
closed = 1;
nodes = (
"120 136 OFFCURVE",
"125 134 OFFCURVE",
"131 135 CURVE SMOOTH",
"136 136 OFFCURVE",
"141 138 OFFCURVE",
"145 142 CURVE",
"202 210 OFFCURVE",
"276 243 OFFCURVE",
"367 240 CURVE SMOOTH",
"373 240 OFFCURVE",
"378 242 OFFCURVE",
"383 246 CURVE",
"387 250 OFFCURVE",
"389 255 OFFCURVE",
"389 261 CURVE SMOOTH",
"389 267 OFFCURVE",
"387 272 OFFCURVE",
"383 276 CURVE SMOOTH",
"379 280 OFFCURVE",
"374 282 OFFCURVE",
"368 283 CURVE",
"318 286 OFFCURVE",
"271 277 OFFCURVE",
"228 257 CURVE SMOOTH",
"184 237 OFFCURVE",
"146 208 OFFCURVE",
"113 170 CURVE",
"109 165 OFFCURVE",
"107 159 OFFCURVE",
"108 154 CURVE",
"108 148 OFFCURVE",
"110 143 OFFCURVE",
"115 139 CURVE"
);
}
);
width = 512;
}
);
},
{
glyphname = uniE083;
lastChange = "2013-02-02 00:18:52 +0100";
layers = (
{
layerId = "457A0151-1F15-493B-A022-4CDC4EBB0E42";
name = Regular;
paths = (
{
closed = 1;
nodes = (
"387 455 OFFCURVE",
"327 480 OFFCURVE",
"256 480 CURVE SMOOTH",
"185 480 OFFCURVE",
"125 455 OFFCURVE",
"75 405 CURVE SMOOTH",
"25 355 OFFCURVE",
"0 295 OFFCURVE",
"0 224 CURVE SMOOTH",
"0 153 OFFCURVE",
"25 93 OFFCURVE",
"75 43 CURVE SMOOTH",
"125 -7 OFFCURVE",
"185 -32 OFFCURVE",
"256 -32 CURVE SMOOTH",
"327 -32 OFFCURVE",
"387 -7 OFFCURVE",
"437 43 CURVE SMOOTH",
"487 93 OFFCURVE",
"512 153 OFFCURVE",
"512 224 CURVE SMOOTH",
"512 295 OFFCURVE",
"487 355 OFFCURVE",
"437 405 CURVE SMOOTH"
);
},
{
closed = 1;
nodes = (
"124 342 LINE",
"388 342 LINE",
"388 169 LINE",
"124 169 LINE"
);
},
{
closed = 1;
nodes = (
"157 310 LINE",
"157 200 LINE",
"355 200 LINE",
"355 310 LINE"
);
},
{
closed = 1;
nodes = (
"91 153 LINE",
"421 153 LINE",
"421 124 LINE",
"405 106 LINE",
"107 106 LINE",
"91 124 LINE"
);
},
{
closed = 1;
nodes = (
"225 143 LINE",
"225 117 LINE",
"287 117 LINE",
"287 143 LINE"
);
}
);
width = 512;
}
);
},
{
glyphname = uniE084;
lastChange = "2013-02-02 00:18:52 +0100";
layers = (
{
layerId = "457A0151-1F15-493B-A022-4CDC4EBB0E42";
name = Regular;
paths = (
{
closed = 1;
nodes = (
"51 406 LINE",
"51 138 LINE",
"461 138 LINE",
"461 406 LINE"
);
},
{
closed = 1;
nodes = (
"102 358 LINE",
"410 358 LINE",
"410 187 LINE",
"102 187 LINE"
);
},
{
closed = 1;
nodes = (
"0 114 LINE",
"0 69 LINE",
"26 42 LINE",
"486 42 LINE",
"512 69 LINE",
"512 114 LINE"
);
},
{
closed = 1;
nodes = (
"209 99 LINE",
"303 99 LINE",
"303 58 LINE",
"209 58 LINE"
);
}
);
width = 512;
}
);
},
{
glyphname = uniE085;
lastChange = "2013-02-02 00:18:52 +0100";
layers = (
{
layerId = "457A0151-1F15-493B-A022-4CDC4EBB0E42";
name = Regular;
paths = (
{
closed = 1;
nodes = (
"102 367 OFFCURVE",
"69 353 OFFCURVE",
"42 326 CURVE SMOOTH",
"15 299 OFFCURVE",
"1 266 OFFCURVE",
"1 227 CURVE SMOOTH",
"1 188 OFFCURVE",
"15 155 OFFCURVE",
"42 128 CURVE SMOOTH",
"69 101 OFFCURVE",
"102 87 OFFCURVE",
"141 87 CURVE SMOOTH",
"175 87 OFFCURVE",
"205 98 OFFCURVE",
"231 120 CURVE SMOOTH",
"257 142 OFFCURVE",
"273 169 OFFCURVE",
"279 202 CURVE",
"333 202 LINE",
"333 125 LINE",
"393 125 LINE",
"393 202 LINE",
"421 202 LINE",
"421 90 LINE",
"480 90 LINE",
"480 202 LINE",
"513 202 LINE",
"513 262 LINE",
"277 262 LINE",
"269 293 OFFCURVE",
"253 318 OFFCURVE",
"228 338 CURVE SMOOTH",
"203 357 OFFCURVE",
"174 367 OFFCURVE",
"141 367 CURVE SMOOTH"
);
},
{
closed = 1;
nodes = (
"103 295 OFFCURVE",
"120 302 OFFCURVE",
"141 302 CURVE SMOOTH",
"162 302 OFFCURVE",
"179 295 OFFCURVE",
"194 280 CURVE SMOOTH",
"209 265 OFFCURVE",
"216 248 OFFCURVE",
"216 227 CURVE SMOOTH",
"216 206 OFFCURVE",
"209 189 OFFCURVE",
"194 174 CURVE SMOOTH",
"179 159 OFFCURVE",
"162 152 OFFCURVE",
"141 152 CURVE SMOOTH",
"120 152 OFFCURVE",
"103 159 OFFCURVE",
"88 174 CURVE SMOOTH",
"73 189 OFFCURVE",
"66 206 OFFCURVE",
"66 227 CURVE SMOOTH",
"66 248 OFFCURVE",
"73 265 OFFCURVE",
"88 280 CURVE SMOOTH"
);
}
);
width = 512;
}
);
},
{
glyphname = uniE086;
lastChange = "2013-02-02 00:18:52 +0100";
layers = (
{
layerId = "457A0151-1F15-493B-A022-4CDC4EBB0E42";
name = Regular;
paths = (
{
closed = 1;
nodes = (
"313 4 LINE",
"306 -32 LINE",
"106 -32 LINE",
"113 4 LINE",
"178 4 LINE",
"266 443 LINE",
"201 443 LINE",
"208 480 LINE",
"408 480 LINE",
"401 443 LINE",
"336 443 LINE",
"248 4 LINE"
);
}
);
width = 512;
}
);
},
{
glyphname = uniE087;
lastChange = "2013-02-02 00:18:52 +0100";
layers = (
{
layerId = "457A0151-1F15-493B-A022-4CDC4EBB0E42";
name = Regular;
paths = (
{
closed = 1;
nodes = (
"387 455 OFFCURVE",
"327 480 OFFCURVE",
"256 480 CURVE SMOOTH",
"185 480 OFFCURVE",
"125 455 OFFCURVE",
"75 405 CURVE SMOOTH",
"25 355 OFFCURVE",
"0 295 OFFCURVE",
"0 224 CURVE SMOOTH",
"0 153 OFFCURVE",
"25 93 OFFCURVE",
"75 43 CURVE SMOOTH",
"125 -7 OFFCURVE",
"185 -32 OFFCURVE",
"256 -32 CURVE SMOOTH",
"327 -32 OFFCURVE",
"387 -7 OFFCURVE",
"437 43 CURVE SMOOTH",
"487 93 OFFCURVE",
"512 153 OFFCURVE",
"512 224 CURVE SMOOTH",
"512 295 OFFCURVE",
"487 355 OFFCURVE",
"437 405 CURVE SMOOTH"
);
},
{
closed = 1;
nodes = (
"345 334 LINE",
"351 333 OFFCURVE",
"356 331 OFFCURVE",
"360 327 CURVE SMOOTH",
"364 323 OFFCURVE",
"366 318 OFFCURVE",
"366 313 CURVE SMOOTH",
"366 135 LINE",
"365 129 OFFCURVE",
"363 124 OFFCURVE",
"359 120 CURVE SMOOTH",
"355 116 OFFCURVE",
"350 114 OFFCURVE",
"345 114 CURVE SMOOTH",
"167 114 LINE",
"161 115 OFFCURVE",
"156 117 OFFCURVE",
"152 121 CURVE SMOOTH",
"148 125 OFFCURVE",
"146 130 OFFCURVE",
"146 135 CURVE SMOOTH",
"146 313 LINE",
"147 319 OFFCURVE",
"149 324 OFFCURVE",
"153 328 CURVE SMOOTH",
"157 332 OFFCURVE",
"162 334 OFFCURVE",
"167 334 CURVE SMOOTH"
);
},
{
closed = 1;
nodes = (
"197 293 LINE SMOOTH",
"190 293 OFFCURVE",
"187 290 OFFCURVE",
"187 283 CURVE SMOOTH",
"187 166 LINE SMOOTH",
"187 159 OFFCURVE",
"190 155 OFFCURVE",
"197 155 CURVE SMOOTH",
"315 155 LINE SMOOTH",
"322 155 OFFCURVE",
"325 159 OFFCURVE",
"325 166 CURVE SMOOTH",
"325 283 LINE SMOOTH",
"325 290 OFFCURVE",
"322 293 OFFCURVE",
"315 293 CURVE SMOOTH"
);
}
);
width = 512;
}
);
},
{
glyphname = uniE088;
lastChange = "2013-02-02 00:18:52 +0100";
layers = (
{
layerId = "457A0151-1F15-493B-A022-4CDC4EBB0E42";
name = Regular;
paths = (
{
closed = 1;
nodes = (
"0 480 LINE",
"0 334 LINE",
"152 334 LINE",
"177 367 OFFCURVE",
"211 383 OFFCURVE",
"253 383 CURVE SMOOTH",
"294 383 OFFCURVE",
"328 367 OFFCURVE",
"353 334 CURVE",
"512 334 LINE",
"512 480 LINE"
);
},
{
closed = 1;
nodes = (
"458 458 LINE SMOOTH",
"466 458 OFFCURVE",
"473 455 OFFCURVE",
"479 449 CURVE SMOOTH",
"485 443 OFFCURVE",
"488 436 OFFCURVE",
"488 428 CURVE SMOOTH",
"488 387 LINE SMOOTH",
"488 379 OFFCURVE",
"485 372 OFFCURVE",
"479 366 CURVE SMOOTH",
"473 360 OFFCURVE",
"466 357 OFFCURVE",
"458 357 CURVE SMOOTH",
"410 357 LINE SMOOTH",
"401 357 OFFCURVE",
"394 360 OFFCURVE",
"388 366 CURVE SMOOTH",
"382 372 OFFCURVE",
"379 379 OFFCURVE",
"379 387 CURVE SMOOTH",
"379 428 LINE SMOOTH",
"379 436 OFFCURVE",
"382 443 OFFCURVE",
"388 449 CURVE SMOOTH",
"394 455 OFFCURVE",
"401 458 OFFCURVE",
"410 458 CURVE SMOOTH"
);
},
{
closed = 1;
nodes = (
"56 458 LINE",
"74 458 LINE",
"74 357 LINE",
"56 357 LINE"
);
},
{
closed = 1;
nodes = (
"86 458 LINE",
"104 458 LINE",
"104 357 LINE",
"86 357 LINE"
);
},
{
closed = 1;
nodes = (
"117 458 LINE",
"134 458 LINE",
"134 428 LINE",
"134 386 LINE",
"134 357 LINE",
"117 357 LINE"
);
},
{
closed = 1;
nodes = (
"43 357 LINE",
"25 357 LINE",
"25 428 LINE SMOOTH",
"25 434 OFFCURVE",
"27 440 OFFCURVE",
"30 445 CURVE SMOOTH",
"33 450 OFFCURVE",
"38 453 OFFCURVE",
"43 455 CURVE"
);
},
{
closed = 1;
nodes = (
"310 358 OFFCURVE",
"284 369 OFFCURVE",
"253 369 CURVE SMOOTH",
"222 369 OFFCURVE",
"195 358 OFFCURVE",
"173 336 CURVE SMOOTH",
"151 314 OFFCURVE",
"140 288 OFFCURVE",
"140 257 CURVE SMOOTH",
"140 226 OFFCURVE",
"151 199 OFFCURVE",
"173 178 CURVE SMOOTH",
"195 156 OFFCURVE",
"222 145 OFFCURVE",
"253 145 CURVE SMOOTH",
"284 145 OFFCURVE",
"310 156 OFFCURVE",
"332 178 CURVE SMOOTH",
"354 199 OFFCURVE",
"365 226 OFFCURVE",
"365 257 CURVE SMOOTH",
"365 288 OFFCURVE",
"354 314 OFFCURVE",
"332 336 CURVE SMOOTH"
);
},
{
closed = 1;
nodes = (
"206 337 OFFCURVE",
"227 346 OFFCURVE",
"252 346 CURVE SMOOTH",
"277 346 OFFCURVE",
"298 337 OFFCURVE",
"316 320 CURVE SMOOTH",
"333 303 OFFCURVE",
"342 282 OFFCURVE",
"342 257 CURVE SMOOTH",
"342 232 OFFCURVE",
"333 211 OFFCURVE",
"316 194 CURVE SMOOTH",
"298 177 OFFCURVE",
"277 168 OFFCURVE",
"252 168 CURVE SMOOTH",
"227 168 OFFCURVE",
"206 177 OFFCURVE",
"189 194 CURVE SMOOTH",
"172 211 OFFCURVE",
"163 232 OFFCURVE",
"163 257 CURVE SMOOTH",
"163 282 OFFCURVE",
"172 303 OFFCURVE",
"189 320 CURVE SMOOTH"
);
},
{
closed = 1;
nodes = (
"0 313 LINE",
"0 -32 LINE",
"512 -32 LINE",
"512 313 LINE",
"367 313 LINE",
"376 296 OFFCURVE",
"380 277 OFFCURVE",
"380 257 CURVE SMOOTH",
"380 222 OFFCURVE",
"368 192 OFFCURVE",
"343 167 CURVE SMOOTH",
"318 142 OFFCURVE",
"288 130 OFFCURVE",
"253 130 CURVE SMOOTH",
"218 130 OFFCURVE",
"188 142 OFFCURVE",
"163 167 CURVE SMOOTH",
"138 192 OFFCURVE",
"125 222 OFFCURVE",
"125 257 CURVE SMOOTH",
"125 277 OFFCURVE",
"129 296 OFFCURVE",
"138 313 CURVE"
);
}
);
width = 512;
}
);
},
{
glyphname = uniE089;
lastChange = "2013-02-02 00:18:52 +0100";
layers = (
{
layerId = "457A0151-1F15-493B-A022-4CDC4EBB0E42";
name = Regular;
paths = (
{
closed = 1;
nodes = (
"387 455 OFFCURVE",
"327 480 OFFCURVE",
"256 480 CURVE SMOOTH",
"185 480 OFFCURVE",
"125 455 OFFCURVE",
"75 405 CURVE SMOOTH",
"25 355 OFFCURVE",
"0 295 OFFCURVE",
"0 224 CURVE SMOOTH",
"0 153 OFFCURVE",
"25 93 OFFCURVE",
"75 43 CURVE SMOOTH",
"125 -7 OFFCURVE",
"185 -32 OFFCURVE",
"256 -32 CURVE SMOOTH",
"327 -32 OFFCURVE",
"387 -7 OFFCURVE",
"437 43 CURVE SMOOTH",
"487 93 OFFCURVE",
"512 153 OFFCURVE",
"512 224 CURVE SMOOTH",
"512 295 OFFCURVE",
"487 355 OFFCURVE",
"437 405 CURVE SMOOTH"
);
},
{
closed = 1;
nodes = (
"212 339 OFFCURVE",
"209 347 OFFCURVE",
"209 358 CURVE SMOOTH",
"209 368 OFFCURVE",
"212 376 OFFCURVE",
"219 383 CURVE",
"226 389 OFFCURVE",
"236 392 OFFCURVE",
"248 392 CURVE SMOOTH",
"260 392 OFFCURVE",
"270 389 OFFCURVE",
"277 383 CURVE",
"284 376 OFFCURVE",
"288 368 OFFCURVE",
"288 358 CURVE SMOOTH",
"288 347 OFFCURVE",
"284 339 OFFCURVE",
"277 333 CURVE",
"270 326 OFFCURVE",
"260 323 OFFCURVE",
"248 323 CURVE SMOOTH",
"236 323 OFFCURVE",
"226 326 OFFCURVE",
"219 332 CURVE"
);
},
{
closed = 1;
nodes = (
"295 268 LINE",
"290 254 OFFCURVE",
"287 239 OFFCURVE",
"287 222 CURVE SMOOTH",
"287 99 LINE SMOOTH",
"287 94 OFFCURVE",
"287 91 OFFCURVE",
"288 90 CURVE",
"289 88 OFFCURVE",
"291 86 OFFCURVE",
"294 84 CURVE",
"300 81 OFFCURVE",
"309 77 OFFCURVE",
"321 74 CURVE",
"317 56 LINE",
"288 59 OFFCURVE",
"268 60 OFFCURVE",
"257 60 CURVE SMOOTH",
"245 60 OFFCURVE",
"225 59 OFFCURVE",
"196 56 CURVE",
"192 74 LINE",
"204 77 OFFCURVE",
"213 80 OFFCURVE",
"219 84 CURVE",
"224 87 OFFCURVE",
"226 92 OFFCURVE",
"226 99 CURVE SMOOTH",
"226 224 LINE SMOOTH",
"226 236 OFFCURVE",
"222 242 OFFCURVE",
"213 242 CURVE",
"195 238 LINE",
"191 258 LINE",
"203 263 OFFCURVE",
"219 268 OFFCURVE",
"239 273 CURVE SMOOTH",
"259 278 OFFCURVE",
"274 280 OFFCURVE",
"285 280 CURVE"
);
}
);
width = 512;
}
);
},
{
glyphname = uniE08A;
lastChange = "2013-02-02 00:18:52 +0100";
layers = (
{
layerId = "457A0151-1F15-493B-A022-4CDC4EBB0E42";
name = Regular;
paths = (
{
closed = 1;
nodes = (
"0 437 LINE",
"0 362 LINE",
"512 362 LINE",
"512 437 LINE"
);
},
{
closed = 1;
nodes = (
"512 320 LINE",
"368 224 LINE",
"512 128 LINE"
);
},
{
closed = 1;
nodes = (
"0 320 LINE",
"0 245 LINE",
"296 245 LINE",
"296 320 LINE"
);
},
{
closed = 1;
nodes = (
"0 203 LINE",
"0 128 LINE",
"296 128 LINE",
"296 203 LINE"
);
},
{
closed = 1;
nodes = (
"512 86 LINE",
"0 86 LINE",
"0 11 LINE",
"512 11 LINE"
);
}
);
width = 512;
}
);
},
{
glyphname = uniE08B;
lastChange = "2013-02-02 00:18:52 +0100";
layers = (
{
layerId = "457A0151-1F15-493B-A022-4CDC4EBB0E42";
name = Regular;
paths = (
{
closed = 1;
nodes = (
"513 437 LINE",
"513 362 LINE",
"1 362 LINE",
"1 437 LINE"
);
},
{
closed = 1;
nodes = (
"1 320 LINE",
"145 224 LINE",
"1 128 LINE"
);
},
{
closed = 1;
nodes = (
"513 320 LINE",
"513 245 LINE",
"217 245 LINE",
"217 320 LINE"
);
},
{
closed = 1;
nodes = (
"513 203 LINE",
"513 128 LINE",
"217 128 LINE",
"217 203 LINE"
);
},
{
closed = 1;
nodes = (
"1 86 LINE",
"513 86 LINE",
"513 11 LINE",
"1 11 LINE"
);
}
);
width = 512;
}
);
},
{
glyphname = uniE08C;
lastChange = "2013-02-02 00:18:52 +0100";
layers = (
{
layerId = "457A0151-1F15-493B-A022-4CDC4EBB0E42";
name = Regular;
paths = (
{
closed = 1;
nodes = (
"0 243 LINE",
"1 252 OFFCURVE",
"4 259 OFFCURVE",
"11 266 CURVE SMOOTH",
"17 272 OFFCURVE",
"24 275 OFFCURVE",
"33 275 CURVE SMOOTH",
"112 275 LINE",
"120 281 OFFCURVE",
"130 291 OFFCURVE",
"143 305 CURVE SMOOTH",
"156 319 OFFCURVE",
"166 329 OFFCURVE",
"173 334 CURVE",
"180 340 OFFCURVE",
"186 347 OFFCURVE",
"191 355 CURVE",
"194 362 OFFCURVE",
"198 376 OFFCURVE",
"201 395 CURVE SMOOTH",
"204 414 OFFCURVE",
"209 427 OFFCURVE",
"216 435 CURVE",
"235 443 OFFCURVE",
"255 442 OFFCURVE",
"275 433 CURVE SMOOTH",
"295 424 OFFCURVE",
"308 410 OFFCURVE",
"315 391 CURVE SMOOTH",
"324 365 OFFCURVE",
"321 336 OFFCURVE",
"306 304 CURVE",
"325 304 OFFCURVE",
"371 304 OFFCURVE",
"446 303 CURVE",
"465 302 OFFCURVE",
"481 295 OFFCURVE",
"494 284 CURVE",
"506 272 OFFCURVE",
"512 257 OFFCURVE",
"512 238 CURVE SMOOTH",
"512 220 OFFCURVE",
"506 205 OFFCURVE",
"493 193 CURVE SMOOTH",
"480 181 OFFCURVE",
"464 175 OFFCURVE",
"446 174 CURVE",
"391 174 LINE",
"389 163 OFFCURVE",
"385 154 OFFCURVE",
"380 145 CURVE",
"383 122 OFFCURVE",
"378 101 OFFCURVE",
"363 84 CURVE",
"362 59 OFFCURVE",
"355 41 OFFCURVE",
"342 28 CURVE SMOOTH",
"329 15 OFFCURVE",
"312 9 OFFCURVE",
"292 8 CURVE SMOOTH",
"271 7 OFFCURVE",
"251 9 OFFCURVE",
"232 12 CURVE SMOOTH",
"212 15 OFFCURVE",
"191 20 OFFCURVE",
"168 25 CURVE SMOOTH",
"145 30 OFFCURVE",
"129 32 OFFCURVE",
"120 32 CURVE SMOOTH",
"33 32 LINE",
"24 33 OFFCURVE",
"16 36 OFFCURVE",
"10 43 CURVE",
"3 49 OFFCURVE",
"0 56 OFFCURVE",
"0 65 CURVE SMOOTH"
);
},
{
closed = 1;
nodes = (
"118 65 LINE",
"126 65 OFFCURVE",
"140 63 OFFCURVE",
"161 58 CURVE SMOOTH",
"182 53 OFFCURVE",
"201 48 OFFCURVE",
"220 45 CURVE",
"239 41 OFFCURVE",
"257 39 OFFCURVE",
"276 38 CURVE SMOOTH",
"295 37 OFFCURVE",
"309 42 OFFCURVE",
"319 52 CURVE SMOOTH",
"328 61 OFFCURVE",
"331 77 OFFCURVE",
"328 98 CURVE",
"337 103 OFFCURVE",
"344 111 OFFCURVE",
"347 122 CURVE SMOOTH",
"350 133 OFFCURVE",
"348 143 OFFCURVE",
"343 152 CURVE",
"363 172 OFFCURVE",
"365 190 OFFCURVE",
"348 207 CURVE",
"365 207 OFFCURVE",
"381 207 OFFCURVE",
"398 207 CURVE SMOOTH",
"414 207 OFFCURVE",
"430 207 OFFCURVE",
"446 207 CURVE",
"455 208 OFFCURVE",
"463 211 OFFCURVE",
"469 217 CURVE SMOOTH",
"475 223 OFFCURVE",
"478 230 OFFCURVE",
"479 238 CURVE",
"478 248 OFFCURVE",
"475 256 OFFCURVE",
"469 262 CURVE",
"463 267 OFFCURVE",
"455 270 OFFCURVE",
"446 271 CURVE",
"425 271 OFFCURVE",
"393 271 OFFCURVE",
"352 271 CURVE SMOOTH",
"310 271 OFFCURVE",
"279 271 OFFCURVE",
"259 271 CURVE",
"260 279 OFFCURVE",
"264 290 OFFCURVE",
"270 305 CURVE",
"275 320 OFFCURVE",
"280 332 OFFCURVE",
"284 343 CURVE",
"287 353 OFFCURVE",
"288 364 OFFCURVE",
"286 377 CURVE",
"283 389 OFFCURVE",
"276 399 OFFCURVE",
"264 406 CURVE SMOOTH",
"255 411 OFFCURVE",
"247 412 OFFCURVE",
"240 411 CURVE",
"239 410 OFFCURVE",
"238 410 OFFCURVE",
"238 409 CURVE",
"237 408 OFFCURVE",
"237 406 OFFCURVE",
"237 405 CURVE",
"234 390 OFFCURVE",
"232 378 OFFCURVE",
"231 370 CURVE",
"229 362 OFFCURVE",
"225 353 OFFCURVE",
"220 342 CURVE SMOOTH",
"215 331 OFFCURVE",
"208 321 OFFCURVE",
"199 314 CURVE SMOOTH",
"193 309 OFFCURVE",
"182 298 OFFCURVE",
"165 279 CURVE SMOOTH",
"148 260 OFFCURVE",
"133 248 OFFCURVE",
"120 243 CURVE",
"118 243 LINE"
);
}
);
width = 512;
}
);
},
{
glyphname = uniE08D;
lastChange = "2013-02-02 00:18:52 +0100";
layers = (
{
layerId = "457A0151-1F15-493B-A022-4CDC4EBB0E42";
name = Regular;
paths = (
{
closed = 1;
nodes = (
"513 243 LINE",
"512 252 OFFCURVE",
"509 259 OFFCURVE",
"503 266 CURVE",
"496 272 OFFCURVE",
"489 275 OFFCURVE",
"480 275 CURVE SMOOTH",
"401 275 LINE",
"393 281 OFFCURVE",
"383 291 OFFCURVE",
"370 305 CURVE SMOOTH",
"357 319 OFFCURVE",
"347 329 OFFCURVE",
"340 334 CURVE",
"333 340 OFFCURVE",
"327 347 OFFCURVE",
"322 355 CURVE",
"319 362 OFFCURVE",
"316 376 OFFCURVE",
"313 395 CURVE SMOOTH",
"310 414 OFFCURVE",
"304 427 OFFCURVE",
"297 435 CURVE",
"278 443 OFFCURVE",
"258 442 OFFCURVE",
"238 433 CURVE SMOOTH",
"218 424 OFFCURVE",
"205 410 OFFCURVE",
"198 391 CURVE SMOOTH",
"189 365 OFFCURVE",
"192 336 OFFCURVE",
"207 304 CURVE",
"188 304 OFFCURVE",
"142 304 OFFCURVE",
"67 303 CURVE",
"48 302 OFFCURVE",
"32 295 OFFCURVE",
"20 284 CURVE SMOOTH",
"7 272 OFFCURVE",
"1 257 OFFCURVE",
"1 238 CURVE SMOOTH",
"1 220 OFFCURVE",
"8 205 OFFCURVE",
"21 193 CURVE SMOOTH",
"34 181 OFFCURVE",
"49 175 OFFCURVE",
"67 174 CURVE",
"122 174 LINE",
"124 163 OFFCURVE",
"128 154 OFFCURVE",
"133 145 CURVE",
"130 122 OFFCURVE",
"135 101 OFFCURVE",
"150 84 CURVE",
"151 59 OFFCURVE",
"159 41 OFFCURVE",
"172 28 CURVE SMOOTH",
"185 15 OFFCURVE",
"201 9 OFFCURVE",
"222 8 CURVE SMOOTH",
"242 7 OFFCURVE",
"262 9 OFFCURVE",
"282 12 CURVE SMOOTH",
"301 15 OFFCURVE",
"322 20 OFFCURVE",
"345 25 CURVE SMOOTH",
"368 30 OFFCURVE",
"384 32 OFFCURVE",
"393 32 CURVE SMOOTH",
"480 32 LINE",
"489 33 OFFCURVE",
"497 36 OFFCURVE",
"504 43 CURVE SMOOTH",
"510 49 OFFCURVE",
"513 56 OFFCURVE",
"513 65 CURVE SMOOTH"
);
},
{
closed = 1;
nodes = (
"395 65 LINE",
"387 65 OFFCURVE",
"373 63 OFFCURVE",
"352 58 CURVE SMOOTH",
"331 53 OFFCURVE",
"312 48 OFFCURVE",
"293 45 CURVE",
"274 41 OFFCURVE",
"256 39 OFFCURVE",
"237 38 CURVE SMOOTH",
"218 37 OFFCURVE",
"204 42 OFFCURVE",
"195 52 CURVE",
"185 61 OFFCURVE",
"182 77 OFFCURVE",
"185 98 CURVE",
"176 103 OFFCURVE",
"170 111 OFFCURVE",
"167 122 CURVE SMOOTH",
"164 133 OFFCURVE",
"165 143 OFFCURVE",
"170 152 CURVE",
"150 172 OFFCURVE",
"148 190 OFFCURVE",
"165 207 CURVE",
"148 207 OFFCURVE",
"132 207 OFFCURVE",
"116 207 CURVE SMOOTH",
"99 207 OFFCURVE",
"83 207 OFFCURVE",
"67 207 CURVE",
"58 208 OFFCURVE",
"50 211 OFFCURVE",
"44 217 CURVE SMOOTH",
"38 223 OFFCURVE",
"35 230 OFFCURVE",
"34 238 CURVE",
"35 248 OFFCURVE",
"38 256 OFFCURVE",
"44 262 CURVE",
"50 267 OFFCURVE",
"58 270 OFFCURVE",
"67 271 CURVE",
"88 271 OFFCURVE",
"120 271 OFFCURVE",
"162 271 CURVE SMOOTH",
"203 271 OFFCURVE",
"234 271 OFFCURVE",
"254 271 CURVE",
"253 279 OFFCURVE",
"249 290 OFFCURVE",
"244 305 CURVE",
"238 320 OFFCURVE",
"233 332 OFFCURVE",
"230 343 CURVE",
"226 353 OFFCURVE",
"225 364 OFFCURVE",
"228 377 CURVE",
"230 389 OFFCURVE",
"237 399 OFFCURVE",
"249 406 CURVE SMOOTH",
"258 411 OFFCURVE",
"266 412 OFFCURVE",
"273 411 CURVE",
"274 410 OFFCURVE",
"275 410 OFFCURVE",
"276 409 CURVE",
"276 408 OFFCURVE",
"276 406 OFFCURVE",
"276 405 CURVE",
"279 390 OFFCURVE",
"281 378 OFFCURVE",
"283 370 CURVE",
"284 362 OFFCURVE",
"288 353 OFFCURVE",
"293 342 CURVE SMOOTH",
"298 331 OFFCURVE",
"305 321 OFFCURVE",
"314 314 CURVE SMOOTH",
"320 309 OFFCURVE",
"332 298 OFFCURVE",
"349 279 CURVE SMOOTH",
"366 260 OFFCURVE",
"380 248 OFFCURVE",
"393 243 CURVE",
"395 243 LINE"
);
}
);
width = 512;
}
);
},
{
glyphname = uniE08E;
lastChange = "2013-02-02 00:18:52 +0100";
layers = (
{
layerId = "457A0151-1F15-493B-A022-4CDC4EBB0E42";
name = Regular;
paths = (
{
closed = 1;
nodes = (
"275 480 LINE",
"284 479 OFFCURVE",
"291 476 OFFCURVE",
"298 470 CURVE",
"304 463 OFFCURVE",
"307 456 OFFCURVE",
"307 447 CURVE SMOOTH",
"307 368 LINE",
"313 360 OFFCURVE",
"323 350 OFFCURVE",
"337 337 CURVE SMOOTH",
"351 324 OFFCURVE",
"361 314 OFFCURVE",
"366 307 CURVE",
"372 300 OFFCURVE",
"379 294 OFFCURVE",
"387 289 CURVE",
"394 286 OFFCURVE",
"408 283 OFFCURVE",
"427 280 CURVE SMOOTH",
"446 277 OFFCURVE",
"459 271 OFFCURVE",
"467 264 CURVE",
"475 245 OFFCURVE",
"474 225 OFFCURVE",
"465 205 CURVE SMOOTH",
"456 185 OFFCURVE",
"442 172 OFFCURVE",
"423 165 CURVE SMOOTH",
"397 156 OFFCURVE",
"368 159 OFFCURVE",
"336 174 CURVE",
"336 155 OFFCURVE",
"336 109 OFFCURVE",
"335 34 CURVE",
"334 15 OFFCURVE",
"327 -1 OFFCURVE",
"316 -13 CURVE SMOOTH",
"304 -26 OFFCURVE",
"289 -32 OFFCURVE",
"270 -32 CURVE SMOOTH",
"252 -32 OFFCURVE",
"237 -25 OFFCURVE",
"225 -12 CURVE SMOOTH",
"213 1 OFFCURVE",
"207 16 OFFCURVE",
"206 34 CURVE",
"206 89 LINE",
"195 91 OFFCURVE",
"186 95 OFFCURVE",
"177 100 CURVE",
"154 97 OFFCURVE",
"133 102 OFFCURVE",
"116 117 CURVE",
"91 118 OFFCURVE",
"73 126 OFFCURVE",
"60 139 CURVE SMOOTH",
"47 152 OFFCURVE",
"41 168 OFFCURVE",
"40 189 CURVE SMOOTH",
"39 209 OFFCURVE",
"41 229 OFFCURVE",
"44 249 CURVE SMOOTH",
"47 268 OFFCURVE",
"52 289 OFFCURVE",
"57 312 CURVE SMOOTH",
"62 335 OFFCURVE",
"64 351 OFFCURVE",
"64 360 CURVE SMOOTH",
"64 447 LINE",
"65 456 OFFCURVE",
"68 464 OFFCURVE",
"75 471 CURVE SMOOTH",
"81 477 OFFCURVE",
"88 480 OFFCURVE",
"97 480 CURVE SMOOTH"
);
},
{
closed = 1;
nodes = (
"97 362 LINE",
"97 354 OFFCURVE",
"95 340 OFFCURVE",
"90 319 CURVE SMOOTH",
"85 298 OFFCURVE",
"80 279 OFFCURVE",
"77 260 CURVE",
"73 241 OFFCURVE",
"71 223 OFFCURVE",
"70 204 CURVE SMOOTH",
"69 185 OFFCURVE",
"74 171 OFFCURVE",
"84 162 CURVE",
"93 152 OFFCURVE",
"109 149 OFFCURVE",
"130 152 CURVE",
"135 143 OFFCURVE",
"143 137 OFFCURVE",
"154 134 CURVE SMOOTH",
"165 131 OFFCURVE",
"175 132 OFFCURVE",
"184 137 CURVE",
"204 117 OFFCURVE",
"222 115 OFFCURVE",
"239 132 CURVE",
"239 115 OFFCURVE",
"239 99 OFFCURVE",
"239 83 CURVE SMOOTH",
"239 66 OFFCURVE",
"239 50 OFFCURVE",
"239 34 CURVE",
"240 25 OFFCURVE",
"243 17 OFFCURVE",
"249 11 CURVE SMOOTH",
"255 5 OFFCURVE",
"262 2 OFFCURVE",
"270 1 CURVE",
"280 2 OFFCURVE",
"288 5 OFFCURVE",
"294 11 CURVE",
"299 17 OFFCURVE",
"302 25 OFFCURVE",
"303 34 CURVE",
"303 55 OFFCURVE",
"303 87 OFFCURVE",
"303 129 CURVE SMOOTH",
"303 170 OFFCURVE",
"303 201 OFFCURVE",
"303 221 CURVE",
"311 220 OFFCURVE",
"322 216 OFFCURVE",
"337 211 CURVE",
"352 205 OFFCURVE",
"364 200 OFFCURVE",
"375 197 CURVE",
"385 193 OFFCURVE",
"396 192 OFFCURVE",
"409 195 CURVE",
"421 197 OFFCURVE",
"431 204 OFFCURVE",
"438 216 CURVE SMOOTH",
"443 225 OFFCURVE",
"444 233 OFFCURVE",
"443 240 CURVE",
"442 241 OFFCURVE",
"442 242 OFFCURVE",
"441 243 CURVE",
"440 243 OFFCURVE",
"438 243 OFFCURVE",
"437 243 CURVE",
"422 246 OFFCURVE",
"410 248 OFFCURVE",
"402 250 CURVE",
"394 251 OFFCURVE",
"385 255 OFFCURVE",
"374 260 CURVE SMOOTH",
"363 265 OFFCURVE",
"353 272 OFFCURVE",
"346 281 CURVE SMOOTH",
"341 287 OFFCURVE",
"330 299 OFFCURVE",
"311 316 CURVE SMOOTH",
"292 333 OFFCURVE",
"280 347 OFFCURVE",
"275 360 CURVE",
"275 362 LINE"
);
}
);
width = 512;
}
);
},
